Pretension2-Regular.ufo
<glyph name="at" format="2">
  <advance width="1978"/>
  <unicode hex="0040"/>
  <outline>
    <contour>
      <point x="1044" y="-395" type="qcurve" smooth="yes"/>
      <point x="821" y="-395"/>
      <point x="477" y="-273"/>
      <point x="242" y="-38"/>
      <point x="122" y="305"/>
      <point x="122" y="525" type="qcurve" smooth="yes"/>
      <point x="122" y="738"/>
      <point x="244" y="1076"/>
      <point x="477" y="1313"/>
      <point x="811" y="1438"/>
      <point x="1023" y="1438" type="qcurve" smooth="yes"/>
      <point x="1229" y="1438"/>
      <point x="1540" y="1305"/>
      <point x="1750" y="1078"/>
      <point x="1856" y="792"/>
      <point x="1856" y="640" type="qcurve" smooth="yes"/>
      <point x="1856" y="533"/>
      <point x="1834" y="318"/>
      <point x="1765" y="139"/>
      <point x="1628" y="30"/>
      <point x="1512" y="30" type="qcurve" smooth="yes"/>
      <point x="1460" y="30"/>
      <point x="1338" y="62"/>
      <point x="1245" y="136"/>
      <point x="1236" y="198" type="qcurve"/>
      <point x="1228" y="198" type="line"/>
      <point x="1202" y="134"/>
      <point x="1068" y="37"/>
      <point x="955" y="37" type="qcurve" smooth="yes"/>
      <point x="822" y="37"/>
      <point x="643" y="169"/>
      <point x="552" y="394"/>
      <point x="552" y="535" type="qcurve" smooth="yes"/>
      <point x="552" y="669"/>
      <point x="659" y="881"/>
      <point x="846" y="1004"/>
      <point x="965" y="1004" type="qcurve" smooth="yes"/>
      <point x="1061" y="1004"/>
      <point x="1190" y="934"/>
      <point x="1217" y="896" type="qcurve"/>
      <point x="1227" y="896" type="line"/>
      <point x="1227" y="980" type="line"/>
      <point x="1385" y="980" type="line"/>
      <point x="1385" y="321" type="line" smooth="yes"/>
      <point x="1385" y="261"/>
      <point x="1452" y="171"/>
      <point x="1516" y="171" type="qcurve" smooth="yes"/>
      <point x="1589" y="171"/>
      <point x="1667" y="271"/>
      <point x="1697" y="479"/>
      <point x="1697" y="642" type="qcurve" smooth="yes"/>
      <point x="1697" y="766"/>
      <point x="1614" y="999"/>
      <point x="1446" y="1185"/>
      <point x="1190" y="1294"/>
      <point x="1017" y="1294" type="qcurve" smooth="yes"/>
      <point x="845" y="1294"/>
      <point x="575" y="1189"/>
      <point x="387" y="989"/>
      <point x="289" y="702"/>
      <point x="289" y="520" type="qcurve" smooth="yes"/>
      <point x="289" y="336"/>
      <point x="387" y="49"/>
      <point x="581" y="-148"/>
      <point x="865" y="-250"/>
      <point x="1051" y="-250" type="qcurve" smooth="yes"/>
      <point x="1131" y="-250"/>
      <point x="1284" y="-220"/>
      <point x="1404" y="-183"/>
      <point x="1433" y="-173" type="qcurve"/>
      <point x="1476" y="-313" type="line"/>
      <point x="1430" y="-332"/>
      <point x="1285" y="-370"/>
      <point x="1120" y="-395"/>
    </contour>
    <contour>
      <point x="962" y="190" type="qcurve" smooth="yes"/>
      <point x="1059" y="190"/>
      <point x="1178" y="268"/>
      <point x="1233" y="425"/>
      <point x="1233" y="543" type="qcurve" smooth="yes"/>
      <point x="1233" y="663"/>
      <point x="1173" y="798"/>
      <point x="1054" y="853"/>
      <point x="967" y="853" type="qcurve" smooth="yes"/>
      <point x="885" y="853"/>
      <point x="769" y="768"/>
      <point x="707" y="627"/>
      <point x="707" y="543" type="qcurve" smooth="yes"/>
      <point x="707" y="451"/>
      <point x="757" y="289"/>
      <point x="869" y="190"/>
    </contour>
  </outline>
</glyph>
<glyph name="A" format="2">
  <advance width="1413"/>
  <unicode hex="0041"/>
  <anchor x="955" y="0" name="m.uni0326"/>
  <anchor x="955" y="1490" name="m.uni030F_1"/>
  <anchor x="1872" y="0" name="m.uni0328_4"/>
  <outline>
    <contour>
      <point x="52" y="0" type="line"/>
      <point x="593" y="1490" type="line"/>
      <point x="813" y="1490" type="line"/>
      <point x="1361" y="0" type="line"/>
      <point x="1161" y="0" type="line"/>
      <point x="845" y="884" type="line" smooth="yes"/>
      <point x="816" y="966"/>
      <point x="739" y="1211"/>
      <point x="684" y="1401" type="qcurve"/>
      <point x="720" y="1401" type="line"/>
      <point x="666" y="1209"/>
      <point x="587" y="960"/>
      <point x="561" y="884" type="qcurve" smooth="yes"/>
      <point x="254" y="0" type="line"/>
    </contour>
    <contour>
      <point x="324" y="416" type="line"/>
      <point x="324" y="582" type="line"/>
      <point x="1089" y="582" type="line"/>
      <point x="1089" y="416" type="line"/>
    </contour>
  </outline>
</glyph>
<glyph name="M" format="2">
  <advance width="1850"/>
  <unicode hex="004D"/>
  <anchor x="1091" y="0" name="m.uni0326"/>
  <anchor x="1091" y="1490" name="m.uni030F_1"/>
  <outline>
    <contour>
      <point x="180" y="0" type="line"/>
      <point x="180" y="1490" type="line"/>
      <point x="450" y="1490" type="line"/>
      <point x="817" y="550" type="line" smooth="yes"/>
      <point x="830" y="517"/>
      <point x="863" y="418"/>
      <point x="900" y="302"/>
      <point x="934" y="187"/>
      <point x="947" y="138" type="qcurve"/>
      <point x="905" y="138" type="line"/>
      <point x="919" y="184"/>
      <point x="953" y="297"/>
      <point x="990" y="414"/>
      <point x="1024" y="516"/>
      <point x="1037" y="550" type="qcurve" smooth="yes"/>
      <point x="1399" y="1490" type="line"/>
      <point x="1670" y="1490" type="line"/>
      <point x="1670" y="0" type="line"/>
      <point x="1483" y="0" type="line"/>
      <point x="1483" y="851" type="line" smooth="yes"/>
      <point x="1483" y="897"/>
      <point x="1484" y="1015"/>
      <point x="1487" y="1145"/>
      <point x="1490" y="1279"/>
      <point x="1491" y="1342" type="qcurve"/>
      <point x="1507" y="1342" type="line"/>
      <point x="1486" y="1273"/>
      <point x="1439" y="1130"/>
      <point x="1394" y="997"/>
      <point x="1354" y="887"/>
      <point x="1340" y="851" type="qcurve" smooth="yes"/>
      <point x="1007" y="0" type="line"/>
      <point x="842" y="0" type="line"/>
      <point x="504" y="851" type="line" smooth="yes"/>
      <point x="490" y="886"/>
      <point x="452" y="993"/>
      <point x="407" y="1124"/>
      <point x="359" y="1269"/>
      <point x="334" y="1342" type="qcurve"/>
      <point x="352" y="1342" type="line"/>
      <point x="354" y="1286"/>
      <point x="357" y="1156"/>
      <point x="359" y="1023"/>
      <point x="361" y="900"/>
      <point x="361" y="851" type="qcurve" smooth="yes"/>
      <point x="361" y="0" type="line"/>
    </contour>
  </outline>
</glyph>
<glyph name="a" format="2">
  <advance width="1142"/>
  <unicode hex="0061"/>
  <outline>
    <contour>
      <point x="472" y="-26" type="qcurve" smooth="yes"/>
      <point x="366" y="-26"/>
      <point x="192" y="55"/>
      <point x="90" y="209"/>
      <point x="90" y="318" type="qcurve" smooth="yes"/>
      <point x="90" y="414"/>
      <point x="166" y="533"/>
      <point x="293" y="602"/>
      <point x="446" y="637"/>
      <point x="524" y="645" type="qcurve" smooth="yes"/>
      <point x="814" y="674" type="line"/>
      <point x="814" y="754" type="line" smooth="yes"/>
      <point x="814" y="826"/>
      <point x="761" y="927"/>
      <point x="655" y="980"/>
      <point x="576" y="980" type="qcurve" smooth="yes"/>
      <point x="494" y="980"/>
      <point x="379" y="930"/>
      <point x="305" y="853"/>
      <point x="286" y="812" type="qcurve"/>
      <point x="122" y="870" type="line"/>
      <point x="166" y="972"/>
      <point x="313" y="1086"/>
      <point x="486" y="1132"/>
      <point x="570" y="1132" type="qcurve" smooth="yes"/>
      <point x="624" y="1132"/>
      <point x="764" y="1107"/>
      <point x="897" y="1028"/>
      <point x="984" y="869"/>
      <point x="984" y="736" type="qcurve" smooth="yes"/>
      <point x="984" y="196" type="line"/>
      <point x="984" y="131"/>
      <point x="995" y="65"/>
      <point x="1006" y="0" type="curve"/>
      <point x="838" y="0" type="line"/>
      <point x="827" y="51"/>
      <point x="816" y="101"/>
      <point x="816" y="152" type="curve"/>
      <point x="804" y="152" type="line"/>
      <point x="787" y="116"/>
      <point x="705" y="33"/>
      <point x="570" y="-26"/>
    </contour>
    <contour>
      <point x="498" y="128" type="qcurve" smooth="yes"/>
      <point x="600" y="128"/>
      <point x="741" y="208"/>
      <point x="814" y="335"/>
      <point x="814" y="404" type="qcurve" smooth="yes"/>
      <point x="814" y="537" type="line"/>
      <point x="516" y="498" type="line" smooth="yes"/>
      <point x="449" y="489"/>
      <point x="333" y="450"/>
      <point x="262" y="374"/>
      <point x="262" y="308" type="qcurve" smooth="yes"/>
      <point x="262" y="248"/>
      <point x="323" y="168"/>
      <point x="430" y="128"/>
    </contour>
  </outline>
</glyph>
<glyph name="t" format="2">
  <advance width="670"/>
  <unicode hex="0074"/>
  <anchor x="543" y="0" name="m.uni0326"/>
  <anchor x="463" y="1424" name="m.uni030F_1"/>
  <anchor x="664" y="0" name="m.uni0327_3"/>
  <outline>
    <contour>
      <point x="598" y="1118" type="line"/>
      <point x="598" y="964" type="line"/>
      <point x="20" y="964" type="line"/>
      <point x="20" y="1118" type="line"/>
    </contour>
    <contour>
      <point x="188" y="1384" type="line"/>
      <point x="368" y="1384" type="line"/>
      <point x="368" y="290" type="line" smooth="yes"/>
      <point x="368" y="215"/>
      <point x="429" y="146"/>
      <point x="500" y="146" type="qcurve" smooth="yes"/>
      <point x="517" y="146"/>
      <point x="570" y="154"/>
      <point x="592" y="158" type="qcurve"/>
      <point x="629" y="6" type="line"/>
      <point x="601" y="-4"/>
      <point x="530" y="-14"/>
      <point x="495" y="-14" type="qcurve" smooth="yes"/>
      <point x="350" y="-14"/>
      <point x="188" y="139"/>
      <point x="188" y="276" type="qcurve" smooth="yes"/>
    </contour>
  </outline>
</glyph>
<glyph name="v" format="2">
  <advance width="1151"/>
  <unicode hex="0076"/>
  <anchor x="778" y="0" name="m.uni0326"/>
  <anchor x="778" y="1180" name="m.uni030F_1"/>
  <outline>
    <contour>
      <point x="481" y="0" type="line"/>
      <point x="54" y="1118" type="line"/>
      <point x="251" y="1118" type="line"/>
      <point x="489" y="455" type="line"/>
      <point x="527" y="352"/>
      <point x="580" y="147"/>
      <point x="609" y="51" type="qcurve"/>
      <point x="543" y="51" type="line"/>
      <point x="572" y="147"/>
      <point x="625" y="352"/>
      <point x="662" y="455" type="qcurve" smooth="yes"/>
      <point x="900" y="1118" type="line"/>
      <point x="1097" y="1118" type="line"/>
      <point x="670" y="0" type="line"/>
    </contour>
  </outline>
</glyph>
<glyph name="braceright" format="2">
  <advance width="873"/>
  <unicode hex="007D"/>
  <outline>
    <contour>
      <point x="729" y="646" type="line"/>
      <point x="608" y="646"/>
      <point x="457" y="683"/>
      <point x="375" y="751"/>
      <point x="345" y="844"/>
      <point x="345" y="901" type="qcurve" smooth="yes"/>
      <point x="345" y="1187" type="line" smooth="yes"/>
      <point x="345" y="1313"/>
      <point x="251" y="1430"/>
      <point x="123" y="1430" type="qcurve"/>
      <point x="123" y="1581" type="line"/>
      <point x="230" y="1581"/>
      <point x="378" y="1535"/>
      <point x="469" y="1440"/>
      <point x="510" y="1292"/>
      <point x="510" y="1190" type="qcurve" smooth="yes"/>
      <point x="510" y="960" type="line" smooth="yes"/>
      <point x="510" y="842"/>
      <point x="607" y="741"/>
      <point x="729" y="741" type="qcurve"/>
    </contour>
    <contour>
      <point x="123" y="-279" type="qcurve"/>
      <point x="123" y="-130" type="line"/>
      <point x="251" y="-130"/>
      <point x="345" y="-12"/>
      <point x="345" y="115" type="qcurve" smooth="yes"/>
      <point x="345" y="399" type="line" smooth="yes"/>
      <point x="345" y="455"/>
      <point x="375" y="549"/>
      <point x="457" y="618"/>
      <point x="608" y="656"/>
      <point x="729" y="656" type="qcurve"/>
      <point x="729" y="561" type="line"/>
      <point x="606" y="560"/>
      <point x="510" y="458"/>
      <point x="510" y="340" type="qcurve" smooth="yes"/>
      <point x="510" y="112" type="line" smooth="yes"/>
      <point x="510" y="9"/>
      <point x="469" y="-139"/>
      <point x="378" y="-234"/>
      <point x="230" y="-279"/>
    </contour>
    <contour>
      <point x="729" y="561" type="line"/>
      <point x="549" y="560" type="line"/>
      <point x="549" y="742" type="line"/>
      <point x="729" y="741" type="line"/>
    </contour>
  </outline>
</glyph>
<glyph name="asciitilde" format="2">
  <advance width="1355"/>
  <unicode hex="007E"/>
  <outline>
    <contour>
      <point x="168" y="439" type="line"/>
      <point x="166" y="563"/>
      <point x="249" y="713"/>
      <point x="384" y="780"/>
      <point x="458" y="780" type="qcurve" smooth="yes"/>
      <point x="532" y="780"/>
      <point x="654" y="718"/>
      <point x="735" y="647" type="qcurve" smooth="yes"/>
      <point x="788" y="601"/>
      <point x="852" y="563"/>
      <point x="890" y="563" type="qcurve" smooth="yes"/>
      <point x="952" y="563"/>
      <point x="1023" y="653"/>
      <point x="1023" y="740" type="qcurve"/>
      <point x="1187" y="740" type="line"/>
      <point x="1189" y="617"/>
      <point x="1105" y="467"/>
      <point x="971" y="400"/>
      <point x="897" y="400" type="qcurve" smooth="yes"/>
      <point x="821" y="400"/>
      <point x="697" y="465"/>
      <point x="620" y="532" type="qcurve" smooth="yes"/>
      <point x="566" y="579"/>
      <point x="503" y="616"/>
      <point x="465" y="616" type="qcurve" smooth="yes"/>
      <point x="407" y="616"/>
      <point x="331" y="534"/>
      <point x="332" y="439" type="qcurve"/>
    </contour>
  </outline>
</glyph>
<glyph name="exclamdown" format="2">
  <advance width="554"/>
  <unicode hex="00A1"/>
  <outline>
    <contour>
      <point x="367" y="639" type="line"/>
      <point x="379" y="-372" type="line"/>
      <point x="175" y="-372" type="line"/>
      <point x="188" y="639" type="line"/>
    </contour>
    <contour>
      <point x="394" y="1118" type="line"/>
      <point x="394" y="886" type="line"/>
      <point x="160" y="886" type="line"/>
      <point x="160" y="1118" type="line"/>
    </contour>
  </outline>
</glyph>
<glyph name="ordfeminine" format="2">
  <advance width="921"/>
  <unicode hex="00AA"/>
  <outline>
    <component base="amod" xOffset="82" yOffset="-40"/>
    <contour>
      <point x="804" y="579" type="line"/>
      <point x="804" y="453" type="line"/>
      <point x="150" y="453" type="line"/>
      <point x="150" y="579" type="line"/>
    </contour>
  </outline>
</glyph>
<glyph name="registered" format="2">
  <advance width="1374"/>
  <unicode hex="00AE"/>
  <outline>
    <contour>
      <point x="481" y="666" type="line"/>
      <point x="481" y="1202" type="line"/>
      <point x="753" y="1202" type="line" smooth="yes"/>
      <point x="787" y="1202"/>
      <point x="865" y="1165"/>
      <point x="920" y="1090"/>
      <point x="920" y="1032" type="qcurve" smooth="yes"/>
      <point x="920" y="973"/>
      <point x="863" y="890"/>
      <point x="782" y="848"/>
      <point x="745" y="848" type="qcurve" smooth="yes"/>
      <point x="550" y="848" type="line"/>
      <point x="550" y="937" type="line"/>
      <point x="709" y="937" type="line" smooth="yes"/>
      <point x="734" y="937"/>
      <point x="789" y="984"/>
      <point x="789" y="1032" type="qcurve" smooth="yes"/>
      <point x="789" y="1080"/>
      <point x="733" y="1115"/>
      <point x="711" y="1115" type="qcurve" smooth="yes"/>
      <point x="601" y="1115" type="line"/>
      <point x="601" y="666" type="line"/>
    </contour>
    <contour>
      <point x="809" y="920" type="line"/>
      <point x="942" y="666" type="line"/>
      <point x="810" y="666" type="line"/>
      <point x="679" y="920" type="line"/>
    </contour>
    <contour>
      <point x="686" y="346" type="qcurve" smooth="yes"/>
      <point x="566" y="346"/>
      <point x="355" y="437"/>
      <point x="195" y="597"/>
      <point x="104" y="808"/>
      <point x="104" y="928" type="qcurve" smooth="yes"/>
      <point x="104" y="1048"/>
      <point x="195" y="1259"/>
      <point x="355" y="1419"/>
      <point x="566" y="1510"/>
      <point x="686" y="1510" type="qcurve" smooth="yes"/>
      <point x="807" y="1510"/>
      <point x="1018" y="1419"/>
      <point x="1178" y="1259"/>
      <point x="1268" y="1048"/>
      <point x="1268" y="928" type="qcurve" smooth="yes"/>
      <point x="1268" y="808"/>
      <point x="1178" y="597"/>
      <point x="1018" y="437"/>
      <point x="807" y="346"/>
    </contour>
    <contour>
      <point x="686" y="487" type="qcurve" smooth="yes"/>
      <point x="808" y="487"/>
      <point x="1008" y="606"/>
      <point x="1127" y="806"/>
      <point x="1127" y="928" type="qcurve" smooth="yes"/>
      <point x="1127" y="1050"/>
      <point x="1008" y="1250"/>
      <point x="808" y="1369"/>
      <point x="686" y="1369" type="qcurve" smooth="yes"/>
      <point x="565" y="1369"/>
      <point x="364" y="1250"/>
      <point x="245" y="1050"/>
      <point x="245" y="928" type="qcurve" smooth="yes"/>
      <point x="245" y="806"/>
      <point x="364" y="606"/>
      <point x="565" y="487"/>
    </contour>
  </outline>
</glyph>
<glyph name="degree" format="2">
  <advance width="933"/>
  <unicode hex="00B0"/>
  <outline>
    <contour>
      <point x="468" y="829" type="qcurve" smooth="yes"/>
      <point x="375" y="829"/>
      <point x="222" y="919"/>
      <point x="130" y="1072"/>
      <point x="130" y="1164" type="qcurve" smooth="yes"/>
      <point x="130" y="1257"/>
      <point x="222" y="1411"/>
      <point x="375" y="1502"/>
      <point x="468" y="1502" type="qcurve" smooth="yes"/>
      <point x="560" y="1502"/>
      <point x="712" y="1411"/>
      <point x="803" y="1257"/>
      <point x="803" y="1164" type="qcurve" smooth="yes"/>
      <point x="803" y="1072"/>
      <point x="712" y="919"/>
      <point x="560" y="829"/>
    </contour>
    <contour>
      <point x="468" y="979" type="qcurve" smooth="yes"/>
      <point x="519" y="979"/>
      <point x="603" y="1029"/>
      <point x="653" y="1113"/>
      <point x="653" y="1164" type="qcurve" smooth="yes"/>
      <point x="653" y="1216"/>
      <point x="603" y="1300"/>
      <point x="519" y="1351"/>
      <point x="468" y="1351" type="qcurve" smooth="yes"/>
      <point x="416" y="1351"/>
      <point x="331" y="1300"/>
      <point x="281" y="1216"/>
      <point x="281" y="1164" type="qcurve" smooth="yes"/>
      <point x="281" y="1113"/>
      <point x="331" y="1029"/>
      <point x="416" y="979"/>
    </contour>
  </outline>
</glyph>
<glyph name="ordmasculine" format="2">
  <advance width="922"/>
  <unicode hex="00BA"/>
  <outline>
    <contour>
      <point x="461" y="690" type="qcurve" smooth="yes"/>
      <point x="356" y="690"/>
      <point x="198" y="787"/>
      <point x="111" y="960"/>
      <point x="111" y="1074" type="qcurve" smooth="yes"/>
      <point x="111" y="1188"/>
      <point x="198" y="1361"/>
      <point x="356" y="1458"/>
      <point x="461" y="1458" type="qcurve" smooth="yes"/>
      <point x="567" y="1458"/>
      <point x="724" y="1361"/>
      <point x="812" y="1188"/>
      <point x="812" y="1074" type="qcurve" smooth="yes"/>
      <point x="812" y="960"/>
      <point x="724" y="787"/>
      <point x="567" y="690"/>
    </contour>
    <contour>
      <point x="461" y="816" type="qcurve" smooth="yes"/>
      <point x="520" y="816"/>
      <point x="604" y="884"/>
      <point x="649" y="1001"/>
      <point x="649" y="1074" type="qcurve" smooth="yes"/>
      <point x="649" y="1149"/>
      <point x="604" y="1266"/>
      <point x="520" y="1334"/>
      <point x="461" y="1334" type="qcurve" smooth="yes"/>
      <point x="402" y="1334"/>
      <point x="317" y="1266"/>
      <point x="272" y="1148"/>
      <point x="272" y="1074" type="qcurve" smooth="yes"/>
      <point x="272" y="1002"/>
      <point x="317" y="885"/>
      <point x="402" y="816"/>
    </contour>
    <contour>
      <point x="804" y="579" type="line"/>
      <point x="804" y="453" type="line"/>
      <point x="118" y="453" type="line"/>
      <point x="118" y="579" type="line"/>
    </contour>
  </outline>
</glyph>
<glyph name="germandbls" format="2">
  <advance width="1262"/>
  <unicode hex="00DF"/>
  <outline>
    <contour>
      <point x="180" y="0" type="line"/>
      <point x="180" y="1107" type="line" smooth="yes"/>
      <point x="180" y="1232"/>
      <point x="291" y="1413"/>
      <point x="488" y="1510"/>
      <point x="616" y="1510" type="qcurve" smooth="yes"/>
      <point x="742" y="1510"/>
      <point x="941" y="1417"/>
      <point x="1057" y="1245"/>
      <point x="1057" y="1125" type="qcurve" smooth="yes"/>
      <point x="1057" y="1001"/>
      <point x="930" y="826"/>
      <point x="823" y="789" type="qcurve"/>
      <point x="823" y="775" type="line"/>
      <point x="968" y="761"/>
      <point x="1146" y="564"/>
      <point x="1146" y="410" type="qcurve" smooth="yes"/>
      <point x="1146" y="292"/>
      <point x="1038" y="106"/>
      <point x="841" y="0"/>
      <point x="709" y="0" type="qcurve" smooth="yes"/>
      <point x="544" y="0" type="line"/>
      <point x="544" y="167" type="line"/>
      <point x="709" y="167" type="line" smooth="yes"/>
      <point x="825" y="167"/>
      <point x="964" y="305"/>
      <point x="964" y="412" type="qcurve" smooth="yes"/>
      <point x="964" y="525"/>
      <point x="810" y="671"/>
      <point x="679" y="671" type="qcurve" smooth="yes"/>
      <point x="550" y="671" type="line"/>
      <point x="550" y="841" type="line"/>
      <point x="641" y="841" type="line" smooth="yes"/>
      <point x="713" y="841"/>
      <point x="818" y="914"/>
      <point x="875" y="1031"/>
      <point x="875" y="1097" type="qcurve" smooth="yes"/>
      <point x="875" y="1200"/>
      <point x="739" y="1343"/>
      <point x="621" y="1343" type="qcurve" smooth="yes"/>
      <point x="509" y="1343"/>
      <point x="362" y="1210"/>
      <point x="362" y="1104" type="qcurve" smooth="yes"/>
      <point x="362" y="0" type="line"/>
    </contour>
  </outline>
</glyph>
<glyph name="Chook" format="2">
  <advance width="1496"/>
  <unicode hex="0187"/>
  <anchor x="813" y="1490" name="m.uni030F_1"/>
  <anchor x="796" y="1" name="m.uni0327_3"/>
  <outline>
    <contour>
      <point x="1210" y="1021" type="line"/>
      <point x="1210" y="1430" type="line" smooth="yes"/>
      <point x="1210" y="1554"/>
      <point x="1358" y="1685"/>
      <point x="1500" y="1685" type="qcurve" smooth="yes"/>
      <point x="1533" y="1685"/>
      <point x="1590" y="1680"/>
      <point x="1605" y="1676" type="qcurve"/>
      <point x="1605" y="1527" type="line"/>
      <point x="1589" y="1529"/>
      <point x="1559" y="1531"/>
      <point x="1546" y="1531" type="qcurve" smooth="yes"/>
      <point x="1462" y="1531"/>
      <point x="1384" y="1482"/>
      <point x="1384" y="1430" type="qcurve" smooth="yes"/>
      <point x="1384" y="1021" type="line"/>
    </contour>
    <contour>
      <point x="783" y="-20" type="qcurve" smooth="yes"/>
      <point x="592" y="-20"/>
      <point x="293" y="165"/>
      <point x="122" y="508"/>
      <point x="122" y="744" type="qcurve" smooth="yes"/>
      <point x="122" y="981"/>
      <point x="293" y="1324"/>
      <point x="592" y="1510"/>
      <point x="783" y="1510" type="qcurve" smooth="yes"/>
      <point x="896" y="1510"/>
      <point x="1097" y="1444"/>
      <point x="1257" y="1317"/>
      <point x="1364" y="1136"/>
      <point x="1384" y="1021" type="qcurve"/>
      <point x="1194" y="1021" type="line"/>
      <point x="1178" y="1098"/>
      <point x="1101" y="1214"/>
      <point x="990" y="1294"/>
      <point x="856" y="1334"/>
      <point x="783" y="1334" type="qcurve" smooth="yes"/>
      <point x="649" y="1334"/>
      <point x="433" y="1198"/>
      <point x="307" y="935"/>
      <point x="307" y="744" type="qcurve" smooth="yes"/>
      <point x="307" y="554"/>
      <point x="434" y="291"/>
      <point x="650" y="156"/>
      <point x="783" y="156" type="qcurve" smooth="yes"/>
      <point x="856" y="156"/>
      <point x="990" y="197"/>
      <point x="1101" y="276"/>
      <point x="1178" y="393"/>
      <point x="1194" y="469" type="qcurve"/>
      <point x="1384" y="469" type="line"/>
      <point x="1365" y="355"/>
      <point x="1258" y="175"/>
      <point x="1098" y="47"/>
      <point x="897" y="-20"/>
    </contour>
  </outline>
</glyph>
<glyph name="hv" format="2">
  <advance width="1949"/>
  <unicode hex="0195"/>
  <outline>
    <contour>
      <point x="1260" y="-20" type="qcurve" smooth="yes"/>
      <point x="1154" y="-20"/>
      <point x="982" y="78"/>
      <point x="882" y="282"/>
      <point x="882" y="441" type="qcurve" smooth="yes"/>
      <point x="882" y="695" type="line" smooth="yes"/>
      <point x="882" y="826"/>
      <point x="746" y="970"/>
      <point x="626" y="970" type="qcurve" smooth="yes"/>
      <point x="543" y="970"/>
      <point x="413" y="900"/>
      <point x="338" y="766"/>
      <point x="338" y="670" type="qcurve" smooth="yes"/>
      <point x="338" y="0" type="line"/>
      <point x="158" y="0" type="line"/>
      <point x="158" y="1490" type="line"/>
      <point x="338" y="1490" type="line"/>
      <point x="338" y="940" type="line"/>
      <point x="353" y="940" type="line"/>
      <point x="393" y="1030"/>
      <point x="552" y="1132"/>
      <point x="682" y="1132" type="qcurve" smooth="yes"/>
      <point x="796" y="1132"/>
      <point x="968" y="1040"/>
      <point x="1064" y="853"/>
      <point x="1064" y="710" type="qcurve" smooth="yes"/>
      <point x="1064" y="441" type="line" smooth="yes"/>
      <point x="1064" y="315"/>
      <point x="1132" y="184"/>
      <point x="1229" y="138"/>
      <point x="1272" y="138" type="qcurve" smooth="yes"/>
      <point x="1362" y="138"/>
      <point x="1515" y="299"/>
      <point x="1608" y="663"/>
      <point x="1608" y="968" type="qcurve" smooth="yes"/>
      <point x="1608" y="1118" type="line"/>
      <point x="1791" y="1118" type="line"/>
      <point x="1791" y="968" type="line" smooth="yes"/>
      <point x="1791" y="620"/>
      <point x="1653" y="184"/>
      <point x="1413" y="-20"/>
    </contour>
  </outline>
</glyph>
<glyph name="lambdastroke" format="2">
  <advance width="1314"/>
  <unicode hex="019B"/>
  <outline>
    <contour>
      <point x="272" y="1081" type="line"/>
      <point x="272" y="1233" type="line"/>
      <point x="774" y="1424" type="line"/>
      <point x="774" y="1269" type="line"/>
    </contour>
    <contour>
      <point x="54" y="0" type="line"/>
      <point x="483" y="1128" type="line"/>
      <point x="460" y="1188" type="line" smooth="yes"/>
      <point x="430" y="1268"/>
      <point x="360" y="1341"/>
      <point x="273" y="1354"/>
      <point x="216" y="1341" type="qcurve" smooth="yes"/>
      <point x="198" y="1337" type="line"/>
      <point x="152" y="1493" type="line"/>
      <point x="169" y="1501"/>
      <point x="243" y="1514"/>
      <point x="284" y="1514" type="qcurve" smooth="yes"/>
      <point x="362" y="1514"/>
      <point x="487" y="1460"/>
      <point x="584" y="1346"/>
      <point x="618" y="1255" type="qcurve" smooth="yes"/>
      <point x="981" y="303" type="line" smooth="yes"/>
      <point x="1011" y="225"/>
      <point x="1081" y="150"/>
      <point x="1169" y="136"/>
      <point x="1225" y="148" type="qcurve" smooth="yes"/>
      <point x="1243" y="152" type="line"/>
      <point x="1289" y="-3" type="line"/>
      <point x="1273" y="-10"/>
      <point x="1202" y="-24"/>
      <point x="1157" y="-24" type="qcurve" smooth="yes"/>
      <point x="1081" y="-24"/>
      <point x="956" y="30"/>
      <point x="859" y="144"/>
      <point x="825" y="235" type="qcurve" smooth="yes"/>
      <point x="665" y="663" type="line" smooth="yes"/>
      <point x="625" y="770"/>
      <point x="572" y="967"/>
      <point x="542" y="1067" type="qcurve"/>
      <point x="608" y="1067" type="line"/>
      <point x="579" y="971"/>
      <point x="527" y="767"/>
      <point x="489" y="663" type="qcurve" smooth="yes"/>
      <point x="251" y="0" type="line"/>
    </contour>
  </outline>
</glyph>
<glyph name="Ohorn" format="2">
  <advance width="1560"/>
  <unicode hex="01A0"/>
  <anchor x="808" y="0" name="m.uni0326"/>
  <anchor x="808" y="1490" name="m.uni030F_1"/>
  <anchor x="1562" y="744" name="m.uni0328_4"/>
  <outline>
    <contour>
      <point x="780" y="1386" type="qcurve"/>
      <point x="780" y="1510" type="line"/>
      <point x="839" y="1510"/>
      <point x="908" y="1504"/>
      <point x="985" y="1496"/>
      <point x="1123" y="1490"/>
      <point x="1250" y="1490" type="qcurve" smooth="yes"/>
      <point x="1268" y="1490"/>
      <point x="1268" y="1508" type="qcurve" smooth="yes"/>
      <point x="1268" y="1698" type="line"/>
      <point x="1438" y="1698" type="line"/>
      <point x="1438" y="1516" type="line" smooth="yes"/>
      <point x="1438" y="1431"/>
      <point x="1354" y="1346"/>
      <point x="1268" y="1346" type="qcurve" smooth="yes"/>
      <point x="1229" y="1346"/>
      <point x="1162" y="1358"/>
      <point x="1066" y="1374"/>
      <point x="909" y="1386"/>
    </contour>
    <contour>
      <point x="784" y="-20" type="qcurve" smooth="yes"/>
      <point x="593" y="-20"/>
      <point x="294" y="165"/>
      <point x="122" y="508"/>
      <point x="122" y="744" type="qcurve" smooth="yes"/>
      <point x="122" y="981"/>
      <point x="294" y="1324"/>
      <point x="593" y="1510"/>
      <point x="784" y="1510" type="qcurve" smooth="yes"/>
      <point x="975" y="1510"/>
      <point x="1273" y="1324"/>
      <point x="1444" y="981"/>
      <point x="1444" y="744" type="qcurve" smooth="yes"/>
      <point x="1444" y="508"/>
      <point x="1273" y="165"/>
      <point x="975" y="-20"/>
    </contour>
    <contour>
      <point x="784" y="156" type="qcurve" smooth="yes"/>
      <point x="917" y="156"/>
      <point x="1132" y="291"/>
      <point x="1259" y="554"/>
      <point x="1259" y="744" type="qcurve" smooth="yes"/>
      <point x="1259" y="936"/>
      <point x="1132" y="1199"/>
      <point x="917" y="1334"/>
      <point x="784" y="1334" type="qcurve" smooth="yes"/>
      <point x="650" y="1334"/>
      <point x="434" y="1198"/>
      <point x="307" y="935"/>
      <point x="307" y="744" type="qcurve" smooth="yes"/>
      <point x="307" y="554"/>
      <point x="434" y="292"/>
      <point x="650" y="156"/>
    </contour>
  </outline>
</glyph>
<glyph name="oi" format="2">
  <advance width="1307"/>
  <unicode hex="01A3"/>
  <outline>
    <contour>
      <point x="558" y="146" type="qcurve" smooth="yes"/>
      <point x="604" y="146"/>
      <point x="672" y="170"/>
      <point x="703" y="190" type="qcurve"/>
      <point x="703" y="550" type="line"/>
      <point x="911" y="550" type="line"/>
      <point x="911" y="141" type="line"/>
      <point x="870" y="92"/>
      <point x="762" y="20"/>
      <point x="629" y="-20"/>
      <point x="549" y="-20" type="qcurve" smooth="yes"/>
      <point x="392" y="-20"/>
      <point x="178" y="130"/>
      <point x="70" y="377"/>
      <point x="70" y="521" type="qcurve" smooth="yes"/>
      <point x="70" y="561" type="line" smooth="yes"/>
      <point x="70" y="721"/>
      <point x="176" y="979"/>
      <point x="393" y="1132"/>
      <point x="558" y="1132" type="qcurve" smooth="yes"/>
      <point x="634" y="1132"/>
      <point x="765" y="1093"/>
      <point x="872" y="1021"/>
      <point x="911" y="971" type="qcurve"/>
      <point x="911" y="514" type="line"/>
      <point x="703" y="516" type="line"/>
      <point x="703" y="919" type="line"/>
      <point x="674" y="941"/>
      <point x="600" y="966"/>
      <point x="552" y="966" type="qcurve" smooth="yes"/>
      <point x="445" y="966"/>
      <point x="326" y="851"/>
      <point x="278" y="667"/>
      <point x="278" y="561" type="qcurve" smooth="yes"/>
      <point x="278" y="521" type="line" smooth="yes"/>
      <point x="278" y="404"/>
      <point x="345" y="236"/>
      <point x="471" y="146"/>
    </contour>
    <contour>
      <point x="1237" y="1118" type="line"/>
      <point x="1237" y="-418" type="line"/>
      <point x="1031" y="-418" type="line"/>
      <point x="1031" y="852" type="line"/>
      <point x="812" y="726" type="line"/>
      <point x="812" y="983" type="line"/>
      <point x="1076" y="1118" type="line"/>
    </contour>
  </outline>
</glyph>
<glyph name="Phook" format="2">
  <advance width="1588"/>
  <unicode hex="01A4"/>
  <anchor x="1412" y="1490" name="m.uni030F_1"/>
  <outline>
    <contour>
      <point x="60" y="1114" type="line"/>
      <point x="60" y="1188" type="line" smooth="yes"/>
      <point x="60" y="1340"/>
      <point x="214" y="1490"/>
      <point x="368" y="1490" type="qcurve" smooth="yes"/>
      <point x="460" y="1490" type="line"/>
      <point x="460" y="1323" type="line"/>
      <point x="369" y="1323" type="line" smooth="yes"/>
      <point x="302" y="1323"/>
      <point x="238" y="1257"/>
      <point x="238" y="1186" type="qcurve" smooth="yes"/>
      <point x="238" y="1114" type="line"/>
    </contour>
    <contour>
      <point x="460" y="0" type="line"/>
      <point x="460" y="1490" type="line"/>
      <point x="970" y="1490" type="line" smooth="yes"/>
      <point x="1144" y="1490"/>
      <point x="1369" y="1363"/>
      <point x="1478" y="1149"/>
      <point x="1478" y="1016" type="qcurve" smooth="yes"/>
      <point x="1478" y="883"/>
      <point x="1369" y="667"/>
      <point x="1145" y="539"/>
      <point x="971" y="539" type="qcurve" smooth="yes"/>
      <point x="610" y="539" type="line"/>
      <point x="610" y="706" type="line"/>
      <point x="962" y="706" type="line" smooth="yes"/>
      <point x="1080" y="706"/>
      <point x="1224" y="787"/>
      <point x="1289" y="928"/>
      <point x="1289" y="1016" type="qcurve" smooth="yes"/>
      <point x="1289" y="1104"/>
      <point x="1224" y="1243"/>
      <point x="1079" y="1323"/>
      <point x="960" y="1323" type="qcurve" smooth="yes"/>
      <point x="650" y="1323" type="line"/>
      <point x="650" y="0" type="line"/>
    </contour>
  </outline>
</glyph>
<glyph name="Thook" format="2">
  <advance width="1383"/>
  <unicode hex="01AC"/>
  <anchor x="1051" y="1490" name="m.uni030F_1"/>
  <outline>
    <contour>
      <point x="120" y="1114" type="line"/>
      <point x="120" y="1188" type="line" smooth="yes"/>
      <point x="120" y="1340"/>
      <point x="274" y="1490"/>
      <point x="428" y="1490" type="qcurve" smooth="yes"/>
      <point x="520" y="1490" type="line"/>
      <point x="520" y="1323" type="line"/>
      <point x="429" y="1323" type="line" smooth="yes"/>
      <point x="362" y="1323"/>
      <point x="298" y="1257"/>
      <point x="298" y="1186" type="qcurve" smooth="yes"/>
      <point x="298" y="1114" type="line"/>
    </contour>
    <contour>
      <point x="520" y="1323" type="line"/>
      <point x="520" y="1490" type="line"/>
      <point x="1285" y="1490" type="line"/>
      <point x="1285" y="1323" type="line"/>
      <point x="818" y="1323" type="line"/>
      <point x="818" y="0" type="line"/>
      <point x="628" y="0" type="line"/>
      <point x="628" y="1323" type="line"/>
    </contour>
  </outline>
</glyph>
<glyph name="wynn" format="2">
  <advance width="1298"/>
  <unicode hex="01BF"/>
  <outline>
    <contour>
      <point x="392" y="910" type="line"/>
      <point x="392" y="-416" type="line"/>
      <point x="184" y="-416" type="line"/>
      <point x="184" y="1118" type="line"/>
      <point x="374" y="1118" type="line"/>
    </contour>
    <contour>
      <point x="341" y="679" type="qcurve"/>
      <point x="243" y="601" type="line"/>
      <point x="255" y="726"/>
      <point x="321" y="922"/>
      <point x="431" y="1060"/>
      <point x="587" y="1132"/>
      <point x="690" y="1132" type="qcurve" smooth="yes"/>
      <point x="828" y="1132"/>
      <point x="1017" y="993"/>
      <point x="1114" y="743"/>
      <point x="1114" y="578" type="qcurve" smooth="yes"/>
      <point x="1114" y="530" type="line" smooth="yes"/>
      <point x="1114" y="374"/>
      <point x="1005" y="149"/>
      <point x="800" y="-12"/>
      <point x="508" y="-130"/>
      <point x="325" y="-181" type="qcurve"/>
      <point x="323" y="-15" type="line"/>
      <point x="491" y="24"/>
      <point x="754" y="157"/>
      <point x="906" y="370"/>
      <point x="906" y="530" type="qcurve" smooth="yes"/>
      <point x="906" y="578" type="line" smooth="yes"/>
      <point x="906" y="681"/>
      <point x="847" y="855"/>
      <point x="724" y="960"/>
      <point x="626" y="960" type="qcurve" smooth="yes"/>
      <point x="540" y="960"/>
      <point x="424" y="882"/>
      <point x="356" y="754"/>
    </contour>
  </outline>
</glyph>
<glyph name="yogh" format="2">
  <advance width="1113"/>
  <unicode hex="021D"/>
  <outline>
    <contour>
      <point x="221" y="206" type="qcurve"/>
      <point x="221" y="359" type="line"/>
      <point x="393" y="401"/>
      <point x="630" y="526"/>
      <point x="753" y="687"/>
      <point x="753" y="782" type="qcurve" smooth="yes"/>
      <point x="753" y="871"/>
      <point x="653" y="967"/>
      <point x="557" y="967" type="qcurve" smooth="yes"/>
      <point x="492" y="967"/>
      <point x="394" y="921"/>
      <point x="340" y="837"/>
      <point x="340" y="779" type="qcurve"/>
      <point x="134" y="779" type="line"/>
      <point x="134" y="887"/>
      <point x="240" y="1045"/>
      <point x="433" y="1132"/>
      <point x="565" y="1132" type="qcurve" smooth="yes"/>
      <point x="748" y="1132"/>
      <point x="961" y="949"/>
      <point x="961" y="793" type="qcurve" smooth="yes"/>
      <point x="961" y="655"/>
      <point x="777" y="420"/>
      <point x="444" y="249"/>
    </contour>
    <contour>
      <point x="644" y="450" type="qcurve"/>
      <point x="751" y="554" type="line"/>
      <point x="864" y="511"/>
      <point x="981" y="321"/>
      <point x="981" y="179" type="qcurve" smooth="yes"/>
      <point x="981" y="-81"/>
      <point x="598" y="-385"/>
      <point x="221" y="-436" type="qcurve"/>
      <point x="221" y="-275" type="line"/>
      <point x="420" y="-229"/>
      <point x="662" y="-105"/>
      <point x="773" y="70"/>
      <point x="773" y="191" type="qcurve" smooth="yes"/>
      <point x="773" y="289"/>
      <point x="704" y="425"/>
    </contour>
  </outline>
</glyph>
<glyph name="zhook" format="2">
  <advance width="1131"/>
  <unicode hex="0225"/>
  <outline>
    <contour>
      <point x="876" y="-235" type="line"/>
      <point x="876" y="-176" type="line" smooth="yes"/>
      <point x="876" y="-105"/>
      <point x="821" y="0"/>
      <point x="734" y="0" type="qcurve" smooth="yes"/>
      <point x="126" y="0" type="line"/>
      <point x="126" y="134" type="line"/>
      <point x="753" y="940" type="line"/>
      <point x="753" y="951" type="line"/>
      <point x="146" y="951" type="line"/>
      <point x="146" y="1118" type="line"/>
      <point x="985" y="1118" type="line"/>
      <point x="985" y="975" type="line"/>
      <point x="376" y="178" type="line"/>
      <point x="376" y="167" type="line"/>
      <point x="738" y="167" type="line" smooth="yes"/>
      <point x="881" y="167"/>
      <point x="1039" y="-6"/>
      <point x="1039" y="-134" type="qcurve" smooth="yes"/>
      <point x="1039" y="-235" type="line"/>
    </contour>
  </outline>
</glyph>
<glyph name="estroke" format="2">
  <advance width="1194"/>
  <unicode hex="0247"/>
  <anchor x="724" y="0" name="m.uni0326"/>
  <anchor x="724" y="1180" name="m.uni030F_1"/>
  <anchor x="729" y="0" name="m.uni0327_3"/>
  <anchor x="1368" y="280" name="m.uni0328_4"/>
  <outline>
    <contour>
      <point x="134" y="-418" type="line"/>
      <point x="898" y="1490" type="line"/>
      <point x="1036" y="1490" type="line"/>
      <point x="274" y="-418" type="line"/>
    </contour>
    <contour>
      <point x="628" y="-24" type="qcurve" smooth="yes"/>
      <point x="466" y="-24"/>
      <point x="231" y="120"/>
      <point x="104" y="378"/>
      <point x="104" y="550" type="qcurve" smooth="yes"/>
      <point x="104" y="722"/>
      <point x="228" y="984"/>
      <point x="455" y="1132"/>
      <point x="607" y="1132" type="qcurve" smooth="yes"/>
      <point x="696" y="1132"/>
      <point x="869" y="1073"/>
      <point x="1010" y="942"/>
      <point x="1094" y="728"/>
      <point x="1094" y="573" type="qcurve" smooth="yes"/>
      <point x="1094" y="498" type="line"/>
      <point x="226" y="498" type="line"/>
      <point x="226" y="650" type="line"/>
      <point x="997" y="650" type="line"/>
      <point x="913" y="594" type="line"/>
      <point x="913" y="704"/>
      <point x="844" y="875"/>
      <point x="708" y="972"/>
      <point x="607" y="972" type="qcurve" smooth="yes"/>
      <point x="506" y="972"/>
      <point x="362" y="873"/>
      <point x="286" y="714"/>
      <point x="286" y="623" type="qcurve" smooth="yes"/>
      <point x="286" y="522" type="line" smooth="yes"/>
      <point x="286" y="398"/>
      <point x="372" y="225"/>
      <point x="527" y="136"/>
      <point x="629" y="136" type="qcurve" smooth="yes"/>
      <point x="695" y="136"/>
      <point x="803" y="174"/>
      <point x="881" y="251"/>
      <point x="902" y="308" type="qcurve"/>
      <point x="1076" y="260" type="line"/>
      <point x="1050" y="176"/>
      <point x="926" y="48"/>
      <point x="743" y="-24"/>
    </contour>
  </outline>
</glyph>
<glyph name="Qsmallhooktail" format="2">
  <advance width="1566"/>
  <unicode hex="024A"/>
  <outline>
    <contour>
      <point x="1386" y="1490" type="line"/>
      <point x="1386" y="0" type="line"/>
      <point x="1206" y="0" type="line"/>
      <point x="1206" y="235" type="line"/>
      <point x="1194" y="235" type="line"/>
      <point x="1137" y="112"/>
      <point x="904" y="-24"/>
      <point x="753" y="-24" type="qcurve" smooth="yes"/>
      <point x="614" y="-24"/>
      <point x="382" y="89"/>
      <point x="214" y="296"/>
      <point x="122" y="580"/>
      <point x="122" y="750" type="qcurve" smooth="yes"/>
      <point x="122" y="916"/>
      <point x="213" y="1194"/>
      <point x="381" y="1398"/>
      <point x="613" y="1510"/>
      <point x="753" y="1510" type="qcurve" smooth="yes"/>
      <point x="906" y="1510"/>
      <point x="1139" y="1377"/>
      <point x="1194" y="1261" type="qcurve"/>
      <point x="1206" y="1261" type="line"/>
      <point x="1206" y="1490" type="line"/>
    </contour>
    <contour>
      <point x="758" y="156" type="qcurve" smooth="yes"/>
      <point x="919" y="156"/>
      <point x="1117" y="313"/>
      <point x="1208" y="582"/>
      <point x="1208" y="748" type="qcurve" smooth="yes"/>
      <point x="1208" y="911"/>
      <point x="1111" y="1179"/>
      <point x="913" y="1338"/>
      <point x="760" y="1338" type="qcurve" smooth="yes"/>
      <point x="624" y="1338"/>
      <point x="422" y="1186"/>
      <point x="311" y="920"/>
      <point x="311" y="748" type="qcurve" smooth="yes"/>
      <point x="311" y="566"/>
      <point x="425" y="300"/>
      <point x="627" y="156"/>
    </contour>
    <contour>
      <point x="1496" y="-427" type="qcurve" smooth="yes"/>
      <point x="1354" y="-427"/>
      <point x="1206" y="-295"/>
      <point x="1206" y="-171" type="qcurve" smooth="yes"/>
      <point x="1206" y="0" type="line"/>
      <point x="1386" y="0" type="line"/>
      <point x="1386" y="-171" type="line" smooth="yes"/>
      <point x="1386" y="-223"/>
      <point x="1459" y="-272"/>
      <point x="1542" y="-272" type="qcurve" smooth="yes"/>
      <point x="1555" y="-272"/>
      <point x="1585" y="-270"/>
      <point x="1601" y="-268" type="qcurve"/>
      <point x="1601" y="-418" type="line"/>
      <point x="1586" y="-422"/>
      <point x="1529" y="-427"/>
    </contour>
  </outline>
</glyph>
<glyph name="qhooktail" format="2">
  <advance width="1254"/>
  <unicode hex="024B"/>
  <anchor x="801" y="0" name="m.uni0326"/>
  <anchor x="791" y="1180" name="m.uni030F_1"/>
  <anchor x="1436" y="0" name="m.uni0328_4"/>
  <outline>
    <contour>
      <point x="1206" y="-427" type="qcurve" smooth="yes"/>
      <point x="1064" y="-427"/>
      <point x="918" y="-295"/>
      <point x="918" y="-171" type="qcurve" smooth="yes"/>
      <point x="918" y="193" type="line"/>
      <point x="1096" y="193" type="line"/>
      <point x="1096" y="-171" type="line" smooth="yes"/>
      <point x="1096" y="-223"/>
      <point x="1168" y="-272"/>
      <point x="1252" y="-272" type="qcurve" smooth="yes"/>
      <point x="1264" y="-272"/>
      <point x="1295" y="-270"/>
      <point x="1310" y="-268" type="qcurve"/>
      <point x="1310" y="-418" type="line"/>
      <point x="1295" y="-422"/>
      <point x="1239" y="-427"/>
    </contour>
    <contour>
      <point x="576" y="-24" type="qcurve" smooth="yes"/>
      <point x="438" y="-24"/>
      <point x="225" y="118"/>
      <point x="104" y="378"/>
      <point x="104" y="556" type="qcurve" smooth="yes"/>
      <point x="104" y="733"/>
      <point x="226" y="992"/>
      <point x="441" y="1132"/>
      <point x="580" y="1132" type="qcurve" smooth="yes"/>
      <point x="688" y="1132"/>
      <point x="816" y="1061"/>
      <point x="884" y="969"/>
      <point x="902" y="939" type="qcurve"/>
      <point x="917" y="939" type="line"/>
      <point x="917" y="1118" type="line"/>
      <point x="1096" y="1118" type="line"/>
      <point x="1096" y="0" type="line"/>
      <point x="918" y="0" type="line"/>
      <point x="918" y="173" type="line"/>
      <point x="902" y="173" type="line"/>
      <point x="884" y="142"/>
      <point x="813" y="48"/>
      <point x="683" y="-24"/>
    </contour>
    <contour>
      <point x="606" y="137" type="qcurve" smooth="yes"/>
      <point x="708" y="137"/>
      <point x="848" y="244"/>
      <point x="920" y="434"/>
      <point x="920" y="558" type="qcurve" smooth="yes"/>
      <point x="920" y="682"/>
      <point x="849" y="867"/>
      <point x="709" y="971"/>
      <point x="606" y="971" type="qcurve" smooth="yes"/>
      <point x="500" y="971"/>
      <point x="358" y="862"/>
      <point x="287" y="675"/>
      <point x="287" y="558" type="qcurve" smooth="yes"/>
      <point x="287" y="441"/>
      <point x="359" y="250"/>
      <point x="501" y="137"/>
    </contour>
  </outline>
</glyph>
<glyph name="dtail" format="2">
  <advance width="1254"/>
  <unicode hex="0256"/>
  <anchor x="498" y="1388" name="m.uni030F_1"/>
  <outline>
    <contour>
      <point x="1198" y="-427" type="qcurve" smooth="yes"/>
      <point x="1056" y="-427"/>
      <point x="910" y="-295"/>
      <point x="910" y="-171" type="qcurve" smooth="yes"/>
      <point x="910" y="193" type="line"/>
      <point x="1088" y="193" type="line"/>
      <point x="1088" y="-171" type="line" smooth="yes"/>
      <point x="1088" y="-223"/>
      <point x="1160" y="-272"/>
      <point x="1244" y="-272" type="qcurve" smooth="yes"/>
      <point x="1256" y="-272"/>
      <point x="1287" y="-270"/>
      <point x="1302" y="-268" type="qcurve"/>
      <point x="1302" y="-418" type="line"/>
      <point x="1287" y="-422"/>
      <point x="1231" y="-427"/>
    </contour>
    <contour>
      <point x="577" y="-24" type="qcurve" smooth="yes"/>
      <point x="438" y="-24"/>
      <point x="224" y="118"/>
      <point x="104" y="378"/>
      <point x="104" y="556" type="qcurve" smooth="yes"/>
      <point x="104" y="733"/>
      <point x="225" y="992"/>
      <point x="439" y="1132"/>
      <point x="578" y="1132" type="qcurve" smooth="yes"/>
      <point x="687" y="1132"/>
      <point x="815" y="1060"/>
      <point x="884" y="969"/>
      <point x="902" y="939" type="qcurve"/>
      <point x="916" y="939" type="line"/>
      <point x="916" y="1490" type="line"/>
      <point x="1096" y="1490" type="line"/>
      <point x="1096" y="0" type="line"/>
      <point x="922" y="0" type="line"/>
      <point x="922" y="173" type="line"/>
      <point x="902" y="173" type="line"/>
      <point x="884" y="142"/>
      <point x="813" y="49"/>
      <point x="684" y="-24"/>
    </contour>
    <contour>
      <point x="604" y="137" type="qcurve" smooth="yes"/>
      <point x="706" y="137"/>
      <point x="846" y="244"/>
      <point x="918" y="434"/>
      <point x="918" y="558" type="qcurve" smooth="yes"/>
      <point x="918" y="682"/>
      <point x="847" y="867"/>
      <point x="707" y="971"/>
      <point x="604" y="971" type="qcurve" smooth="yes"/>
      <point x="498" y="971"/>
      <point x="357" y="861"/>
      <point x="287" y="674"/>
      <point x="287" y="558" type="qcurve" smooth="yes"/>
      <point x="287" y="441"/>
      <point x="358" y="250"/>
      <point x="500" y="137"/>
    </contour>
  </outline>
</glyph>
<glyph name="rfishhookreversed" format="2">
  <advance width="704"/>
  <unicode hex="027F"/>
  <outline>
    <contour>
      <point x="546" y="0" type="line"/>
      <point x="366" y="0" type="line"/>
      <point x="366" y="745" type="line" smooth="yes"/>
      <point x="366" y="833"/>
      <point x="307" y="924"/>
      <point x="209" y="958"/>
      <point x="150" y="958" type="qcurve" smooth="yes"/>
      <point x="113" y="958"/>
      <point x="62" y="956"/>
      <point x="46" y="954" type="qcurve"/>
      <point x="46" y="1123" type="line"/>
      <point x="53" y="1124"/>
      <point x="85" y="1127"/>
      <point x="134" y="1129"/>
      <point x="165" y="1129" type="qcurve" smooth="yes"/>
      <point x="258" y="1129"/>
      <point x="433" y="1059"/>
      <point x="546" y="892"/>
      <point x="546" y="748" type="qcurve" smooth="yes"/>
    </contour>
  </outline>
</glyph>
<glyph name="vscript" format="2">
  <advance width="1116"/>
  <unicode hex="028B"/>
  <outline>
    <contour>
      <point x="557" y="152" type="qcurve"/>
      <point x="557" y="-20" type="line"/>
      <point x="434" y="-20"/>
      <point x="244" y="74"/>
      <point x="136" y="277"/>
      <point x="136" y="441" type="qcurve" smooth="yes"/>
      <point x="136" y="1118" type="line"/>
      <point x="342" y="1118" type="line"/>
      <point x="342" y="441" type="line" smooth="yes"/>
      <point x="342" y="326"/>
      <point x="399" y="200"/>
      <point x="496" y="152"/>
    </contour>
    <contour>
      <point x="557" y="-20" type="qcurve"/>
      <point x="557" y="152" type="line"/>
      <point x="620" y="152"/>
      <point x="717" y="200"/>
      <point x="772" y="326"/>
      <point x="772" y="441" type="qcurve" smooth="yes"/>
      <point x="772" y="820" type="line" smooth="yes"/>
      <point x="772" y="888"/>
      <point x="728" y="947"/>
      <point x="684" y="947" type="qcurve" smooth="yes"/>
      <point x="656" y="947"/>
      <point x="602" y="937"/>
      <point x="566" y="929" type="qcurve"/>
      <point x="541" y="1088" type="line"/>
      <point x="589" y="1103"/>
      <point x="711" y="1132"/>
      <point x="770" y="1132" type="qcurve" smooth="yes"/>
      <point x="868" y="1132"/>
      <point x="957" y="1040"/>
      <point x="982" y="898"/>
      <point x="982" y="822" type="qcurve" smooth="yes"/>
      <point x="982" y="441" type="line" smooth="yes"/>
      <point x="982" y="277"/>
      <point x="874" y="74"/>
      <point x="683" y="-20"/>
    </contour>
  </outline>
</glyph>
<glyph name="glottalstop" format="2">
  <advance width="1111"/>
  <unicode hex="0294"/>
  <outline>
    <contour>
      <point x="412" y="551" type="line"/>
      <point x="529" y="551" type="line" smooth="yes"/>
      <point x="639" y="551"/>
      <point x="762" y="663"/>
      <point x="811" y="834"/>
      <point x="811" y="924" type="qcurve" smooth="yes"/>
      <point x="811" y="971" type="line" smooth="yes"/>
      <point x="811" y="1061"/>
      <point x="763" y="1233"/>
      <point x="641" y="1344"/>
      <point x="529" y="1344" type="qcurve" smooth="yes"/>
      <point x="435" y="1344"/>
      <point x="298" y="1232"/>
      <point x="289" y="1147" type="qcurve"/>
      <point x="94" y="1147" type="line"/>
      <point x="99" y="1244"/>
      <point x="220" y="1409"/>
      <point x="414" y="1510"/>
      <point x="528" y="1510" type="qcurve" smooth="yes"/>
      <point x="695" y="1510"/>
      <point x="911" y="1361"/>
      <point x="1017" y="1116"/>
      <point x="1017" y="971" type="qcurve" smooth="yes"/>
      <point x="1017" y="924" type="line" smooth="yes"/>
      <point x="1017" y="779"/>
      <point x="911" y="534"/>
      <point x="695" y="385"/>
      <point x="529" y="385" type="qcurve" smooth="yes"/>
      <point x="412" y="385" type="line"/>
    </contour>
    <contour>
      <point x="629" y="551" type="line"/>
      <point x="629" y="0" type="line"/>
      <point x="411" y="0" type="line"/>
      <point x="411" y="551" type="line"/>
    </contour>
  </outline>
</glyph>
<glyph name="dzed" format="2">
  <advance width="2229"/>
  <unicode hex="02A3"/>
  <anchor x="498" y="1388" name="m.uni030F_1"/>
  <outline>
    <contour>
      <point x="1229" y="0" type="line"/>
      <point x="1229" y="130" type="line"/>
      <point x="1863" y="946" type="line"/>
      <point x="1863" y="958" type="line"/>
      <point x="1013" y="958" type="line"/>
      <point x="1013" y="1118" type="line"/>
      <point x="2083" y="1118" type="line"/>
      <point x="2083" y="980" type="line"/>
      <point x="1467" y="172" type="line"/>
      <point x="1467" y="160" type="line"/>
      <point x="2103" y="160" type="line"/>
      <point x="2103" y="0" type="line"/>
    </contour>
    <contour>
      <point x="577" y="-24" type="qcurve" smooth="yes"/>
      <point x="438" y="-24"/>
      <point x="224" y="118"/>
      <point x="104" y="378"/>
      <point x="104" y="556" type="qcurve" smooth="yes"/>
      <point x="104" y="733"/>
      <point x="225" y="992"/>
      <point x="439" y="1132"/>
      <point x="578" y="1132" type="qcurve" smooth="yes"/>
      <point x="687" y="1132"/>
      <point x="815" y="1060"/>
      <point x="884" y="969"/>
      <point x="902" y="939" type="qcurve"/>
      <point x="916" y="939" type="line"/>
      <point x="916" y="1490" type="line"/>
      <point x="1096" y="1490" type="line"/>
      <point x="1096" y="0" type="line"/>
      <point x="922" y="0" type="line"/>
      <point x="922" y="173" type="line"/>
      <point x="902" y="173" type="line"/>
      <point x="884" y="142"/>
      <point x="813" y="49"/>
      <point x="684" y="-24"/>
    </contour>
    <contour>
      <point x="604" y="137" type="qcurve" smooth="yes"/>
      <point x="706" y="137"/>
      <point x="846" y="244"/>
      <point x="918" y="434"/>
      <point x="918" y="558" type="qcurve" smooth="yes"/>
      <point x="918" y="682"/>
      <point x="847" y="867"/>
      <point x="707" y="971"/>
      <point x="604" y="971" type="qcurve" smooth="yes"/>
      <point x="498" y="971"/>
      <point x="357" y="861"/>
      <point x="287" y="674"/>
      <point x="287" y="558" type="qcurve" smooth="yes"/>
      <point x="287" y="441"/>
      <point x="358" y="250"/>
      <point x="500" y="137"/>
    </contour>
  </outline>
</glyph>
<glyph name="finaltsadi-hb" format="2">
  <advance width="741"/>
  <unicode hex="02B5"/>
  <outline>
    <contour>
      <point x="98" y="646" type="qcurve"/>
      <point x="98" y="835" type="line"/>
      <point x="121" y="825"/>
      <point x="172" y="812"/>
      <point x="200" y="812" type="qcurve" smooth="yes"/>
      <point x="282" y="812"/>
      <point x="354" y="934"/>
      <point x="355" y="1025" type="qcurve"/>
      <point x="403" y="1025" type="line"/>
      <point x="403" y="913"/>
      <point x="342" y="738"/>
      <point x="237" y="638"/>
      <point x="167" y="638" type="qcurve" smooth="yes"/>
      <point x="145" y="638"/>
      <point x="106" y="642"/>
    </contour>
    <contour>
      <point x="645" y="346" type="line"/>
      <point x="619" y="341"/>
      <point x="569" y="333"/>
      <point x="519" y="329"/>
      <point x="493" y="329" type="qcurve" smooth="yes"/>
      <point x="429" y="329"/>
      <point x="358" y="387"/>
      <point x="329" y="493"/>
      <point x="329" y="566" type="qcurve" smooth="yes"/>
      <point x="329" y="1452" type="line"/>
      <point x="516" y="1452" type="line"/>
      <point x="516" y="579" type="line" smooth="yes"/>
      <point x="516" y="539"/>
      <point x="549" y="508"/>
      <point x="571" y="508" type="qcurve" smooth="yes"/>
      <point x="591" y="508"/>
      <point x="634" y="516"/>
      <point x="645" y="520" type="qcurve"/>
    </contour>
  </outline>
</glyph>
<glyph name="Rsupinvertedmod" format="2">
  <advance width="923"/>
  <unicode hex="02B6"/>
  <outline>
    <contour>
      <point x="610" y="1106" type="line"/>
      <point x="397" y="1106" type="line"/>
      <point x="610" y="1452" type="line"/>
      <point x="823" y="1452" type="line"/>
    </contour>
    <contour>
      <point x="457" y="652" type="qcurve" smooth="yes"/>
      <point x="98" y="652" type="line"/>
      <point x="98" y="1452" type="line"/>
      <point x="285" y="1452" type="line"/>
      <point x="285" y="809" type="line"/>
      <point x="426" y="809" type="line" smooth="yes"/>
      <point x="509" y="809"/>
      <point x="584" y="873"/>
      <point x="584" y="921" type="qcurve" smooth="yes"/>
      <point x="584" y="966"/>
      <point x="517" y="1030"/>
      <point x="443" y="1030" type="qcurve" smooth="yes"/>
      <point x="244" y="1030" type="line"/>
      <point x="244" y="1185" type="line"/>
      <point x="472" y="1184" type="line"/>
      <point x="567" y="1184"/>
      <point x="700" y="1109"/>
      <point x="770" y="988"/>
      <point x="770" y="917" type="qcurve" smooth="yes"/>
      <point x="770" y="847"/>
      <point x="696" y="726"/>
      <point x="556" y="652"/>
    </contour>
  </outline>
</glyph>
<glyph name="ysupmod" format="2">
  <advance width="781"/>
  <unicode hex="02B8"/>
  <outline>
    <contour>
      <point x="194" y="454" type="qcurve" smooth="yes"/>
      <point x="154" y="454"/>
      <point x="103" y="467"/>
      <point x="83" y="474" type="qcurve"/>
      <point x="118" y="600" type="line"/>
      <point x="177" y="581"/>
      <point x="259" y="607"/>
      <point x="282" y="668" type="qcurve" smooth="yes"/>
      <point x="305" y="728" type="line"/>
      <point x="38" y="1490" type="line"/>
      <point x="205" y="1490" type="line"/>
      <point x="386" y="903" type="line"/>
      <point x="393" y="903" type="line"/>
      <point x="574" y="1490" type="line"/>
      <point x="743" y="1490" type="line"/>
      <point x="446" y="642" type="line" smooth="yes"/>
      <point x="417" y="559"/>
      <point x="295" y="454"/>
    </contour>
  </outline>
</glyph>
<glyph name="tildelowmod" format="2">
  <advance width="925"/>
  <unicode hex="02F7"/>
  <outline>
    <contour>
      <point x="688" y="-164" type="qcurve"/>
      <point x="823" y="-176" type="line"/>
      <point x="823" y="-251"/>
      <point x="764" y="-362"/>
      <point x="665" y="-423"/>
      <point x="604" y="-423" type="qcurve" smooth="yes"/>
      <point x="553" y="-423"/>
      <point x="485" y="-396"/>
      <point x="432" y="-359"/>
      <point x="375" y="-332"/>
      <point x="334" y="-332" type="qcurve" smooth="yes"/>
      <point x="293" y="-332"/>
      <point x="239" y="-395"/>
      <point x="239" y="-440" type="qcurve"/>
      <point x="102" y="-434" type="line"/>
      <point x="102" y="-359"/>
      <point x="160" y="-245"/>
      <point x="261" y="-181"/>
      <point x="323" y="-181" type="qcurve" smooth="yes"/>
      <point x="365" y="-181"/>
      <point x="430" y="-208"/>
      <point x="488" y="-245"/>
      <point x="551" y="-272"/>
      <point x="590" y="-272" type="qcurve" smooth="yes"/>
      <point x="631" y="-272"/>
      <point x="689" y="-210"/>
    </contour>
  </outline>
</glyph>
<glyph name="brevecomb" format="2">
  <unicode hex="0306"/>
  <anchor x="549" y="1180" name="_m.uni030F_1"/>
  <anchor x="549" y="1180" name="_t.uni030F"/>
  <anchor x="549" y="1667" name="t.uni030F"/>
  <outline>
    <contour>
      <point x="389" y="1275" type="qcurve" smooth="yes"/>
      <point x="308" y="1275"/>
      <point x="177" y="1350"/>
      <point x="99" y="1479"/>
      <point x="99" y="1558" type="qcurve"/>
      <point x="231" y="1558" type="line"/>
      <point x="231" y="1490"/>
      <point x="320" y="1403"/>
      <point x="389" y="1403" type="qcurve" smooth="yes"/>
      <point x="458" y="1403"/>
      <point x="547" y="1490"/>
      <point x="547" y="1558" type="qcurve"/>
      <point x="679" y="1558" type="line"/>
      <point x="679" y="1479"/>
      <point x="602" y="1351"/>
      <point x="471" y="1275"/>
    </contour>
  </outline>
</glyph>
<glyph name="ringcomb" format="2">
  <unicode hex="030A"/>
  <anchor x="593" y="1180" name="_m.uni030F_1"/>
  <anchor x="593" y="1180" name="_t.uni030F"/>
  <outline>
    <contour>
      <point x="305" y="1189" type="qcurve" smooth="yes"/>
      <point x="233" y="1189"/>
      <point x="113" y="1257"/>
      <point x="42" y="1371"/>
      <point x="42" y="1441" type="qcurve" smooth="yes"/>
      <point x="42" y="1511"/>
      <point x="113" y="1624"/>
      <point x="233" y="1692"/>
      <point x="305" y="1692" type="qcurve" smooth="yes"/>
      <point x="378" y="1692"/>
      <point x="497" y="1624"/>
      <point x="568" y="1511"/>
      <point x="568" y="1441" type="qcurve" smooth="yes"/>
      <point x="568" y="1371"/>
      <point x="497" y="1257"/>
      <point x="378" y="1189"/>
    </contour>
    <contour>
      <point x="305" y="1315" type="qcurve" smooth="yes"/>
      <point x="358" y="1315"/>
      <point x="431" y="1389"/>
      <point x="431" y="1441" type="qcurve" smooth="yes"/>
      <point x="431" y="1493"/>
      <point x="358" y="1566"/>
      <point x="305" y="1566" type="qcurve" smooth="yes"/>
      <point x="253" y="1566"/>
      <point x="180" y="1493"/>
      <point x="180" y="1441" type="qcurve" smooth="yes"/>
      <point x="180" y="1389"/>
      <point x="253" y="1315"/>
    </contour>
  </outline>
</glyph>
<glyph name="ogonekcomb" format="2">
  <unicode hex="0328"/>
  <anchor x="732" y="0" name="_m.uni0328_4"/>
  <outline>
    <contour>
      <point x="329" y="-436" type="qcurve" smooth="yes"/>
      <point x="232" y="-436"/>
      <point x="94" y="-336"/>
      <point x="94" y="-242" type="qcurve" smooth="yes"/>
      <point x="94" y="-171"/>
      <point x="183" y="-39"/>
      <point x="265" y="16" type="qcurve"/>
      <point x="443" y="0" type="line"/>
      <point x="377" y="-46"/>
      <point x="275" y="-143"/>
      <point x="275" y="-206" type="qcurve" smooth="yes"/>
      <point x="275" y="-243"/>
      <point x="316" y="-285"/>
      <point x="358" y="-285" type="qcurve" smooth="yes"/>
      <point x="386" y="-285"/>
      <point x="432" y="-268"/>
      <point x="451" y="-257" type="qcurve"/>
      <point x="510" y="-386" type="line"/>
      <point x="480" y="-403"/>
      <point x="391" y="-436"/>
    </contour>
  </outline>
</glyph>
<glyph name="homotheticabovecomb" format="2">
  <unicode hex="034B"/>
  <outline>
    <contour>
      <point x="-408" y="1641" type="qcurve"/>
      <point x="-271" y="1627" type="line"/>
      <point x="-271" y="1553"/>
      <point x="-331" y="1440"/>
      <point x="-432" y="1377"/>
      <point x="-494" y="1377" type="qcurve" smooth="yes"/>
      <point x="-544" y="1377"/>
      <point x="-610" y="1405"/>
      <point x="-663" y="1443"/>
      <point x="-720" y="1471"/>
      <point x="-760" y="1471" type="qcurve" smooth="yes"/>
      <point x="-800" y="1471"/>
      <point x="-859" y="1407"/>
      <point x="-859" y="1360" type="qcurve"/>
      <point x="-992" y="1370" type="line"/>
      <point x="-992" y="1445"/>
      <point x="-933" y="1559"/>
      <point x="-834" y="1624"/>
      <point x="-773" y="1624" type="qcurve" smooth="yes"/>
      <point x="-731" y="1624"/>
      <point x="-666" y="1596"/>
      <point x="-607" y="1560"/>
      <point x="-543" y="1532"/>
      <point x="-504" y="1532" type="qcurve" smooth="yes"/>
      <point x="-463" y="1532"/>
      <point x="-408" y="1595"/>
    </contour>
    <contour>
      <point x="-750" y="1758" type="qcurve" smooth="yes"/>
      <point x="-750" y="1803"/>
      <point x="-689" y="1871"/>
      <point x="-631" y="1871" type="qcurve" smooth="yes"/>
      <point x="-573" y="1871"/>
      <point x="-511" y="1805"/>
      <point x="-511" y="1758" type="qcurve" smooth="yes"/>
      <point x="-511" y="1711"/>
      <point x="-573" y="1648"/>
      <point x="-631" y="1648" type="qcurve" smooth="yes"/>
      <point x="-688" y="1648"/>
      <point x="-750" y="1711"/>
    </contour>
    <contour>
      <point x="-750" y="1250" type="qcurve" smooth="yes"/>
      <point x="-750" y="1294"/>
      <point x="-689" y="1363"/>
      <point x="-631" y="1363" type="qcurve" smooth="yes"/>
      <point x="-574" y="1363"/>
      <point x="-511" y="1297"/>
      <point x="-511" y="1250" type="qcurve" smooth="yes"/>
      <point x="-511" y="1203"/>
      <point x="-573" y="1140"/>
      <point x="-631" y="1140" type="qcurve" smooth="yes"/>
      <point x="-688" y="1140"/>
      <point x="-750" y="1203"/>
    </contour>
  </outline>
</glyph>
<glyph name="almostequaltoabovecomb" format="2">
  <unicode hex="034C"/>
  <outline>
    <contour>
      <point x="-344" y="1456" type="qcurve"/>
      <point x="-207" y="1448" type="line"/>
      <point x="-207" y="1391"/>
      <point x="-267" y="1306"/>
      <point x="-368" y="1259"/>
      <point x="-430" y="1259" type="qcurve" smooth="yes"/>
      <point x="-496" y="1259"/>
      <point x="-574" y="1294"/>
      <point x="-642" y="1329"/>
      <point x="-696" y="1329" type="qcurve" smooth="yes"/>
      <point x="-736" y="1329"/>
      <point x="-795" y="1281"/>
      <point x="-795" y="1246" type="qcurve"/>
      <point x="-928" y="1254" type="line"/>
      <point x="-928" y="1308"/>
      <point x="-869" y="1394"/>
      <point x="-770" y="1443"/>
      <point x="-709" y="1443" type="qcurve" smooth="yes"/>
      <point x="-653" y="1443"/>
      <point x="-573" y="1410"/>
      <point x="-493" y="1376"/>
      <point x="-440" y="1376" type="qcurve" smooth="yes"/>
      <point x="-400" y="1376"/>
      <point x="-344" y="1422"/>
    </contour>
    <contour>
      <point x="-344" y="1669" type="qcurve"/>
      <point x="-207" y="1658" type="line"/>
      <point x="-207" y="1603"/>
      <point x="-267" y="1519"/>
      <point x="-368" y="1472"/>
      <point x="-430" y="1472" type="qcurve" smooth="yes"/>
      <point x="-496" y="1472"/>
      <point x="-574" y="1506"/>
      <point x="-642" y="1539"/>
      <point x="-696" y="1539" type="qcurve" smooth="yes"/>
      <point x="-735" y="1539"/>
      <point x="-795" y="1493"/>
      <point x="-795" y="1457" type="qcurve"/>
      <point x="-928" y="1463" type="line"/>
      <point x="-928" y="1519"/>
      <point x="-869" y="1606"/>
      <point x="-770" y="1656"/>
      <point x="-709" y="1656" type="qcurve" smooth="yes"/>
      <point x="-653" y="1656"/>
      <point x="-573" y="1621"/>
      <point x="-493" y="1586"/>
      <point x="-440" y="1586" type="qcurve" smooth="yes"/>
      <point x="-399" y="1586"/>
      <point x="-344" y="1634"/>
    </contour>
  </outline>
</glyph>
<glyph name="doublemacroncomb" format="2">
  <unicode hex="035E"/>
  <anchor x="-612" y="1304" name="_m.uni030F_1"/>
  <anchor x="-612" y="1304" name="_t.uni030F"/>
  <outline>
    <contour>
      <point x="1" y="1490" type="line"/>
      <point x="1" y="1337" type="line"/>
      <point x="-1184" y="1337" type="line"/>
      <point x="-1184" y="1490" type="line"/>
    </contour>
  </outline>
</glyph>
<glyph name="Lambda" format="2">
  <advance width="1413"/>
  <unicode hex="039B"/>
  <anchor x="955" y="0" name="m.uni0326"/>
  <anchor x="955" y="1490" name="m.uni030F_1"/>
  <outline>
    <contour>
      <point x="52" y="0" type="line"/>
      <point x="593" y="1490" type="line"/>
      <point x="813" y="1490" type="line"/>
      <point x="1361" y="0" type="line"/>
      <point x="1161" y="0" type="line"/>
      <point x="845" y="884" type="line" smooth="yes"/>
      <point x="816" y="966"/>
      <point x="739" y="1211"/>
      <point x="684" y="1401" type="qcurve"/>
      <point x="720" y="1401" type="line"/>
      <point x="666" y="1209"/>
      <point x="587" y="960"/>
      <point x="561" y="884" type="qcurve" smooth="yes"/>
      <point x="254" y="0" type="line"/>
    </contour>
  </outline>
</glyph>
<glyph name="Phi" format="2">
  <advance width="1803"/>
  <unicode hex="03A6"/>
  <outline>
    <contour>
      <point x="834" y="61" type="line" smooth="yes"/>
      <point x="626" y="61"/>
      <point x="305" y="236"/>
      <point x="122" y="544"/>
      <point x="122" y="745" type="qcurve" smooth="yes"/>
      <point x="122" y="946"/>
      <point x="305" y="1255"/>
      <point x="626" y="1429"/>
      <point x="834" y="1429" type="qcurve" smooth="yes"/>
      <point x="969" y="1429" type="line" smooth="yes"/>
      <point x="1177" y="1429"/>
      <point x="1498" y="1255"/>
      <point x="1681" y="946"/>
      <point x="1681" y="745" type="qcurve" smooth="yes"/>
      <point x="1681" y="544"/>
      <point x="1498" y="236"/>
      <point x="1177" y="61"/>
      <point x="969" y="61" type="qcurve" smooth="yes"/>
    </contour>
    <contour>
      <point x="834" y="226" type="qcurve" smooth="yes"/>
      <point x="969" y="226" type="line" smooth="yes"/>
      <point x="1130" y="226"/>
      <point x="1364" y="354"/>
      <point x="1491" y="588"/>
      <point x="1491" y="745" type="qcurve" smooth="yes"/>
      <point x="1491" y="903"/>
      <point x="1364" y="1136"/>
      <point x="1130" y="1264"/>
      <point x="969" y="1264" type="qcurve" smooth="yes"/>
      <point x="834" y="1264" type="line" smooth="yes"/>
      <point x="674" y="1264"/>
      <point x="439" y="1136"/>
      <point x="312" y="903"/>
      <point x="312" y="745" type="qcurve" smooth="yes"/>
      <point x="312" y="588"/>
      <point x="439" y="354"/>
      <point x="674" y="226"/>
    </contour>
    <contour>
      <point x="810" y="-65" type="line"/>
      <point x="810" y="1555" type="line"/>
      <point x="993" y="1555" type="line"/>
      <point x="993" y="-65" type="line"/>
    </contour>
  </outline>
</glyph>
<glyph name="xi" format="2">
  <advance width="1144"/>
  <unicode hex="03BE"/>
  <outline>
    <contour>
      <point x="838" y="-287" type="line"/>
      <point x="838" y="-94" type="line" smooth="yes"/>
      <point x="838" y="-58"/>
      <point x="817" y="-17"/>
      <point x="767" y="0"/>
      <point x="723" y="0" type="qcurve" smooth="yes"/>
      <point x="614" y="0" type="line" smooth="yes"/>
      <point x="382" y="0"/>
      <point x="116" y="211"/>
      <point x="116" y="395" type="qcurve" smooth="yes"/>
      <point x="116" y="496"/>
      <point x="190" y="634"/>
      <point x="312" y="720"/>
      <point x="459" y="766"/>
      <point x="609" y="783"/>
      <point x="672" y="783" type="qcurve"/>
      <point x="672" y="762" type="line"/>
      <point x="594" y="762"/>
      <point x="426" y="781"/>
      <point x="280" y="839"/>
      <point x="190" y="955"/>
      <point x="190" y="1052" type="qcurve" smooth="yes"/>
      <point x="190" y="1164"/>
      <point x="308" y="1293"/>
      <point x="490" y="1353"/>
      <point x="585" y="1359" type="qcurve"/>
      <point x="585" y="1354" type="line"/>
      <point x="182" y="1337" type="line"/>
      <point x="182" y="1490" type="line"/>
      <point x="978" y="1490" type="line"/>
      <point x="978" y="1346" type="line"/>
      <point x="842" y="1338" type="line" smooth="yes"/>
      <point x="612" y="1325"/>
      <point x="371" y="1203"/>
      <point x="371" y="1073" type="qcurve" smooth="yes"/>
      <point x="371" y="967"/>
      <point x="530" y="843"/>
      <point x="680" y="843" type="qcurve" smooth="yes"/>
      <point x="908" y="843" type="line"/>
      <point x="908" y="683" type="line"/>
      <point x="660" y="683" type="line" smooth="yes"/>
      <point x="485" y="683"/>
      <point x="297" y="543"/>
      <point x="297" y="414" type="qcurve" smooth="yes"/>
      <point x="297" y="291"/>
      <point x="472" y="157"/>
      <point x="635" y="157" type="qcurve" smooth="yes"/>
      <point x="725" y="157" type="line" smooth="yes"/>
      <point x="868" y="157"/>
      <point x="1010" y="38"/>
      <point x="1010" y="-91" type="qcurve" smooth="yes"/>
      <point x="1010" y="-287" type="line"/>
    </contour>
  </outline>
</glyph>
<glyph name="rho" format="2">
  <advance width="1254"/>
  <unicode hex="03C1"/>
  <anchor x="783" y="1180" name="m.uni030F_1"/>
  <outline>
    <contour>
      <point x="158" y="-418" type="line"/>
      <point x="158" y="558" type="line" smooth="yes"/>
      <point x="158" y="734"/>
      <point x="281" y="992"/>
      <point x="503" y="1132"/>
      <point x="654" y="1132" type="qcurve" smooth="yes"/>
      <point x="805" y="1132"/>
      <point x="1027" y="993"/>
      <point x="1150" y="735"/>
      <point x="1150" y="558" type="qcurve" smooth="yes"/>
      <point x="1150" y="382"/>
      <point x="1030" y="120"/>
      <point x="817" y="-24"/>
      <point x="678" y="-24" type="qcurve" smooth="yes"/>
      <point x="571" y="-24"/>
      <point x="441" y="49"/>
      <point x="371" y="142"/>
      <point x="352" y="173" type="qcurve"/>
      <point x="338" y="173" type="line"/>
      <point x="338" y="-418" type="line"/>
    </contour>
    <contour>
      <point x="650" y="137" type="qcurve" smooth="yes"/>
      <point x="755" y="137"/>
      <point x="896" y="249"/>
      <point x="967" y="440"/>
      <point x="967" y="559" type="qcurve" smooth="yes"/>
      <point x="967" y="674"/>
      <point x="899" y="861"/>
      <point x="760" y="971"/>
      <point x="653" y="971" type="qcurve" smooth="yes"/>
      <point x="551" y="971"/>
      <point x="409" y="868"/>
      <point x="336" y="683"/>
      <point x="336" y="559" type="qcurve" smooth="yes"/>
      <point x="336" y="436"/>
      <point x="408" y="245"/>
      <point x="549" y="137"/>
    </contour>
  </outline>
</glyph>
<glyph name="sigma" format="2">
  <advance width="1278"/>
  <unicode hex="03C3"/>
  <outline>
    <contour>
      <point x="613" y="-24" type="qcurve" smooth="yes"/>
      <point x="461" y="-24"/>
      <point x="231" y="121"/>
      <point x="104" y="380"/>
      <point x="104" y="552" type="qcurve" smooth="yes"/>
      <point x="104" y="724"/>
      <point x="232" y="978"/>
      <point x="461" y="1118"/>
      <point x="613" y="1118" type="qcurve" smooth="yes"/>
      <point x="1237" y="1118" type="line"/>
      <point x="1237" y="965" type="line"/>
      <point x="747" y="965" type="line"/>
      <point x="613" y="957" type="line"/>
      <point x="501" y="957"/>
      <point x="357" y="847"/>
      <point x="287" y="663"/>
      <point x="287" y="552" type="qcurve" smooth="yes"/>
      <point x="287" y="442"/>
      <point x="357" y="252"/>
      <point x="501" y="137"/>
      <point x="613" y="137" type="qcurve" smooth="yes"/>
      <point x="726" y="137"/>
      <point x="872" y="253"/>
      <point x="942" y="442"/>
      <point x="942" y="552" type="qcurve" smooth="yes"/>
      <point x="942" y="663"/>
      <point x="872" y="847"/>
      <point x="726" y="957"/>
      <point x="613" y="957" type="qcurve"/>
      <point x="613" y="1002" type="line"/>
      <point x="727" y="1002"/>
      <point x="915" y="943"/>
      <point x="1050" y="825"/>
      <point x="1124" y="646"/>
      <point x="1124" y="526" type="qcurve" smooth="yes"/>
      <point x="1124" y="367"/>
      <point x="996" y="118"/>
      <point x="766" y="-24"/>
    </contour>
  </outline>
</glyph>
<glyph name="chi" format="2">
  <advance width="1165"/>
  <unicode hex="03C7"/>
  <outline>
    <contour>
      <point x="73" y="-418" type="line"/>
      <point x="539" y="462" type="line"/>
      <point x="622" y="462" type="line"/>
      <point x="931" y="-147" type="line" smooth="yes"/>
      <point x="956" y="-196"/>
      <point x="994" y="-241"/>
      <point x="1049" y="-252"/>
      <point x="1097" y="-252" type="qcurve" smooth="yes"/>
      <point x="1141" y="-252" type="line"/>
      <point x="1141" y="-418" type="line"/>
      <point x="1097" y="-418" type="line" smooth="yes"/>
      <point x="1013" y="-418"/>
      <point x="903" y="-388"/>
      <point x="823" y="-305"/>
      <point x="782" y="-224" type="qcurve" smooth="yes"/>
      <point x="579" y="181" type="line"/>
      <point x="265" y="-418" type="line"/>
    </contour>
    <contour>
      <point x="515" y="297" type="line"/>
      <point x="230" y="843" type="line" smooth="yes"/>
      <point x="200" y="901"/>
      <point x="163" y="950"/>
      <point x="114" y="962"/>
      <point x="64" y="962" type="qcurve" smooth="yes"/>
      <point x="20" y="962" type="line"/>
      <point x="20" y="1128" type="line"/>
      <point x="64" y="1128" type="line" smooth="yes"/>
      <point x="149" y="1128"/>
      <point x="256" y="1095"/>
      <point x="336" y="1005"/>
      <point x="380" y="920" type="qcurve" smooth="yes"/>
      <point x="583" y="528" type="line"/>
      <point x="898" y="1118" type="line"/>
      <point x="1090" y="1118" type="line"/>
      <point x="647" y="297" type="line"/>
    </contour>
  </outline>
</glyph>
<glyph name="omega" format="2">
  <advance width="1648"/>
  <unicode hex="03C9"/>
  <anchor x="991" y="0" name="m.uni0326"/>
  <anchor x="991" y="1180" name="m.uni030F_1"/>
  <outline>
    <contour>
      <point x="516" y="-16" type="qcurve" smooth="yes"/>
      <point x="397" y="-16"/>
      <point x="211" y="100"/>
      <point x="104" y="329"/>
      <point x="104" y="500" type="qcurve" smooth="yes"/>
      <point x="104" y="651"/>
      <point x="180" y="892"/>
      <point x="292" y="1068"/>
      <point x="345" y="1118" type="qcurve"/>
      <point x="547" y="1118" type="line"/>
      <point x="484" y="1049"/>
      <point x="364" y="871"/>
      <point x="286" y="644"/>
      <point x="286" y="500" type="qcurve" smooth="yes"/>
      <point x="286" y="329"/>
      <point x="409" y="144"/>
      <point x="521" y="144" type="qcurve" smooth="yes"/>
      <point x="628" y="144"/>
      <point x="738" y="315"/>
      <point x="738" y="478" type="qcurve" smooth="yes"/>
      <point x="738" y="722" type="line"/>
      <point x="913" y="722" type="line"/>
      <point x="913" y="478" type="line" smooth="yes"/>
      <point x="913" y="315"/>
      <point x="1013" y="144"/>
      <point x="1122" y="144" type="qcurve" smooth="yes"/>
      <point x="1238" y="144"/>
      <point x="1362" y="329"/>
      <point x="1362" y="500" type="qcurve" smooth="yes"/>
      <point x="1362" y="648"/>
      <point x="1281" y="879"/>
      <point x="1161" y="1054"/>
      <point x="1101" y="1118" type="qcurve"/>
      <point x="1303" y="1118" type="line"/>
      <point x="1354" y="1070"/>
      <point x="1466" y="898"/>
      <point x="1544" y="655"/>
      <point x="1544" y="500" type="qcurve" smooth="yes"/>
      <point x="1544" y="328"/>
      <point x="1437" y="99"/>
      <point x="1249" y="-16"/>
      <point x="1128" y="-16" type="qcurve" smooth="yes"/>
      <point x="1029" y="-16"/>
      <point x="899" y="56"/>
      <point x="823" y="181"/>
      <point x="804" y="261" type="qcurve"/>
      <point x="838" y="261" type="line"/>
      <point x="820" y="177"/>
      <point x="740" y="53"/>
      <point x="610" y="-16"/>
    </contour>
  </outline>
</glyph>
<glyph name="theta.math" format="2">
  <advance width="1300"/>
  <unicode hex="03D1"/>
  <outline>
    <contour>
      <point x="1159" y="780" type="qcurve"/>
      <point x="1168" y="616" type="line"/>
      <point x="1134" y="603"/>
      <point x="1062" y="587"/>
      <point x="991" y="579"/>
      <point x="957" y="579" type="qcurve" smooth="yes"/>
      <point x="774" y="579"/>
      <point x="497" y="722"/>
      <point x="342" y="974"/>
      <point x="342" y="1138" type="qcurve" smooth="yes"/>
      <point x="342" y="1155" type="line" smooth="yes"/>
      <point x="342" y="1268"/>
      <point x="431" y="1426"/>
      <point x="588" y="1510"/>
      <point x="690" y="1510" type="qcurve" smooth="yes"/>
      <point x="845" y="1510"/>
      <point x="1031" y="1315"/>
      <point x="1031" y="1136" type="qcurve" smooth="yes"/>
      <point x="1031" y="438" type="line" smooth="yes"/>
      <point x="1031" y="292"/>
      <point x="920" y="87"/>
      <point x="723" y="-20"/>
      <point x="592" y="-20" type="qcurve" smooth="yes"/>
      <point x="454" y="-20"/>
      <point x="248" y="94"/>
      <point x="134" y="300"/>
      <point x="134" y="438" type="qcurve" smooth="yes"/>
      <point x="134" y="764" type="line"/>
      <point x="339" y="764" type="line"/>
      <point x="339" y="438" type="line" smooth="yes"/>
      <point x="339" y="305"/>
      <point x="473" y="152"/>
      <point x="591" y="152" type="qcurve" smooth="yes"/>
      <point x="698" y="152"/>
      <point x="824" y="295"/>
      <point x="824" y="438" type="qcurve" smooth="yes"/>
      <point x="824" y="1138" type="line" smooth="yes"/>
      <point x="824" y="1242"/>
      <point x="752" y="1334"/>
      <point x="684" y="1334" type="qcurve" smooth="yes"/>
      <point x="624" y="1334"/>
      <point x="550" y="1255"/>
      <point x="550" y="1157" type="qcurve" smooth="yes"/>
      <point x="550" y="1136" type="line" smooth="yes"/>
      <point x="550" y="1027"/>
      <point x="645" y="854"/>
      <point x="827" y="753"/>
      <point x="957" y="753" type="qcurve" smooth="yes"/>
      <point x="981" y="753"/>
      <point x="1031" y="757"/>
      <point x="1081" y="764"/>
      <point x="1133" y="774"/>
    </contour>
  </outline>
</glyph>
<glyph name="epsilonlunatesymbol" format="2">
  <advance width="922"/>
  <unicode hex="03F5"/>
  <outline>
    <contour>
      <point x="552" y="165" type="qcurve" smooth="yes"/>
      <point x="858" y="165" type="line"/>
      <point x="858" y="-1" type="line"/>
      <point x="552" y="-1" type="line" smooth="yes"/>
      <point x="386" y="-1"/>
      <point x="170" y="144"/>
      <point x="64" y="390"/>
      <point x="64" y="542" type="qcurve" smooth="yes"/>
      <point x="64" y="581" type="line" smooth="yes"/>
      <point x="64" y="733"/>
      <point x="170" y="976"/>
      <point x="387" y="1118"/>
      <point x="552" y="1118" type="qcurve" smooth="yes"/>
      <point x="858" y="1118" type="line"/>
      <point x="858" y="952" type="line"/>
      <point x="552" y="952" type="line" smooth="yes"/>
      <point x="443" y="952"/>
      <point x="321" y="849"/>
      <point x="272" y="680"/>
      <point x="272" y="581" type="qcurve" smooth="yes"/>
      <point x="272" y="542" type="line" smooth="yes"/>
      <point x="272" y="445"/>
      <point x="319" y="272"/>
      <point x="440" y="165"/>
    </contour>
    <contour>
      <point x="666" y="639" type="line"/>
      <point x="666" y="475" type="line"/>
      <point x="121" y="475" type="line"/>
      <point x="121" y="639" type="line"/>
    </contour>
  </outline>
</glyph>
<glyph name="Ljecyr" format="2">
  <advance width="2280"/>
  <unicode hex="0409"/>
  <outline>
    <contour>
      <point x="98" y="0" type="line"/>
      <point x="98" y="160" type="line"/>
      <point x="138" y="160" type="line" smooth="yes"/>
      <point x="209" y="160"/>
      <point x="294" y="216"/>
      <point x="341" y="369"/>
      <point x="353" y="516" type="qcurve" smooth="yes"/>
      <point x="433" y="1490" type="line"/>
      <point x="1166" y="1490" type="line"/>
      <point x="1166" y="1330" type="line"/>
      <point x="597" y="1330" type="line"/>
      <point x="530" y="507" type="line" smooth="yes"/>
      <point x="520" y="378"/>
      <point x="475" y="188"/>
      <point x="392" y="62"/>
      <point x="256" y="0"/>
      <point x="154" y="0" type="qcurve" smooth="yes"/>
    </contour>
    <contour>
      <point x="1269" y="902" type="line"/>
      <point x="1674" y="902" type="line" smooth="yes"/>
      <point x="1828" y="902"/>
      <point x="2053" y="794"/>
      <point x="2176" y="595"/>
      <point x="2176" y="459" type="qcurve" smooth="yes"/>
      <point x="2176" y="318"/>
      <point x="2054" y="112"/>
      <point x="1829" y="0"/>
      <point x="1674" y="0" type="qcurve" smooth="yes"/>
      <point x="1130" y="0" type="line"/>
      <point x="1130" y="1490" type="line"/>
      <point x="1320" y="1490" type="line"/>
      <point x="1320" y="165" type="line"/>
      <point x="1674" y="165" type="line" smooth="yes"/>
      <point x="1819" y="165"/>
      <point x="1988" y="325"/>
      <point x="1988" y="461" type="qcurve" smooth="yes"/>
      <point x="1988" y="546"/>
      <point x="1911" y="668"/>
      <point x="1771" y="735"/>
      <point x="1674" y="735" type="qcurve" smooth="yes"/>
      <point x="1269" y="735" type="line"/>
    </contour>
  </outline>
</glyph>
<glyph name="Gecyr" format="2">
  <advance width="1185"/>
  <unicode hex="0413"/>
  <anchor x="696" y="1490" name="m.uni030F_1"/>
  <outline>
    <contour>
      <point x="1087" y="1490" type="line"/>
      <point x="1087" y="1323" type="line"/>
      <point x="370" y="1323" type="line"/>
      <point x="370" y="0" type="line"/>
      <point x="180" y="0" type="line"/>
      <point x="180" y="1490" type="line"/>
    </contour>
  </outline>
</glyph>
<glyph name="Hardcyr" format="2">
  <advance width="1672"/>
  <unicode hex="042A"/>
  <outline>
    <contour>
      <point x="98" y="1330" type="line"/>
      <point x="98" y="1490" type="line"/>
      <point x="554" y="1490" type="line"/>
      <point x="554" y="1330" type="line"/>
    </contour>
    <contour>
      <point x="661" y="902" type="line"/>
      <point x="1066" y="902" type="line" smooth="yes"/>
      <point x="1220" y="902"/>
      <point x="1445" y="794"/>
      <point x="1568" y="595"/>
      <point x="1568" y="459" type="qcurve" smooth="yes"/>
      <point x="1568" y="318"/>
      <point x="1446" y="112"/>
      <point x="1221" y="0"/>
      <point x="1066" y="0" type="qcurve" smooth="yes"/>
      <point x="522" y="0" type="line"/>
      <point x="522" y="1490" type="line"/>
      <point x="712" y="1490" type="line"/>
      <point x="712" y="165" type="line"/>
      <point x="1066" y="165" type="line" smooth="yes"/>
      <point x="1211" y="165"/>
      <point x="1380" y="325"/>
      <point x="1380" y="461" type="qcurve" smooth="yes"/>
      <point x="1380" y="546"/>
      <point x="1303" y="668"/>
      <point x="1163" y="735"/>
      <point x="1066" y="735" type="qcurve" smooth="yes"/>
      <point x="661" y="735" type="line"/>
    </contour>
  </outline>
</glyph>
<glyph name="Yucyr" format="2">
  <advance width="2078"/>
  <unicode hex="042E"/>
  <anchor x="1162" y="1540" name="m.uni030F_1"/>
  <outline>
    <contour>
      <point x="686" y="832" type="line"/>
      <point x="686" y="672" type="line"/>
      <point x="270" y="672" type="line"/>
      <point x="270" y="832" type="line"/>
    </contour>
    <contour>
      <point x="370" y="1490" type="line"/>
      <point x="370" y="0" type="line"/>
      <point x="180" y="0" type="line"/>
      <point x="180" y="1490" type="line"/>
    </contour>
    <contour>
      <point x="1296" y="-20" type="qcurve" smooth="yes"/>
      <point x="1105" y="-20"/>
      <point x="806" y="165"/>
      <point x="634" y="508"/>
      <point x="634" y="744" type="qcurve" smooth="yes"/>
      <point x="634" y="981"/>
      <point x="806" y="1324"/>
      <point x="1105" y="1510"/>
      <point x="1296" y="1510" type="qcurve" smooth="yes"/>
      <point x="1487" y="1510"/>
      <point x="1785" y="1324"/>
      <point x="1956" y="981"/>
      <point x="1956" y="744" type="qcurve" smooth="yes"/>
      <point x="1956" y="508"/>
      <point x="1785" y="165"/>
      <point x="1487" y="-20"/>
    </contour>
    <contour>
      <point x="1296" y="156" type="qcurve" smooth="yes"/>
      <point x="1429" y="156"/>
      <point x="1644" y="291"/>
      <point x="1771" y="554"/>
      <point x="1771" y="744" type="qcurve" smooth="yes"/>
      <point x="1771" y="936"/>
      <point x="1644" y="1199"/>
      <point x="1429" y="1334"/>
      <point x="1296" y="1334" type="qcurve" smooth="yes"/>
      <point x="1162" y="1334"/>
      <point x="946" y="1198"/>
      <point x="819" y="935"/>
      <point x="819" y="744" type="qcurve" smooth="yes"/>
      <point x="819" y="554"/>
      <point x="946" y="292"/>
      <point x="1162" y="156"/>
    </contour>
  </outline>
</glyph>
<glyph name="decyr" format="2">
  <advance width="1286"/>
  <unicode hex="0434"/>
  <outline>
    <contour>
      <point x="38" y="-321" type="line"/>
      <point x="38" y="166" type="line"/>
      <point x="130" y="166" type="line"/>
      <point x="164" y="201"/>
      <point x="214" y="284"/>
      <point x="250" y="400"/>
      <point x="276" y="565"/>
      <point x="286" y="680" type="qcurve" smooth="yes"/>
      <point x="323" y="1118" type="line"/>
      <point x="1044" y="1118" type="line"/>
      <point x="1044" y="166" type="line"/>
      <point x="1214" y="166" type="line"/>
      <point x="1214" y="-321" type="line"/>
      <point x="1035" y="-321" type="line"/>
      <point x="1035" y="0" type="line"/>
      <point x="218" y="0" type="line"/>
      <point x="218" y="-321" type="line"/>
    </contour>
    <contour>
      <point x="334" y="166" type="qcurve"/>
      <point x="865" y="166" type="line"/>
      <point x="865" y="952" type="line"/>
      <point x="486" y="952" type="line"/>
      <point x="462" y="680" type="line" smooth="yes"/>
      <point x="446" y="502"/>
      <point x="391" y="243"/>
    </contour>
  </outline>
</glyph>
<glyph name="zecyr" format="2">
  <advance width="1048"/>
  <unicode hex="0437"/>
  <anchor x="675" y="1180" name="m.uni030F_1"/>
  <anchor x="675" y="0" name="m.uni0327_3"/>
  <outline>
    <contour>
      <point x="524" y="-13" type="qcurve" smooth="yes"/>
      <point x="413" y="-13"/>
      <point x="228" y="58"/>
      <point x="117" y="188"/>
      <point x="114" y="275" type="qcurve"/>
      <point x="298" y="275" type="line"/>
      <point x="302" y="218"/>
      <point x="435" y="140"/>
      <point x="524" y="140" type="qcurve" smooth="yes"/>
      <point x="624" y="140"/>
      <point x="750" y="243"/>
      <point x="750" y="320" type="qcurve" smooth="yes"/>
      <point x="750" y="402"/>
      <point x="615" y="504"/>
      <point x="499" y="504" type="qcurve" smooth="yes"/>
      <point x="426" y="504" type="line"/>
      <point x="426" y="638" type="line"/>
      <point x="499" y="638" type="line" smooth="yes"/>
      <point x="594" y="638"/>
      <point x="720" y="734"/>
      <point x="720" y="813" type="qcurve" smooth="yes"/>
      <point x="720" y="888"/>
      <point x="615" y="983"/>
      <point x="529" y="983" type="qcurve" smooth="yes"/>
      <point x="445" y="983"/>
      <point x="315" y="899"/>
      <point x="313" y="830" type="qcurve"/>
      <point x="139" y="830" type="line"/>
      <point x="141" y="920"/>
      <point x="248" y="1055"/>
      <point x="425" y="1130"/>
      <point x="531" y="1130" type="qcurve" smooth="yes"/>
      <point x="643" y="1130"/>
      <point x="807" y="1046"/>
      <point x="896" y="906"/>
      <point x="896" y="821" type="qcurve" smooth="yes"/>
      <point x="896" y="721"/>
      <point x="772" y="597"/>
      <point x="682" y="580" type="qcurve"/>
      <point x="682" y="572" type="line"/>
      <point x="810" y="552"/>
      <point x="940" y="412"/>
      <point x="940" y="308" type="qcurve" smooth="yes"/>
      <point x="940" y="215"/>
      <point x="833" y="70"/>
      <point x="645" y="-13"/>
    </contour>
  </outline>
</glyph>
<glyph name="tecyr" format="2">
  <advance width="954"/>
  <unicode hex="0442"/>
  <anchor x="663" y="1180" name="m.uni030F_1"/>
  <outline>
    <contour>
      <point x="388" y="0" type="line"/>
      <point x="388" y="957" type="line"/>
      <point x="20" y="957" type="line"/>
      <point x="20" y="1118" type="line"/>
      <point x="934" y="1118" type="line"/>
      <point x="934" y="957" type="line"/>
      <point x="568" y="957" type="line"/>
      <point x="568" y="0" type="line"/>
    </contour>
  </outline>
</glyph>
<glyph name="eukrcyr" format="2">
  <advance width="1158"/>
  <unicode hex="0454"/>
  <anchor x="741" y="1180" name="m.uni030F_1"/>
  <outline>
    <contour>
      <point x="613" y="-24" type="qcurve" smooth="yes"/>
      <point x="456" y="-24"/>
      <point x="227" y="125"/>
      <point x="104" y="385"/>
      <point x="104" y="552" type="qcurve" smooth="yes"/>
      <point x="104" y="723"/>
      <point x="230" y="985"/>
      <point x="459" y="1132"/>
      <point x="611" y="1132" type="qcurve" smooth="yes"/>
      <point x="731" y="1132"/>
      <point x="922" y="1044"/>
      <point x="1044" y="884"/>
      <point x="1058" y="776" type="qcurve"/>
      <point x="877" y="776" type="line"/>
      <point x="865" y="827"/>
      <point x="798" y="916"/>
      <point x="689" y="971"/>
      <point x="613" y="971" type="qcurve" smooth="yes"/>
      <point x="516" y="971"/>
      <point x="369" y="869"/>
      <point x="287" y="683"/>
      <point x="287" y="558" type="qcurve" smooth="yes"/>
      <point x="287" y="431"/>
      <point x="368" y="242"/>
      <point x="514" y="137"/>
      <point x="613" y="137" type="qcurve" smooth="yes"/>
      <point x="714" y="137"/>
      <point x="855" y="241"/>
      <point x="877" y="332" type="qcurve"/>
      <point x="1058" y="332" type="line"/>
      <point x="1044" y="230"/>
      <point x="928" y="69"/>
      <point x="739" y="-24"/>
    </contour>
    <contour>
      <point x="259" y="481" type="line"/>
      <point x="259" y="643" type="line"/>
      <point x="776" y="643" type="line"/>
      <point x="776" y="481" type="line"/>
    </contour>
  </outline>
</glyph>
<glyph name="Yusbigiotifiedcyr" format="2">
  <advance width="2345"/>
  <unicode hex="046C"/>
  <outline>
    <contour>
      <point x="757" y="0" type="line"/>
      <point x="757" y="366" type="line" smooth="yes"/>
      <point x="757" y="510"/>
      <point x="865" y="711"/>
      <point x="1076" y="816"/>
      <point x="1228" y="816" type="qcurve" smooth="yes"/>
      <point x="1717" y="816" type="line" smooth="yes"/>
      <point x="1870" y="816"/>
      <point x="2079" y="711"/>
      <point x="2187" y="510"/>
      <point x="2187" y="366" type="qcurve" smooth="yes"/>
      <point x="2187" y="0" type="line"/>
      <point x="1998" y="0" type="line"/>
      <point x="1998" y="368" type="line" smooth="yes"/>
      <point x="1998" y="504"/>
      <point x="1851" y="650"/>
      <point x="1716" y="650" type="qcurve" smooth="yes"/>
      <point x="1228" y="650" type="line" smooth="yes"/>
      <point x="1093" y="650"/>
      <point x="947" y="504"/>
      <point x="947" y="368" type="qcurve" smooth="yes"/>
      <point x="947" y="0" type="line"/>
    </contour>
    <contour>
      <point x="180" y="0" type="line"/>
      <point x="180" y="1490" type="line"/>
      <point x="370" y="1490" type="line"/>
      <point x="370" y="0" type="line"/>
    </contour>
    <contour>
      <point x="325" y="650" type="line"/>
      <point x="325" y="816" type="line"/>
      <point x="1270" y="816" type="line"/>
      <point x="1270" y="650" type="line"/>
    </contour>
    <contour>
      <point x="1378" y="0" type="line"/>
      <point x="1378" y="779" type="line"/>
      <point x="1566" y="779" type="line"/>
      <point x="1566" y="0" type="line"/>
    </contour>
    <contour>
      <point x="1399" y="621" type="line"/>
      <point x="864" y="1490" type="line"/>
      <point x="1086" y="1490" type="line"/>
      <point x="1535" y="697" type="line"/>
      <point x="1507" y="621" type="line"/>
    </contour>
    <contour>
      <point x="1437" y="621" type="line"/>
      <point x="1416" y="705" type="line"/>
      <point x="1864" y="1490" type="line"/>
      <point x="2080" y="1490" type="line"/>
      <point x="1546" y="621" type="line"/>
    </contour>
    <contour>
      <point x="1006" y="1326" type="line"/>
      <point x="1006" y="1490" type="line"/>
      <point x="1924" y="1490" type="line"/>
      <point x="1924" y="1326" type="line"/>
    </contour>
  </outline>
</glyph>
<glyph name="izhitsacyr" format="2">
  <advance width="1214"/>
  <unicode hex="0475"/>
  <anchor x="733" y="1180" name="m.uni030F_1"/>
  <outline>
    <contour>
      <point x="464" y="0" type="line"/>
      <point x="54" y="1118" type="line"/>
      <point x="251" y="1118" type="line"/>
      <point x="553" y="233" type="line"/>
      <point x="565" y="233" type="line"/>
      <point x="797" y="912" type="line" smooth="yes"/>
      <point x="834" y="1019"/>
      <point x="978" y="1118"/>
      <point x="1085" y="1118" type="qcurve" smooth="yes"/>
      <point x="1160" y="1118" type="line"/>
      <point x="1160" y="959" type="line"/>
      <point x="1088" y="959" type="line" smooth="yes"/>
      <point x="1007" y="959"/>
      <point x="978" y="882" type="qcurve" smooth="yes"/>
      <point x="653" y="0" type="line"/>
    </contour>
  </outline>
</glyph>
<glyph name="hundredthousandscombcyr" format="2">
  <unicode hex="0488"/>
  <outline>
    <contour>
      <point x="-650" y="1268" type="qcurve"/>
      <point x="-764" y="1268" type="line"/>
      <point x="-763" y="1349"/>
      <point x="-649" y="1454"/>
      <point x="-550" y="1454" type="qcurve" smooth="yes"/>
      <point x="-455" y="1454"/>
      <point x="-341" y="1349"/>
      <point x="-341" y="1268" type="qcurve"/>
      <point x="-452" y="1268" type="line"/>
      <point x="-452" y="1308"/>
      <point x="-498" y="1368"/>
      <point x="-550" y="1368" type="qcurve" smooth="yes"/>
      <point x="-605" y="1368"/>
      <point x="-650" y="1306"/>
    </contour>
    <contour>
      <point x="-55" y="990" type="qcurve"/>
      <point x="-169" y="990" type="line"/>
      <point x="-169" y="1073"/>
      <point x="-56" y="1178"/>
      <point x="41" y="1178" type="qcurve" smooth="yes"/>
      <point x="139" y="1178"/>
      <point x="254" y="1073"/>
      <point x="254" y="990" type="qcurve"/>
      <point x="140" y="990" type="line"/>
      <point x="141" y="1031"/>
      <point x="96" y="1090"/>
      <point x="41" y="1090" type="qcurve" smooth="yes"/>
      <point x="-11" y="1090"/>
      <point x="-55" y="1030"/>
    </contour>
    <contour>
      <point x="132" y="488" type="qcurve"/>
      <point x="17" y="488" type="line"/>
      <point x="18" y="568"/>
      <point x="131" y="674"/>
      <point x="228" y="674" type="qcurve" smooth="yes"/>
      <point x="326" y="674"/>
      <point x="440" y="569"/>
      <point x="440" y="488" type="qcurve"/>
      <point x="326" y="488" type="line"/>
      <point x="327" y="528"/>
      <point x="283" y="588"/>
      <point x="228" y="588" type="qcurve" smooth="yes"/>
      <point x="178" y="588"/>
      <point x="132" y="528"/>
    </contour>
    <contour>
      <point x="-67" y="-32" type="qcurve"/>
      <point x="-181" y="-32" type="line"/>
      <point x="-180" y="49"/>
      <point x="-66" y="158"/>
      <point x="33" y="158" type="qcurve" smooth="yes"/>
      <point x="128" y="158"/>
      <point x="242" y="51"/>
      <point x="242" y="-32" type="qcurve"/>
      <point x="132" y="-32" type="line"/>
      <point x="132" y="7"/>
      <point x="86" y="70"/>
      <point x="33" y="70" type="qcurve" smooth="yes"/>
      <point x="-20" y="70"/>
      <point x="-67" y="7"/>
    </contour>
    <contour>
      <point x="-644" y="-318" type="qcurve"/>
      <point x="-758" y="-318" type="line"/>
      <point x="-757" y="-235"/>
      <point x="-644" y="-128"/>
      <point x="-548" y="-128" type="qcurve" smooth="yes"/>
      <point x="-450" y="-128"/>
      <point x="-335" y="-235"/>
      <point x="-335" y="-318" type="qcurve"/>
      <point x="-448" y="-318" type="line"/>
      <point x="-449" y="-278"/>
      <point x="-493" y="-216"/>
      <point x="-548" y="-216" type="qcurve" smooth="yes"/>
      <point x="-600" y="-216"/>
      <point x="-644" y="-280"/>
    </contour>
    <contour>
      <point x="-1221" y="990" type="qcurve"/>
      <point x="-1337" y="990" type="line"/>
      <point x="-1337" y="1073"/>
      <point x="-1223" y="1178"/>
      <point x="-1125" y="1178" type="qcurve" smooth="yes"/>
      <point x="-1027" y="1178"/>
      <point x="-913" y="1073"/>
      <point x="-913" y="990" type="qcurve"/>
      <point x="-1025" y="990" type="line"/>
      <point x="-1026" y="1031"/>
      <point x="-1071" y="1090"/>
      <point x="-1125" y="1090" type="qcurve" smooth="yes"/>
      <point x="-1177" y="1090"/>
      <point x="-1221" y="1031"/>
    </contour>
    <contour>
      <point x="-1400" y="488" type="qcurve"/>
      <point x="-1512" y="488" type="line"/>
      <point x="-1513" y="569"/>
      <point x="-1399" y="674"/>
      <point x="-1303" y="674" type="qcurve" smooth="yes"/>
      <point x="-1204" y="674"/>
      <point x="-1089" y="569"/>
      <point x="-1089" y="488" type="qcurve"/>
      <point x="-1203" y="488" type="line"/>
      <point x="-1203" y="529"/>
      <point x="-1249" y="588"/>
      <point x="-1303" y="588" type="qcurve" smooth="yes"/>
      <point x="-1355" y="588"/>
      <point x="-1399" y="526"/>
    </contour>
    <contour>
      <point x="-1233" y="-32" type="qcurve"/>
      <point x="-1346" y="-32" type="line"/>
      <point x="-1347" y="49"/>
      <point x="-1233" y="158"/>
      <point x="-1137" y="158" type="qcurve" smooth="yes"/>
      <point x="-1040" y="158"/>
      <point x="-925" y="51"/>
      <point x="-925" y="-32" type="qcurve"/>
      <point x="-1037" y="-32" type="line"/>
      <point x="-1038" y="7"/>
      <point x="-1082" y="70"/>
      <point x="-1137" y="70" type="qcurve" smooth="yes"/>
      <point x="-1189" y="70"/>
      <point x="-1232" y="5"/>
    </contour>
  </outline>
</glyph>
<glyph name="semisoftcyr" format="2">
  <advance width="1260"/>
  <unicode hex="048D"/>
  <outline>
    <contour>
      <point x="20" y="972" type="line"/>
      <point x="20" y="1118" type="line"/>
      <point x="795" y="1118" type="line"/>
      <point x="795" y="972" type="line"/>
    </contour>
    <contour>
      <point x="274" y="1118" type="line"/>
      <point x="274" y="1384" type="line"/>
      <point x="444" y="1384" type="line"/>
      <point x="444" y="1118" type="line"/>
    </contour>
    <contour>
      <point x="426" y="717" type="line"/>
      <point x="747" y="717" type="line" smooth="yes"/>
      <point x="879" y="717"/>
      <point x="1062" y="625"/>
      <point x="1156" y="465"/>
      <point x="1156" y="362" type="qcurve" smooth="yes"/>
      <point x="1156" y="261"/>
      <point x="1061" y="97"/>
      <point x="879" y="0"/>
      <point x="747" y="0" type="qcurve" smooth="yes"/>
      <point x="274" y="0" type="line"/>
      <point x="274" y="1118" type="line"/>
      <point x="454" y="1118" type="line"/>
      <point x="454" y="166" type="line"/>
      <point x="747" y="166" type="line" smooth="yes"/>
      <point x="846" y="166"/>
      <point x="974" y="271"/>
      <point x="974" y="354" type="qcurve" smooth="yes"/>
      <point x="974" y="441"/>
      <point x="846" y="550"/>
      <point x="747" y="550" type="qcurve" smooth="yes"/>
      <point x="426" y="550" type="line"/>
    </contour>
  </outline>
</glyph>
<glyph name="Schwacyr" format="2">
  <advance width="1527"/>
  <unicode hex="04D8"/>
  <anchor x="764" y="0" name="m.uni0326"/>
  <anchor x="764" y="1490" name="m.uni030F_1"/>
  <outline>
    <contour>
      <point x="738" y="-20" type="qcurve" smooth="yes"/>
      <point x="546" y="-20"/>
      <point x="273" y="155"/>
      <point x="128" y="464"/>
      <point x="128" y="666" type="qcurve" smooth="yes"/>
      <point x="128" y="829" type="line"/>
      <point x="1262" y="829" type="line"/>
      <point x="1262" y="663" type="line"/>
      <point x="257" y="663" type="line"/>
      <point x="313" y="674" type="line"/>
      <point x="313" y="525"/>
      <point x="408" y="290"/>
      <point x="598" y="156"/>
      <point x="738" y="156" type="qcurve" smooth="yes"/>
      <point x="876" y="156"/>
      <point x="1094" y="292"/>
      <point x="1221" y="554"/>
      <point x="1221" y="744" type="qcurve" smooth="yes"/>
      <point x="1221" y="935"/>
      <point x="1095" y="1198"/>
      <point x="881" y="1334"/>
      <point x="750" y="1334" type="qcurve" smooth="yes"/>
      <point x="671" y="1334"/>
      <point x="538" y="1291"/>
      <point x="433" y="1209"/>
      <point x="357" y="1095"/>
      <point x="334" y="1023" type="qcurve"/>
      <point x="138" y="1023" type="line"/>
      <point x="158" y="1131"/>
      <point x="265" y="1310"/>
      <point x="426" y="1439"/>
      <point x="632" y="1510"/>
      <point x="750" y="1510" type="qcurve" smooth="yes"/>
      <point x="941" y="1510"/>
      <point x="1237" y="1324"/>
      <point x="1405" y="981"/>
      <point x="1405" y="744" type="qcurve" smooth="yes"/>
      <point x="1405" y="567"/>
      <point x="1309" y="285"/>
      <point x="1132" y="86"/>
      <point x="887" y="-20"/>
    </contour>
  </outline>
</glyph>
<glyph name="acutedottedcomb" format="2">
  <unicode hex="1DC1"/>
  <outline>
    <contour>
      <point x="-464" y="1288" type="qcurve" smooth="yes"/>
      <point x="-464" y="1336"/>
      <point x="-400" y="1403"/>
      <point x="-342" y="1403" type="qcurve" smooth="yes"/>
      <point x="-284" y="1403"/>
      <point x="-222" y="1336"/>
      <point x="-222" y="1288" type="qcurve" smooth="yes"/>
      <point x="-222" y="1245"/>
      <point x="-284" y="1180"/>
      <point x="-342" y="1180" type="qcurve" smooth="yes"/>
      <point x="-400" y="1180"/>
      <point x="-464" y="1245"/>
    </contour>
    <contour>
      <point x="-802" y="1239" type="line"/>
      <point x="-607" y="1536" type="line"/>
      <point x="-359" y="1536" type="line"/>
      <point x="-635" y="1239" type="line"/>
    </contour>
    <contour>
      <point x="-1050" y="1388" type="qcurve" smooth="yes"/>
      <point x="-1050" y="1435"/>
      <point x="-990" y="1501"/>
      <point x="-932" y="1501" type="qcurve" smooth="yes"/>
      <point x="-874" y="1501"/>
      <point x="-812" y="1438"/>
      <point x="-812" y="1388" type="qcurve" smooth="yes"/>
      <point x="-812" y="1342"/>
      <point x="-874" y="1278"/>
      <point x="-932" y="1278" type="qcurve" smooth="yes"/>
      <point x="-990" y="1278"/>
      <point x="-1050" y="1343"/>
    </contour>
  </outline>
</glyph>
<glyph name="usabovecomb" format="2">
  <unicode hex="1DD2"/>
  <outline>
    <contour>
      <point x="-619" y="1426" type="qcurve" smooth="yes"/>
      <point x="-680" y="1426"/>
      <point x="-792" y="1473"/>
      <point x="-864" y="1574"/>
      <point x="-864" y="1656" type="qcurve" smooth="yes"/>
      <point x="-864" y="1733"/>
      <point x="-789" y="1849"/>
      <point x="-664" y="1914"/>
      <point x="-589" y="1914" type="qcurve" smooth="yes"/>
      <point x="-464" y="1914"/>
      <point x="-296" y="1751"/>
      <point x="-296" y="1611" type="qcurve" smooth="yes"/>
      <point x="-296" y="1499"/>
      <point x="-361" y="1340"/>
      <point x="-469" y="1233"/>
      <point x="-602" y="1168"/>
      <point x="-671" y="1150" type="qcurve"/>
      <point x="-710" y="1257" type="line"/>
      <point x="-649" y="1277"/>
      <point x="-520" y="1345"/>
      <point x="-432" y="1484"/>
      <point x="-432" y="1607" type="qcurve" smooth="yes"/>
      <point x="-432" y="1704"/>
      <point x="-518" y="1805"/>
      <point x="-586" y="1805" type="qcurve" smooth="yes"/>
      <point x="-650" y="1805"/>
      <point x="-732" y="1727"/>
      <point x="-732" y="1664" type="qcurve" smooth="yes"/>
      <point x="-732" y="1592"/>
      <point x="-663" y="1525"/>
      <point x="-599" y="1525" type="qcurve" smooth="yes"/>
      <point x="-570" y="1525"/>
      <point x="-522" y="1533"/>
      <point x="-502" y="1543" type="qcurve"/>
      <point x="-476" y="1464" type="line"/>
      <point x="-501" y="1446"/>
      <point x="-570" y="1426"/>
    </contour>
  </outline>
</glyph>
<glyph name="ncomb" format="2">
  <unicode hex="1DE0"/>
  <outline>
    <contour>
      <point x="-692" y="1626" type="line"/>
      <point x="-692" y="1202" type="line"/>
      <point x="-826" y="1202" type="line"/>
      <point x="-826" y="1754" type="line"/>
      <point x="-724" y="1754" type="line"/>
    </contour>
    <contour>
      <point x="-710" y="1498" type="qcurve"/>
      <point x="-757" y="1496" type="line"/>
      <point x="-758" y="1614"/>
      <point x="-657" y="1764"/>
      <point x="-544" y="1764" type="qcurve" smooth="yes"/>
      <point x="-457" y="1764"/>
      <point x="-356" y="1655"/>
      <point x="-356" y="1531" type="qcurve" smooth="yes"/>
      <point x="-356" y="1202" type="line"/>
      <point x="-488" y="1202" type="line"/>
      <point x="-488" y="1531" type="line" smooth="yes"/>
      <point x="-488" y="1596"/>
      <point x="-533" y="1656"/>
      <point x="-583" y="1656" type="qcurve" smooth="yes"/>
      <point x="-650" y="1656"/>
      <point x="-710" y="1573"/>
    </contour>
  </outline>
</glyph>
<glyph name="fcomb" format="2">
  <unicode hex="1DEB"/>
  <outline>
    <contour>
      <point x="-429" y="1760" type="line"/>
      <point x="-429" y="1651" type="line"/>
      <point x="-762" y="1651" type="line"/>
      <point x="-762" y="1760" type="line"/>
    </contour>
    <contour>
      <point x="-528" y="1202" type="line"/>
      <point x="-665" y="1202" type="line"/>
      <point x="-665" y="1810" type="line" smooth="yes"/>
      <point x="-665" y="1908"/>
      <point x="-546" y="2008"/>
      <point x="-462" y="2008" type="qcurve" smooth="yes"/>
      <point x="-446" y="2008"/>
      <point x="-415" y="2003"/>
      <point x="-389" y="1998" type="qcurve"/>
      <point x="-400" y="1894" type="line"/>
      <point x="-412" y="1897"/>
      <point x="-435" y="1900"/>
      <point x="-446" y="1900" type="qcurve" smooth="yes"/>
      <point x="-479" y="1900"/>
      <point x="-528" y="1857"/>
      <point x="-528" y="1810" type="qcurve" smooth="yes"/>
    </contour>
  </outline>
</glyph>
<glyph name="olightcentralizationstrokecomb" format="2">
  <unicode hex="1DED"/>
  <outline>
    <contour>
      <point x="-910" y="1070" type="line"/>
      <point x="-744" y="1338" type="line"/>
      <point x="-640" y="1277" type="line"/>
      <point x="-806" y="1011" type="line"/>
    </contour>
    <contour>
      <point x="-587" y="1186" type="qcurve" smooth="yes"/>
      <point x="-704" y="1186"/>
      <point x="-850" y="1340"/>
      <point x="-850" y="1466" type="qcurve" smooth="yes"/>
      <point x="-850" y="1478" type="line" smooth="yes"/>
      <point x="-850" y="1606"/>
      <point x="-704" y="1760"/>
      <point x="-587" y="1760" type="qcurve" smooth="yes"/>
      <point x="-468" y="1760"/>
      <point x="-324" y="1606"/>
      <point x="-324" y="1478" type="qcurve" smooth="yes"/>
      <point x="-324" y="1466" type="line" smooth="yes"/>
      <point x="-324" y="1340"/>
      <point x="-468" y="1186"/>
    </contour>
    <contour>
      <point x="-587" y="1296" type="qcurve" smooth="yes"/>
      <point x="-519" y="1296"/>
      <point x="-457" y="1387"/>
      <point x="-457" y="1466" type="qcurve" smooth="yes"/>
      <point x="-457" y="1478" type="line" smooth="yes"/>
      <point x="-457" y="1557"/>
      <point x="-519" y="1650"/>
      <point x="-587" y="1650" type="qcurve" smooth="yes"/>
      <point x="-654" y="1650"/>
      <point x="-716" y="1557"/>
      <point x="-716" y="1478" type="qcurve" smooth="yes"/>
      <point x="-716" y="1466" type="line" smooth="yes"/>
      <point x="-716" y="1389"/>
      <point x="-654" y="1296"/>
    </contour>
  </outline>
</glyph>
<glyph name="pcomb" format="2">
  <unicode hex="1DEE"/>
  <outline>
    <contour>
      <point x="-711" y="1644" type="line"/>
      <point x="-711" y="958" type="line"/>
      <point x="-845" y="958" type="line"/>
      <point x="-845" y="1748" type="line"/>
      <point x="-729" y="1748" type="line"/>
    </contour>
    <contour>
      <point x="-560" y="1764" type="qcurve" smooth="yes"/>
      <point x="-458" y="1764"/>
      <point x="-334" y="1604"/>
      <point x="-334" y="1484" type="qcurve" smooth="yes"/>
      <point x="-334" y="1472" type="line" smooth="yes"/>
      <point x="-334" y="1347"/>
      <point x="-456" y="1190"/>
      <point x="-560" y="1190" type="qcurve" smooth="yes"/>
      <point x="-668" y="1190"/>
      <point x="-774" y="1321"/>
      <point x="-783" y="1442" type="qcurve"/>
      <point x="-783" y="1511" type="line"/>
      <point x="-777" y="1593"/>
      <point x="-726" y="1705"/>
      <point x="-631" y="1764"/>
    </contour>
    <contour>
      <point x="-589" y="1654" type="qcurve" smooth="yes"/>
      <point x="-640" y="1654"/>
      <point x="-710" y="1594"/>
      <point x="-725" y="1534" type="qcurve"/>
      <point x="-725" y="1422" type="line"/>
      <point x="-715" y="1364"/>
      <point x="-644" y="1299"/>
      <point x="-589" y="1299" type="qcurve" smooth="yes"/>
      <point x="-530" y="1299"/>
      <point x="-466" y="1395"/>
      <point x="-466" y="1472" type="qcurve" smooth="yes"/>
      <point x="-466" y="1484" type="line" smooth="yes"/>
      <point x="-466" y="1561"/>
      <point x="-529" y="1654"/>
    </contour>
  </outline>
</glyph>
<glyph name="ulightcentralizationstrokecomb" format="2">
  <unicode hex="1DF0"/>
  <outline>
    <contour>
      <point x="-910" y="1070" type="line"/>
      <point x="-744" y="1338" type="line"/>
      <point x="-640" y="1277" type="line"/>
      <point x="-806" y="1011" type="line"/>
    </contour>
    <contour>
      <point x="-487" y="1330" type="line"/>
      <point x="-487" y="1754" type="line"/>
      <point x="-351" y="1754" type="line"/>
      <point x="-351" y="1202" type="line"/>
      <point x="-454" y="1202" type="line"/>
    </contour>
    <contour>
      <point x="-467" y="1458" type="qcurve"/>
      <point x="-420" y="1460" type="line"/>
      <point x="-420" y="1342"/>
      <point x="-520" y="1192"/>
      <point x="-633" y="1192" type="qcurve" smooth="yes"/>
      <point x="-721" y="1192"/>
      <point x="-823" y="1301"/>
      <point x="-823" y="1425" type="qcurve" smooth="yes"/>
      <point x="-823" y="1754" type="line"/>
      <point x="-689" y="1754" type="line"/>
      <point x="-689" y="1425" type="line" smooth="yes"/>
      <point x="-689" y="1367"/>
      <point x="-648" y="1300"/>
      <point x="-594" y="1300" type="qcurve" smooth="yes"/>
      <point x="-541" y="1300"/>
      <point x="-486" y="1349"/>
      <point x="-467" y="1422"/>
    </contour>
  </outline>
</glyph>
<glyph name="almostequaltobelowcomb" format="2">
  <unicode hex="1DFD"/>
  <outline>
    <contour>
      <point x="-819" y="-286" type="qcurve"/>
      <point x="-952" y="-280" type="line"/>
      <point x="-952" y="-224"/>
      <point x="-894" y="-138"/>
      <point x="-794" y="-88"/>
      <point x="-733" y="-88" type="qcurve" smooth="yes"/>
      <point x="-677" y="-88"/>
      <point x="-597" y="-123"/>
      <point x="-517" y="-158"/>
      <point x="-464" y="-158" type="qcurve" smooth="yes"/>
      <point x="-425" y="-158"/>
      <point x="-368" y="-112"/>
      <point x="-368" y="-77" type="qcurve"/>
      <point x="-231" y="-87" type="line"/>
      <point x="-231" y="-143"/>
      <point x="-292" y="-228"/>
      <point x="-393" y="-275"/>
      <point x="-454" y="-275" type="qcurve" smooth="yes"/>
      <point x="-520" y="-275"/>
      <point x="-598" y="-240"/>
      <point x="-666" y="-205"/>
      <point x="-720" y="-205" type="qcurve" smooth="yes"/>
      <point x="-760" y="-205"/>
      <point x="-818" y="-252"/>
    </contour>
    <contour>
      <point x="-819" y="-497" type="qcurve"/>
      <point x="-952" y="-490" type="line"/>
      <point x="-952" y="-435"/>
      <point x="-894" y="-350"/>
      <point x="-794" y="-301"/>
      <point x="-733" y="-301" type="qcurve" smooth="yes"/>
      <point x="-677" y="-301"/>
      <point x="-597" y="-336"/>
      <point x="-517" y="-371"/>
      <point x="-464" y="-371" type="qcurve" smooth="yes"/>
      <point x="-425" y="-371"/>
      <point x="-368" y="-321"/>
      <point x="-368" y="-287" type="qcurve"/>
      <point x="-231" y="-297" type="line"/>
      <point x="-231" y="-352"/>
      <point x="-291" y="-436"/>
      <point x="-391" y="-483"/>
      <point x="-452" y="-483" type="qcurve" smooth="yes"/>
      <point x="-519" y="-483"/>
      <point x="-598" y="-448"/>
      <point x="-666" y="-413"/>
      <point x="-720" y="-413" type="qcurve" smooth="yes"/>
      <point x="-760" y="-413"/>
      <point x="-818" y="-462"/>
    </contour>
  </outline>
</glyph>
<glyph name="yloop" format="2">
  <advance width="1304"/>
  <unicode hex="1EFF"/>
  <outline>
    <contour>
      <point x="490" y="1118" type="line"/>
      <point x="719" y="384" type="line"/>
      <point x="810" y="45" type="line"/>
      <point x="630" y="78" type="line"/>
      <point x="256" y="1118" type="line"/>
    </contour>
    <contour>
      <point x="448" y="-250" type="qcurve" smooth="yes"/>
      <point x="511" y="-250"/>
      <point x="599" y="-169"/>
      <point x="599" y="-91" type="qcurve" smooth="yes"/>
      <point x="599" y="-10"/>
      <point x="511" y="71"/>
      <point x="448" y="71" type="qcurve" smooth="yes"/>
      <point x="383" y="71"/>
      <point x="294" y="-10"/>
      <point x="294" y="-91" type="qcurve" smooth="yes"/>
      <point x="294" y="-169"/>
      <point x="383" y="-250"/>
    </contour>
    <contour>
      <point x="445" y="-436" type="qcurve" smooth="yes"/>
      <point x="350" y="-436"/>
      <point x="192" y="-343"/>
      <point x="98" y="-186"/>
      <point x="98" y="-91" type="qcurve" smooth="yes"/>
      <point x="98" y="4"/>
      <point x="193" y="160"/>
      <point x="351" y="254"/>
      <point x="446" y="254" type="qcurve" smooth="yes"/>
      <point x="517" y="254"/>
      <point x="643" y="200"/>
      <point x="738" y="105"/>
      <point x="792" y="-20"/>
      <point x="792" y="-91" type="qcurve"/>
      <point x="662" y="-35" type="line"/>
      <point x="673" y="128" type="line"/>
      <point x="985" y="1118" type="line"/>
      <point x="1216" y="1118" type="line"/>
      <point x="781" y="-178" type="line" smooth="yes"/>
      <point x="755" y="-255"/>
      <point x="665" y="-372"/>
      <point x="534" y="-436"/>
    </contour>
  </outline>
</glyph>
<glyph name="dieresisgrave" format="2">
  <advance width="1106"/>
  <unicode hex="1FED"/>
  <anchor x="395" y="1490" name="t.uni030F_1"/>
  <outline>
    <contour>
      <point x="297" y="1294" type="line"/>
      <point x="297" y="1490" type="line"/>
      <point x="493" y="1490" type="line"/>
      <point x="493" y="1294" type="line"/>
    </contour>
    <contour>
      <point x="873" y="1294" type="line"/>
      <point x="873" y="1490" type="line"/>
      <point x="1069" y="1490" type="line"/>
      <point x="1069" y="1294" type="line"/>
    </contour>
    <contour>
      <point x="751" y="1489" type="line"/>
      <point x="626" y="1489" type="line"/>
      <point x="524" y="1783" type="line"/>
      <point x="717" y="1783" type="line"/>
    </contour>
  </outline>
</glyph>
<glyph name="quotereversed" format="2">
  <advance width="614"/>
  <unicode hex="201B"/>
  <outline>
    <contour>
      <point x="454" y="923" type="line"/>
      <point x="316" y="923" type="line"/>
      <point x="160" y="1490" type="line"/>
      <point x="366" y="1490" type="line"/>
    </contour>
  </outline>
</glyph>
<glyph name="swungdash" format="2">
  <advance width="1486"/>
  <unicode hex="2053"/>
  <outline>
    <contour>
      <point x="1273" y="798" type="qcurve"/>
      <point x="1354" y="669" type="line"/>
      <point x="1304" y="629"/>
      <point x="1139" y="537"/>
      <point x="1032" y="537" type="qcurve" smooth="yes"/>
      <point x="953" y="537"/>
      <point x="804" y="597"/>
      <point x="662" y="677"/>
      <point x="526" y="737"/>
      <point x="459" y="737" type="qcurve" smooth="yes"/>
      <point x="377" y="737"/>
      <point x="264" y="686"/>
      <point x="209" y="645" type="qcurve"/>
      <point x="134" y="779" type="line"/>
      <point x="197" y="820"/>
      <point x="355" y="904"/>
      <point x="459" y="904" type="qcurve" smooth="yes"/>
      <point x="540" y="904"/>
      <point x="688" y="844"/>
      <point x="826" y="764"/>
      <point x="961" y="704"/>
      <point x="1030" y="704" type="qcurve" smooth="yes"/>
      <point x="1100" y="704"/>
      <point x="1218" y="757"/>
    </contour>
  </outline>
</glyph>
<glyph name="lira" format="2">
  <advance width="1243"/>
  <unicode hex="20A4"/>
  <outline>
    <contour>
      <point x="110" y="112" type="qcurve"/>
      <point x="110" y="160" type="line"/>
      <point x="190" y="160"/>
      <point x="276" y="253"/>
      <point x="273" y="362" type="qcurve" smooth="yes"/>
      <point x="252" y="1054" type="line" smooth="yes"/>
      <point x="248" y="1188"/>
      <point x="360" y="1394"/>
      <point x="566" y="1510"/>
      <point x="702" y="1510" type="qcurve" smooth="yes"/>
      <point x="816" y="1510"/>
      <point x="996" y="1417"/>
      <point x="1113" y="1251"/>
      <point x="1130" y="1140" type="qcurve"/>
      <point x="967" y="1114" type="line"/>
      <point x="947" y="1224"/>
      <point x="810" y="1350"/>
      <point x="702" y="1350" type="qcurve" smooth="yes"/>
      <point x="613" y="1350"/>
      <point x="486" y="1279"/>
      <point x="420" y="1148"/>
      <point x="422" y="1058" type="qcurve"/>
      <point x="443" y="366" type="line" smooth="yes"/>
      <point x="445" y="300"/>
      <point x="395" y="210"/>
      <point x="314" y="153"/>
      <point x="221" y="123"/>
      <point x="136" y="112"/>
    </contour>
    <contour>
      <point x="110" y="0" type="line"/>
      <point x="110" y="160" type="line"/>
      <point x="1150" y="160" type="line"/>
      <point x="1150" y="0" type="line"/>
    </contour>
    <contour>
      <point x="110" y="492" type="line"/>
      <point x="110" y="624" type="line"/>
      <point x="920" y="624" type="line"/>
      <point x="920" y="492" type="line"/>
    </contour>
    <contour>
      <point x="110" y="794" type="line"/>
      <point x="110" y="926" type="line"/>
      <point x="920" y="926" type="line"/>
      <point x="920" y="794" type="line"/>
    </contour>
  </outline>
</glyph>
<glyph name="austral" format="2">
  <advance width="1413"/>
  <unicode hex="20B3"/>
  <anchor x="955" y="0" name="m.uni0326"/>
  <anchor x="955" y="1490" name="m.uni030F_1"/>
  <outline>
    <contour>
      <point x="87" y="734" type="line"/>
      <point x="87" y="878" type="line"/>
      <point x="1315" y="878" type="line"/>
      <point x="1315" y="734" type="line"/>
    </contour>
    <contour>
      <point x="87" y="398" type="line"/>
      <point x="87" y="544" type="line"/>
      <point x="1315" y="544" type="line"/>
      <point x="1315" y="398" type="line"/>
    </contour>
    <contour>
      <point x="52" y="0" type="line"/>
      <point x="593" y="1490" type="line"/>
      <point x="813" y="1490" type="line"/>
      <point x="1361" y="0" type="line"/>
      <point x="1161" y="0" type="line"/>
      <point x="845" y="884" type="line" smooth="yes"/>
      <point x="816" y="966"/>
      <point x="739" y="1211"/>
      <point x="684" y="1401" type="qcurve"/>
      <point x="720" y="1401" type="line"/>
      <point x="666" y="1209"/>
      <point x="587" y="960"/>
      <point x="561" y="884" type="qcurve" smooth="yes"/>
      <point x="254" y="0" type="line"/>
    </contour>
  </outline>
</glyph>
<glyph name="hryvnia" format="2">
  <advance width="1295"/>
  <unicode hex="20B4"/>
  <outline>
    <contour>
      <point x="652" y="1343" type="qcurve" smooth="yes"/>
      <point x="568" y="1343"/>
      <point x="469" y="1298"/>
      <point x="421" y="1229"/>
      <point x="406" y="1157"/>
      <point x="406" y="1131" type="qcurve"/>
      <point x="201" y="1131" type="line"/>
      <point x="202" y="1233"/>
      <point x="292" y="1405"/>
      <point x="489" y="1510"/>
      <point x="652" y="1510" type="qcurve" smooth="yes"/>
      <point x="789" y="1510"/>
      <point x="981" y="1431"/>
      <point x="1082" y="1277"/>
      <point x="1082" y="1164" type="qcurve" smooth="yes"/>
      <point x="1082" y="1098"/>
      <point x="1027" y="975"/>
      <point x="974" y="928" type="qcurve"/>
      <point x="801" y="980" type="line"/>
      <point x="837" y="1025"/>
      <point x="892" y="1115"/>
      <point x="892" y="1164" type="qcurve" smooth="yes"/>
      <point x="892" y="1245"/>
      <point x="772" y="1343"/>
    </contour>
    <contour>
      <point x="1185" y="825" type="line"/>
      <point x="110" y="825" type="line"/>
      <point x="110" y="988" type="line"/>
      <point x="1185" y="988" type="line"/>
    </contour>
    <contour>
      <point x="1185" y="522" type="line"/>
      <point x="110" y="522" type="line"/>
      <point x="110" y="685" type="line"/>
      <point x="1185" y="685" type="line"/>
    </contour>
    <contour>
      <point x="646" y="-20" type="qcurve" smooth="yes"/>
      <point x="435" y="-20"/>
      <point x="190" y="160"/>
      <point x="190" y="329" type="qcurve" smooth="yes"/>
      <point x="190" y="395"/>
      <point x="250" y="523"/>
      <point x="305" y="563" type="qcurve"/>
      <point x="495" y="537" type="line"/>
      <point x="438" y="486"/>
      <point x="391" y="389"/>
      <point x="391" y="331" type="qcurve" smooth="yes"/>
      <point x="391" y="248"/>
      <point x="522" y="152"/>
      <point x="646" y="152" type="qcurve" smooth="yes"/>
      <point x="764" y="152"/>
      <point x="913" y="249"/>
      <point x="913" y="356" type="qcurve"/>
      <point x="1116" y="356" type="line"/>
      <point x="1116" y="228"/>
      <point x="999" y="61"/>
      <point x="788" y="-20"/>
    </contour>
  </outline>
</glyph>
<glyph name="bitcoin" format="2">
  <advance width="1340"/>
  <unicode hex="20BF"/>
  <anchor x="691" y="0" name="m.uni0326"/>
  <anchor x="703" y="1490" name="m.uni030F_1"/>
  <outline>
    <contour>
      <point x="396" y="1414" type="line"/>
      <point x="396" y="1676" type="line"/>
      <point x="516" y="1676" type="line"/>
      <point x="516" y="1414" type="line"/>
    </contour>
    <contour>
      <point x="690" y="1414" type="line"/>
      <point x="690" y="1676" type="line"/>
      <point x="810" y="1676" type="line"/>
      <point x="810" y="1414" type="line"/>
    </contour>
    <contour>
      <point x="396" y="-186" type="line"/>
      <point x="396" y="76" type="line"/>
      <point x="516" y="76" type="line"/>
      <point x="516" y="-186" type="line"/>
    </contour>
    <contour>
      <point x="690" y="-186" type="line"/>
      <point x="690" y="76" type="line"/>
      <point x="810" y="76" type="line"/>
      <point x="810" y="-186" type="line"/>
    </contour>
    <contour>
      <point x="180" y="0" type="line"/>
      <point x="180" y="1490" type="line"/>
      <point x="708" y="1490" type="line" smooth="yes"/>
      <point x="864" y="1490"/>
      <point x="1067" y="1383"/>
      <point x="1166" y="1204"/>
      <point x="1166" y="1095" type="qcurve" smooth="yes"/>
      <point x="1166" y="999"/>
      <point x="1098" y="874"/>
      <point x="987" y="800"/>
      <point x="922" y="782" type="qcurve"/>
      <point x="922" y="768" type="line"/>
      <point x="992" y="764"/>
      <point x="1131" y="676"/>
      <point x="1224" y="514"/>
      <point x="1224" y="397" type="qcurve" smooth="yes"/>
      <point x="1224" y="285"/>
      <point x="1121" y="105"/>
      <point x="901" y="0"/>
      <point x="725" y="0" type="qcurve" smooth="yes"/>
    </contour>
    <contour>
      <point x="370" y="168" type="line"/>
      <point x="720" y="168" type="line" smooth="yes"/>
      <point x="894" y="168"/>
      <point x="1041" y="302"/>
      <point x="1041" y="399" type="qcurve" smooth="yes"/>
      <point x="1041" y="474"/>
      <point x="965" y="600"/>
      <point x="826" y="676"/>
      <point x="730" y="676" type="qcurve" smooth="yes"/>
      <point x="370" y="676" type="line"/>
    </contour>
    <contour>
      <point x="370" y="836" type="line"/>
      <point x="698" y="836" type="line" smooth="yes"/>
      <point x="778" y="836"/>
      <point x="908" y="899"/>
      <point x="984" y="1014"/>
      <point x="984" y="1091" type="qcurve" smooth="yes"/>
      <point x="984" y="1188"/>
      <point x="849" y="1322"/>
      <point x="704" y="1322" type="qcurve" smooth="yes"/>
      <point x="370" y="1322" type="line"/>
    </contour>
  </outline>
</glyph>
<glyph name="aktieselskab" format="2">
  <advance width="1851"/>
  <unicode hex="214D"/>
  <outline>
    <contour>
      <point x="642" y="1048" type="line"/>
      <point x="642" y="930" type="line"/>
      <point x="218" y="930" type="line"/>
      <point x="218" y="1048" type="line"/>
    </contour>
    <contour>
      <point x="678" y="744" type="line"/>
      <point x="398" y="1402" type="line"/>
      <point x="462" y="1402" type="line"/>
      <point x="180" y="744" type="line"/>
      <point x="38" y="744" type="line"/>
      <point x="358" y="1490" type="line"/>
      <point x="502" y="1490" type="line"/>
      <point x="822" y="744" type="line"/>
    </contour>
    <contour>
      <point x="438" y="0" type="line"/>
      <point x="1462" y="1490" type="line"/>
      <point x="1631" y="1490" type="line"/>
      <point x="607" y="0" type="line"/>
    </contour>
    <contour>
      <point x="1777" y="538" type="qcurve"/>
      <point x="1628" y="525" type="line"/>
      <point x="1618" y="569"/>
      <point x="1548" y="626"/>
      <point x="1486" y="626" type="qcurve" smooth="yes"/>
      <point x="1431" y="626"/>
      <point x="1349" y="575"/>
      <point x="1349" y="530" type="qcurve" smooth="yes"/>
      <point x="1349" y="497"/>
      <point x="1401" y="450"/>
      <point x="1461" y="436" type="qcurve" smooth="yes"/>
      <point x="1590" y="407" type="line" smooth="yes"/>
      <point x="1687" y="385"/>
      <point x="1791" y="285"/>
      <point x="1791" y="208" type="qcurve" smooth="yes"/>
      <point x="1791" y="139"/>
      <point x="1710" y="34"/>
      <point x="1570" y="-25"/>
      <point x="1481" y="-25" type="qcurve" smooth="yes"/>
      <point x="1348" y="-25"/>
      <point x="1184" y="92"/>
      <point x="1170" y="192" type="qcurve"/>
      <point x="1325" y="204" type="line"/>
      <point x="1338" y="152"/>
      <point x="1414" y="94"/>
      <point x="1481" y="94" type="qcurve" smooth="yes"/>
      <point x="1545" y="94"/>
      <point x="1628" y="149"/>
      <point x="1628" y="194" type="qcurve" smooth="yes"/>
      <point x="1628" y="226"/>
      <point x="1579" y="274"/>
      <point x="1520" y="287" type="qcurve" smooth="yes"/>
      <point x="1395" y="314" type="line" smooth="yes"/>
      <point x="1291" y="337"/>
      <point x="1192" y="443"/>
      <point x="1192" y="522" type="qcurve" smooth="yes"/>
      <point x="1192" y="625"/>
      <point x="1354" y="743"/>
      <point x="1482" y="743" type="qcurve" smooth="yes"/>
      <point x="1605" y="743"/>
      <point x="1759" y="638"/>
    </contour>
  </outline>
</glyph>
<glyph name="arrowup" format="2">
  <advance width="1708"/>
  <unicode hex="2191"/>
  <outline>
    <contour>
      <point x="202" y="862" type="line"/>
      <point x="854" y="1514" type="line"/>
      <point x="1506" y="862" type="line"/>
      <point x="1390" y="746" type="line"/>
      <point x="1180" y="957" type="line" smooth="yes"/>
      <point x="1129" y="1009"/>
      <point x="1017" y="1139"/>
      <point x="912" y="1270"/>
      <point x="873" y="1321" type="qcurve"/>
      <point x="905" y="1293" type="line"/>
      <point x="914" y="1252"/>
      <point x="928" y="1169"/>
      <point x="937" y="1086"/>
      <point x="937" y="1044" type="qcurve" smooth="yes"/>
      <point x="937" y="0" type="line"/>
      <point x="771" y="0" type="line"/>
      <point x="771" y="1044" type="line" smooth="yes"/>
      <point x="771" y="1086"/>
      <point x="780" y="1169"/>
      <point x="795" y="1252"/>
      <point x="803" y="1293" type="qcurve"/>
      <point x="835" y="1321" type="line"/>
      <point x="806" y="1282"/>
      <point x="732" y="1189"/>
      <point x="649" y="1089"/>
      <point x="566" y="996"/>
      <point x="528" y="957" type="qcurve" smooth="yes"/>
      <point x="318" y="746" type="line"/>
    </contour>
  </outline>
</glyph>
<glyph name="arrowNW" format="2">
  <advance width="1588"/>
  <unicode hex="2196"/>
  <outline>
    <contour>
      <point x="250" y="196" type="line"/>
      <point x="250" y="1118" type="line"/>
      <point x="1172" y="1118" type="line"/>
      <point x="1172" y="952" type="line"/>
      <point x="874" y="952" type="line" smooth="yes"/>
      <point x="802" y="952"/>
      <point x="630" y="962"/>
      <point x="464" y="978"/>
      <point x="400" y="987" type="qcurve"/>
      <point x="442" y="998" type="line"/>
      <point x="478" y="975"/>
      <point x="546" y="926"/>
      <point x="612" y="874"/>
      <point x="641" y="844" type="qcurve" smooth="yes"/>
      <point x="1367" y="119" type="line"/>
      <point x="1249" y="1" type="line"/>
      <point x="524" y="727" type="line" smooth="yes"/>
      <point x="495" y="757"/>
      <point x="442" y="821"/>
      <point x="394" y="891"/>
      <point x="370" y="926" type="qcurve"/>
      <point x="381" y="968" type="line"/>
      <point x="388" y="920"/>
      <point x="400" y="801"/>
      <point x="410" y="673"/>
      <point x="416" y="548"/>
      <point x="416" y="494" type="qcurve" smooth="yes"/>
      <point x="416" y="196" type="line"/>
    </contour>
  </outline>
</glyph>
<glyph name="arrowSW" format="2">
  <advance width="1588"/>
  <unicode hex="2199"/>
  <outline>
    <contour>
      <point x="250" y="922" type="line"/>
      <point x="416" y="922" type="line"/>
      <point x="416" y="624" type="line" smooth="yes"/>
      <point x="416" y="570"/>
      <point x="410" y="445"/>
      <point x="400" y="317"/>
      <point x="388" y="198"/>
      <point x="381" y="150" type="qcurve"/>
      <point x="370" y="192" type="line"/>
      <point x="394" y="228"/>
      <point x="442" y="296"/>
      <point x="495" y="362"/>
      <point x="524" y="391" type="qcurve" smooth="yes"/>
      <point x="1249" y="1117" type="line"/>
      <point x="1367" y="999" type="line"/>
      <point x="641" y="274" type="line" smooth="yes"/>
      <point x="612" y="245"/>
      <point x="546" y="192"/>
      <point x="478" y="144"/>
      <point x="442" y="120" type="qcurve"/>
      <point x="400" y="131" type="line"/>
      <point x="464" y="140"/>
      <point x="630" y="156"/>
      <point x="802" y="166"/>
      <point x="874" y="166" type="qcurve" smooth="yes"/>
      <point x="1172" y="166" type="line"/>
      <point x="1172" y="0" type="line"/>
      <point x="250" y="0" type="line"/>
    </contour>
  </outline>
</glyph>
<glyph name="arrowclockwiseopencircle" format="2">
  <advance width="1954"/>
  <unicode hex="21BB"/>
  <outline>
    <contour>
      <point x="978" y="0" type="qcurve" smooth="yes"/>
      <point x="823" y="0"/>
      <point x="553" y="116"/>
      <point x="348" y="320"/>
      <point x="232" y="590"/>
      <point x="232" y="744" type="qcurve" smooth="yes"/>
      <point x="232" y="899"/>
      <point x="348" y="1169"/>
      <point x="553" y="1374"/>
      <point x="823" y="1490"/>
      <point x="978" y="1490" type="qcurve"/>
      <point x="978" y="1324" type="line"/>
      <point x="858" y="1324"/>
      <point x="648" y="1234"/>
      <point x="488" y="1075"/>
      <point x="398" y="865"/>
      <point x="398" y="744" type="qcurve" smooth="yes"/>
      <point x="398" y="624"/>
      <point x="488" y="414"/>
      <point x="647" y="256"/>
      <point x="858" y="166"/>
      <point x="978" y="166" type="qcurve" smooth="yes"/>
      <point x="1098" y="166"/>
      <point x="1307" y="256"/>
      <point x="1466" y="415"/>
      <point x="1556" y="624"/>
      <point x="1556" y="744" type="qcurve"/>
      <point x="1722" y="744" type="line"/>
      <point x="1722" y="590"/>
      <point x="1607" y="320"/>
      <point x="1402" y="116"/>
      <point x="1132" y="0"/>
    </contour>
    <contour>
      <point x="931" y="955" type="line"/>
      <point x="931" y="1828" type="line"/>
      <point x="1368" y="1391" type="line"/>
    </contour>
  </outline>
</glyph>
<glyph name="emptyset" format="2">
  <advance width="1402"/>
  <unicode hex="2205"/>
  <outline>
    <contour>
      <point x="172" y="-50" type="line"/>
      <point x="94" y="30" type="line"/>
      <point x="1230" y="1166" type="line"/>
      <point x="1310" y="1090" type="line"/>
    </contour>
    <contour>
      <point x="704" y="-18" type="qcurve" smooth="yes"/>
      <point x="584" y="-18"/>
      <point x="375" y="72"/>
      <point x="217" y="230"/>
      <point x="128" y="439"/>
      <point x="128" y="558" type="qcurve" smooth="yes"/>
      <point x="128" y="677"/>
      <point x="217" y="884"/>
      <point x="375" y="1043"/>
      <point x="584" y="1132"/>
      <point x="704" y="1132" type="qcurve" smooth="yes"/>
      <point x="822" y="1132"/>
      <point x="1029" y="1043"/>
      <point x="1188" y="884"/>
      <point x="1278" y="677"/>
      <point x="1278" y="558" type="qcurve" smooth="yes"/>
      <point x="1278" y="439"/>
      <point x="1188" y="230"/>
      <point x="1029" y="72"/>
      <point x="822" y="-18"/>
    </contour>
    <contour>
      <point x="704" y="166" type="qcurve" smooth="yes"/>
      <point x="811" y="166"/>
      <point x="988" y="272"/>
      <point x="1094" y="450"/>
      <point x="1094" y="558" type="qcurve" smooth="yes"/>
      <point x="1094" y="666"/>
      <point x="988" y="844"/>
      <point x="811" y="950"/>
      <point x="704" y="950" type="qcurve" smooth="yes"/>
      <point x="622" y="950"/>
      <point x="478" y="889"/>
      <point x="371" y="781"/>
      <point x="310" y="639"/>
      <point x="310" y="558" type="qcurve" smooth="yes"/>
      <point x="310" y="450"/>
      <point x="415" y="272"/>
      <point x="594" y="166"/>
    </contour>
  </outline>
</glyph>
<glyph name="insertion" format="2">
  <advance width="1630"/>
  <unicode hex="2380"/>
  <outline>
    <contour>
      <point x="814" y="-24" type="line"/>
      <point x="102" y="690" type="line"/>
      <point x="200" y="786" type="line"/>
      <point x="814" y="170" type="line"/>
      <point x="1430" y="786" type="line"/>
      <point x="1528" y="690" type="line"/>
    </contour>
    <contour>
      <point x="721" y="544" type="qcurve" smooth="yes"/>
      <point x="621" y="544"/>
      <point x="480" y="657"/>
      <point x="480" y="766" type="qcurve" smooth="yes"/>
      <point x="480" y="821"/>
      <point x="521" y="900"/>
      <point x="594" y="953"/>
      <point x="694" y="984"/>
      <point x="754" y="990" type="qcurve" smooth="yes"/>
      <point x="859" y="1001"/>
      <point x="944" y="1020"/>
      <point x="944" y="1060" type="qcurve" smooth="yes"/>
      <point x="944" y="1069" type="line" smooth="yes"/>
      <point x="944" y="1127"/>
      <point x="871" y="1193"/>
      <point x="806" y="1193" type="qcurve" smooth="yes"/>
      <point x="747" y="1193"/>
      <point x="666" y="1138"/>
      <point x="653" y="1094" type="qcurve"/>
      <point x="502" y="1112" type="line"/>
      <point x="526" y="1203"/>
      <point x="686" y="1312"/>
      <point x="810" y="1312" type="qcurve" smooth="yes"/>
      <point x="887" y="1312"/>
      <point x="1022" y="1261"/>
      <point x="1106" y="1153"/>
      <point x="1106" y="1067" type="qcurve" smooth="yes"/>
      <point x="1106" y="558" type="line"/>
      <point x="954" y="558" type="line"/>
      <point x="954" y="671" type="line"/>
      <point x="948" y="671" type="line"/>
      <point x="922" y="619"/>
      <point x="808" y="544"/>
    </contour>
    <contour>
      <point x="764" y="657" type="qcurve" smooth="yes"/>
      <point x="844" y="657"/>
      <point x="947" y="760"/>
      <point x="947" y="836" type="qcurve" smooth="yes"/>
      <point x="947" y="926" type="line"/>
      <point x="935" y="918"/>
      <point x="877" y="901"/>
      <point x="809" y="889"/>
      <point x="781" y="885" type="qcurve" smooth="yes"/>
      <point x="703" y="875"/>
      <point x="633" y="818"/>
      <point x="633" y="768" type="qcurve" smooth="yes"/>
      <point x="633" y="717"/>
      <point x="709" y="657"/>
    </contour>
  </outline>
</glyph>
<glyph name="heart" format="2">
  <advance width="2094"/>
  <unicode hex="2665"/>
  <outline>
    <contour>
      <point x="1048" y="-24" type="line"/>
      <point x="300" y="724" type="line" smooth="yes"/>
      <point x="210" y="814"/>
      <point x="151" y="1051"/>
      <point x="211" y="1286"/>
      <point x="299" y="1373" type="qcurve" smooth="yes"/>
      <point x="391" y="1464"/>
      <point x="625" y="1521"/>
      <point x="858" y="1461"/>
      <point x="948" y="1374" type="qcurve" smooth="yes"/>
      <point x="1048" y="1278" type="line"/>
      <point x="1146" y="1374" type="line" smooth="yes"/>
      <point x="1236" y="1462"/>
      <point x="1467" y="1523"/>
      <point x="1700" y="1466"/>
      <point x="1791" y="1377" type="qcurve" smooth="yes"/>
      <point x="1883" y="1288"/>
      <point x="1943" y="1051"/>
      <point x="1883" y="813"/>
      <point x="1794" y="724" type="qcurve" smooth="yes"/>
    </contour>
  </outline>
</glyph>
<glyph name="downArrowToBar" format="2">
  <advance width="1714"/>
  <unicode hex="2913"/>
  <outline>
    <contour>
      <point x="202" y="0" type="line"/>
      <point x="202" y="166" type="line"/>
      <point x="1512" y="166" type="line"/>
      <point x="1512" y="0" type="line"/>
    </contour>
    <contour>
      <point x="774" y="714" type="qcurve" smooth="yes"/>
      <point x="774" y="1490" type="line"/>
      <point x="940" y="1490" type="line"/>
      <point x="940" y="714" type="line" smooth="yes"/>
      <point x="940" y="673"/>
      <point x="931" y="590"/>
      <point x="917" y="507"/>
      <point x="908" y="465" type="qcurve"/>
      <point x="876" y="437" type="line"/>
      <point x="915" y="489"/>
      <point x="1020" y="619"/>
      <point x="1132" y="750"/>
      <point x="1183" y="801" type="qcurve" smooth="yes"/>
      <point x="1393" y="1012" type="line"/>
      <point x="1509" y="896" type="line"/>
      <point x="857" y="244" type="line"/>
      <point x="205" y="896" type="line"/>
      <point x="321" y="1012" type="line"/>
      <point x="531" y="801" type="line" smooth="yes"/>
      <point x="569" y="762"/>
      <point x="652" y="669"/>
      <point x="735" y="569"/>
      <point x="809" y="476"/>
      <point x="838" y="437" type="qcurve"/>
      <point x="806" y="465" type="line"/>
      <point x="798" y="507"/>
      <point x="783" y="590"/>
      <point x="774" y="673"/>
    </contour>
  </outline>
</glyph>
<glyph name="cwi-kayahli" format="2">
  <advance width="1112"/>
  <unicode hex="A92E"/>
  <outline>
    <contour>
      <point x="1086" y="497" type="qcurve"/>
      <point x="922" y="497" type="line"/>
      <point x="898" y="531"/>
      <point x="832" y="599"/>
      <point x="744" y="656"/>
      <point x="629" y="691"/>
      <point x="555" y="691" type="qcurve" smooth="yes"/>
      <point x="474" y="691"/>
      <point x="357" y="655"/>
      <point x="273" y="597"/>
      <point x="214" y="529"/>
      <point x="193" y="497" type="qcurve"/>
      <point x="26" y="497" type="line"/>
      <point x="58" y="563"/>
      <point x="158" y="683"/>
      <point x="292" y="778"/>
      <point x="458" y="833"/>
      <point x="555" y="833" type="qcurve" smooth="yes"/>
      <point x="653" y="833"/>
      <point x="820" y="779"/>
      <point x="955" y="684"/>
      <point x="1055" y="563"/>
    </contour>
  </outline>
</glyph>
<glyph name="I.1" format="2">
  <advance width="903"/>
  <unicode hex="E00C"/>
  <anchor x="692" y="0" name="m.uni0326"/>
  <anchor x="692" y="1490" name="m.uni030F_1"/>
  <anchor x="1343" y="0" name="m.uni0328_4"/>
  <outline>
    <contour>
      <point x="92" y="0" type="line"/>
      <point x="92" y="168" type="line"/>
      <point x="357" y="168" type="line"/>
      <point x="357" y="1322" type="line"/>
      <point x="92" y="1322" type="line"/>
      <point x="92" y="1490" type="line"/>
      <point x="811" y="1490" type="line"/>
      <point x="811" y="1322" type="line"/>
      <point x="547" y="1322" type="line"/>
      <point x="547" y="168" type="line"/>
      <point x="811" y="168" type="line"/>
      <point x="811" y="0" type="line"/>
    </contour>
  </outline>
</glyph>
<glyph name="zero.tf" format="2">
  <advance width="1328"/>
  <unicode hex="E071"/>
  <anchor x="664" y="1490" name="m.uni030F_1"/>
  <outline>
    <contour>
      <point x="664" y="-20" type="qcurve" smooth="yes"/>
      <point x="498" y="-20"/>
      <point x="264" y="160"/>
      <point x="142" y="502"/>
      <point x="142" y="744" type="qcurve" smooth="yes"/>
      <point x="142" y="986"/>
      <point x="266" y="1328"/>
      <point x="499" y="1510"/>
      <point x="664" y="1510" type="qcurve" smooth="yes"/>
      <point x="829" y="1510"/>
      <point x="1063" y="1328"/>
      <point x="1186" y="986"/>
      <point x="1186" y="744" type="qcurve" smooth="yes"/>
      <point x="1186" y="502"/>
      <point x="1064" y="160"/>
      <point x="831" y="-20"/>
    </contour>
    <contour>
      <point x="664" y="146" type="qcurve" smooth="yes"/>
      <point x="773" y="146"/>
      <point x="925" y="287"/>
      <point x="1004" y="555"/>
      <point x="1004" y="744" type="qcurve" smooth="yes"/>
      <point x="1004" y="935"/>
      <point x="925" y="1203"/>
      <point x="773" y="1345"/>
      <point x="664" y="1345" type="qcurve" smooth="yes"/>
      <point x="501" y="1345"/>
      <point x="324" y="1030"/>
      <point x="324" y="744" type="qcurve" smooth="yes"/>
      <point x="324" y="555"/>
      <point x="403" y="287"/>
      <point x="555" y="146"/>
    </contour>
  </outline>
</glyph>
<glyph name="bracketright.sups" format="2">
  <advance width="524"/>
  <unicode hex="E0A8"/>
  <outline>
    <contour>
      <point x="30" y="536" type="line"/>
      <point x="30" y="680" type="line"/>
      <point x="206" y="680" type="line"/>
      <point x="206" y="1622" type="line"/>
      <point x="30" y="1622" type="line"/>
      <point x="30" y="1766" type="line"/>
      <point x="372" y="1766" type="line"/>
      <point x="372" y="536" type="line"/>
    </contour>
  </outline>
</glyph>
<glyph name="zero.dnom" format="2">
  <advance width="784"/>
  <unicode hex="E0B4"/>
  <anchor x="448" y="872" name="m.uni030F_1"/>
  <outline>
    <contour>
      <point x="392" y="-9" type="qcurve" smooth="yes"/>
      <point x="240" y="-9"/>
      <point x="78" y="202"/>
      <point x="78" y="405" type="qcurve" smooth="yes"/>
      <point x="78" y="607"/>
      <point x="241" y="821"/>
      <point x="392" y="821" type="qcurve" smooth="yes"/>
      <point x="543" y="821"/>
      <point x="706" y="606"/>
      <point x="706" y="405" type="qcurve" smooth="yes"/>
      <point x="706" y="203"/>
      <point x="545" y="-9"/>
    </contour>
    <contour>
      <point x="392" y="126" type="qcurve" smooth="yes"/>
      <point x="468" y="126"/>
      <point x="543" y="270"/>
      <point x="543" y="405" type="qcurve" smooth="yes"/>
      <point x="543" y="542"/>
      <point x="468" y="688"/>
      <point x="392" y="688" type="qcurve" smooth="yes"/>
      <point x="316" y="688"/>
      <point x="241" y="541"/>
      <point x="241" y="405" type="qcurve" smooth="yes"/>
      <point x="241" y="269"/>
      <point x="316" y="126"/>
    </contour>
  </outline>
</glyph>
<glyph name="one.dnom" format="2">
  <advance width="522"/>
  <unicode hex="E0B5"/>
  <outline>
    <contour>
      <point x="260" y="0" type="line"/>
      <point x="260" y="650" type="line"/>
      <point x="318" y="580" type="line"/>
      <point x="238" y="580"/>
      <point x="150" y="580"/>
      <point x="77" y="580" type="curve"/>
      <point x="77" y="685" type="line"/>
      <point x="176" y="687"/>
      <point x="276" y="728"/>
      <point x="331" y="812" type="curve"/>
      <point x="421" y="812" type="line"/>
      <point x="421" y="0" type="line"/>
    </contour>
  </outline>
</glyph>
<glyph name="five.dnom" format="2">
  <advance width="762"/>
  <unicode hex="E0B9"/>
  <outline>
    <contour>
      <point x="387" y="-11" type="qcurve" smooth="yes"/>
      <point x="310" y="-11"/>
      <point x="189" y="44"/>
      <point x="119" y="138"/>
      <point x="116" y="198" type="qcurve"/>
      <point x="271" y="198" type="line"/>
      <point x="275" y="164"/>
      <point x="344" y="121"/>
      <point x="387" y="121" type="qcurve" smooth="yes"/>
      <point x="446" y="121"/>
      <point x="526" y="197"/>
      <point x="526" y="258" type="qcurve" smooth="yes"/>
      <point x="526" y="320"/>
      <point x="440" y="405"/>
      <point x="373" y="405" type="qcurve" smooth="yes"/>
      <point x="357" y="405"/>
      <point x="297" y="390"/>
      <point x="271" y="342" type="qcurve"/>
      <point x="123" y="342" type="line"/>
      <point x="189" y="812" type="line"/>
      <point x="643" y="812" type="line"/>
      <point x="643" y="677" type="line"/>
      <point x="318" y="677" type="line"/>
      <point x="291" y="494" type="line"/>
      <point x="298" y="494" type="line"/>
      <point x="312" y="507"/>
      <point x="383" y="531"/>
      <point x="420" y="531" type="qcurve" smooth="yes"/>
      <point x="496" y="531"/>
      <point x="615" y="461"/>
      <point x="684" y="339"/>
      <point x="684" y="262" type="qcurve" smooth="yes"/>
      <point x="684" y="184"/>
      <point x="607" y="61"/>
      <point x="473" y="-11"/>
    </contour>
  </outline>
</glyph>
<glyph name="six.dnom" format="2">
  <advance width="708"/>
  <unicode hex="E0BA"/>
  <outline>
    <contour>
      <point x="356" y="-9" type="qcurve" smooth="yes"/>
      <point x="279" y="-9"/>
      <point x="152" y="56"/>
      <point x="78" y="177"/>
      <point x="78" y="260" type="qcurve" smooth="yes"/>
      <point x="78" y="322"/>
      <point x="126" y="458"/>
      <point x="190" y="556" type="qcurve" smooth="yes"/>
      <point x="358" y="812" type="line"/>
      <point x="520" y="812" type="line"/>
      <point x="262" y="418" type="line"/>
      <point x="226" y="418" type="line"/>
      <point x="244" y="453"/>
      <point x="342" y="493"/>
      <point x="385" y="493" type="qcurve" smooth="yes"/>
      <point x="499" y="493"/>
      <point x="630" y="371"/>
      <point x="630" y="255" type="qcurve" smooth="yes"/>
      <point x="630" y="137"/>
      <point x="473" y="-9"/>
    </contour>
    <contour>
      <point x="356" y="119" type="qcurve" smooth="yes"/>
      <point x="413" y="119"/>
      <point x="480" y="191"/>
      <point x="480" y="252" type="qcurve" smooth="yes"/>
      <point x="480" y="317"/>
      <point x="413" y="387"/>
      <point x="356" y="387" type="qcurve" smooth="yes"/>
      <point x="298" y="387"/>
      <point x="229" y="317"/>
      <point x="229" y="255" type="qcurve" smooth="yes"/>
      <point x="229" y="192"/>
      <point x="298" y="119"/>
    </contour>
  </outline>
</glyph>
<glyph name="eight.dnom" format="2">
  <advance width="773"/>
  <unicode hex="E0BC"/>
  <outline>
    <contour>
      <point x="386" y="-9" type="qcurve" smooth="yes"/>
      <point x="294" y="-9"/>
      <point x="155" y="50"/>
      <point x="78" y="153"/>
      <point x="78" y="219" type="qcurve" smooth="yes"/>
      <point x="78" y="268"/>
      <point x="118" y="352"/>
      <point x="189" y="410"/>
      <point x="233" y="419" type="qcurve"/>
      <point x="233" y="428" type="line"/>
      <point x="175" y="443"/>
      <point x="108" y="544"/>
      <point x="108" y="604" type="qcurve" smooth="yes"/>
      <point x="108" y="667"/>
      <point x="180" y="765"/>
      <point x="305" y="821"/>
      <point x="386" y="821" type="qcurve" smooth="yes"/>
      <point x="466" y="821"/>
      <point x="592" y="764"/>
      <point x="664" y="666"/>
      <point x="664" y="604" type="qcurve" smooth="yes"/>
      <point x="664" y="543"/>
      <point x="596" y="443"/>
      <point x="540" y="428" type="qcurve"/>
      <point x="540" y="419" type="line"/>
      <point x="582" y="411"/>
      <point x="652" y="353"/>
      <point x="695" y="269"/>
      <point x="695" y="219" type="qcurve" smooth="yes"/>
      <point x="695" y="153"/>
      <point x="616" y="50"/>
      <point x="477" y="-9"/>
    </contour>
    <contour>
      <point x="386" y="116" type="qcurve" smooth="yes"/>
      <point x="454" y="116"/>
      <point x="529" y="178"/>
      <point x="529" y="230" type="qcurve" smooth="yes"/>
      <point x="529" y="286"/>
      <point x="447" y="355"/>
      <point x="386" y="355" type="qcurve" smooth="yes"/>
      <point x="323" y="355"/>
      <point x="242" y="286"/>
      <point x="242" y="230" type="qcurve" smooth="yes"/>
      <point x="242" y="178"/>
      <point x="316" y="116"/>
    </contour>
    <contour>
      <point x="386" y="478" type="qcurve" smooth="yes"/>
      <point x="438" y="478"/>
      <point x="507" y="537"/>
      <point x="507" y="587" type="qcurve" smooth="yes"/>
      <point x="507" y="637"/>
      <point x="441" y="694"/>
      <point x="386" y="694" type="qcurve" smooth="yes"/>
      <point x="330" y="694"/>
      <point x="265" y="637"/>
      <point x="265" y="587" type="qcurve" smooth="yes"/>
      <point x="265" y="537"/>
      <point x="332" y="478"/>
    </contour>
  </outline>
</glyph>
<glyph name="parenleft.numr" format="2">
  <advance width="484"/>
  <unicode hex="E0DA"/>
  <outline>
    <contour>
      <point x="122" y="1134" type="qcurve" smooth="yes"/>
      <point x="122" y="1268"/>
      <point x="203" y="1515"/>
      <point x="288" y="1624" type="qcurve"/>
      <point x="438" y="1624" type="line"/>
      <point x="394" y="1565"/>
      <point x="324" y="1407"/>
      <point x="284" y="1227"/>
      <point x="284" y="1134" type="qcurve" smooth="yes"/>
      <point x="284" y="1050"/>
      <point x="321" y="874"/>
      <point x="390" y="711"/>
      <point x="438" y="646" type="qcurve"/>
      <point x="288" y="646" type="line"/>
      <point x="203" y="756"/>
      <point x="122" y="1004"/>
    </contour>
  </outline>
</glyph>
<glyph name="parenright.numr" format="2">
  <advance width="484"/>
  <unicode hex="E0DB"/>
  <outline>
    <contour>
      <point x="362" y="1134" type="qcurve" smooth="yes"/>
      <point x="362" y="1001"/>
      <point x="280" y="753"/>
      <point x="197" y="646" type="qcurve"/>
      <point x="46" y="646" type="line"/>
      <point x="92" y="706"/>
      <point x="161" y="865"/>
      <point x="201" y="1045"/>
      <point x="201" y="1134" type="qcurve" smooth="yes"/>
      <point x="201" y="1222"/>
      <point x="163" y="1400"/>
      <point x="93" y="1561"/>
      <point x="46" y="1624" type="qcurve"/>
      <point x="197" y="1624" type="line"/>
      <point x="281" y="1513"/>
      <point x="362" y="1271"/>
    </contour>
  </outline>
</glyph>
<glyph name="dotmacron.lc" format="2">
  <advance width="495"/>
  <unicode hex="E10C"/>
  <outline>
    <contour>
      <point x="522" y="1781" type="line"/>
      <point x="522" y="1653" type="line"/>
      <point x="-32" y="1653" type="line"/>
      <point x="-32" y="1781" type="line"/>
    </contour>
    <contour>
      <point x="149" y="1294" type="line"/>
      <point x="149" y="1490" type="line"/>
      <point x="345" y="1490" type="line"/>
      <point x="345" y="1294" type="line"/>
    </contour>
  </outline>
</glyph>
<glyph name="macrondieresiscomb.lc" format="2">
  <advance width="978"/>
  <unicode hex="E111"/>
  <outline>
    <contour>
      <point x="766" y="1463" type="line"/>
      <point x="766" y="1321" type="line"/>
      <point x="212" y="1321" type="line"/>
      <point x="212" y="1463" type="line"/>
    </contour>
    <contour>
      <point x="702" y="1598" type="qcurve" smooth="yes"/>
      <point x="653" y="1598"/>
      <point x="583" y="1668"/>
      <point x="583" y="1717" type="qcurve" smooth="yes"/>
      <point x="583" y="1766"/>
      <point x="653" y="1835"/>
      <point x="702" y="1835" type="qcurve" smooth="yes"/>
      <point x="751" y="1835"/>
      <point x="820" y="1766"/>
      <point x="820" y="1717" type="qcurve" smooth="yes"/>
      <point x="820" y="1668"/>
      <point x="751" y="1598"/>
    </contour>
    <contour>
      <point x="282" y="1598" type="qcurve" smooth="yes"/>
      <point x="233" y="1598"/>
      <point x="163" y="1668"/>
      <point x="163" y="1717" type="qcurve" smooth="yes"/>
      <point x="163" y="1766"/>
      <point x="233" y="1835"/>
      <point x="282" y="1835" type="qcurve" smooth="yes"/>
      <point x="331" y="1835"/>
      <point x="400" y="1766"/>
      <point x="400" y="1717" type="qcurve" smooth="yes"/>
      <point x="400" y="1668"/>
      <point x="331" y="1598"/>
    </contour>
  </outline>
</glyph>
<glyph name="dieresiscaroncomb.lc" format="2">
  <advance width="1200"/>
  <unicode hex="E113"/>
  <unicode hex="E2CF"/>
  <outline>
    <contour>
      <point x="463" y="1891" type="line"/>
      <point x="607" y="1716" type="line"/>
      <point x="749" y="1891" type="line"/>
      <point x="928" y="1891" type="line"/>
      <point x="928" y="1882" type="line"/>
      <point x="692" y="1615" type="line"/>
      <point x="521" y="1615" type="line"/>
      <point x="286" y="1882" type="line"/>
      <point x="286" y="1891" type="line"/>
    </contour>
    <contour>
      <point x="292" y="1294" type="line"/>
      <point x="292" y="1490" type="line"/>
      <point x="488" y="1490" type="line"/>
      <point x="488" y="1294" type="line"/>
    </contour>
    <contour>
      <point x="712" y="1294" type="line"/>
      <point x="712" y="1490" type="line"/>
      <point x="908" y="1490" type="line"/>
      <point x="908" y="1294" type="line"/>
    </contour>
  </outline>
</glyph>
<glyph name="_part.f_base" format="2">
  <advance width="746"/>
  <anchor x="504" y="0" name="m.uni0326"/>
  <anchor x="537" y="1614" name="m.uni030F_1"/>
  <outline>
    <contour>
      <point x="232" y="0" type="line"/>
      <point x="232" y="1267" type="line" smooth="yes"/>
      <point x="232" y="1364"/>
      <point x="323" y="1494"/>
      <point x="469" y="1560"/>
      <point x="550" y="1560" type="qcurve" smooth="yes"/>
      <point x="614" y="1560"/>
      <point x="698" y="1539"/>
      <point x="718" y="1530" type="qcurve"/>
      <point x="668" y="1376" type="line"/>
      <point x="654" y="1381"/>
      <point x="609" y="1393"/>
      <point x="571" y="1393" type="qcurve" smooth="yes"/>
      <point x="488" y="1393"/>
      <point x="412" y="1308"/>
      <point x="412" y="1227" type="qcurve" smooth="yes"/>
      <point x="412" y="0" type="line"/>
    </contour>
  </outline>
</glyph>
<glyph name="_tildecross.cn" format="2">
  <advance width="716"/>
  <outline>
    <contour>
      <point x="494" y="685" type="qcurve" smooth="yes"/>
      <point x="457" y="685"/>
      <point x="386" y="710"/>
      <point x="323" y="743"/>
      <point x="270" y="768"/>
      <point x="251" y="768" type="qcurve" smooth="yes"/>
      <point x="225" y="768"/>
      <point x="200" y="718"/>
      <point x="198" y="689" type="qcurve"/>
      <point x="72" y="689" type="line"/>
      <point x="75" y="779"/>
      <point x="154" y="897"/>
      <point x="234" y="897" type="qcurve" smooth="yes"/>
      <point x="273" y="897"/>
      <point x="339" y="871"/>
      <point x="397" y="838"/>
      <point x="450" y="812"/>
      <point x="475" y="812" type="qcurve" smooth="yes"/>
      <point x="500" y="812"/>
      <point x="526" y="850"/>
      <point x="531" y="893" type="qcurve"/>
      <point x="654" y="893" type="line"/>
      <point x="651" y="799"/>
      <point x="568" y="685"/>
    </contour>
  </outline>
</glyph>
<glyph name="braceleft.tf" format="2">
  <advance width="800"/>
  <outline>
    <contour>
      <point x="82" y="646" type="qcurve"/>
      <point x="82" y="741" type="line"/>
      <point x="204" y="741"/>
      <point x="300" y="842"/>
      <point x="300" y="960" type="qcurve" smooth="yes"/>
      <point x="300" y="1190" type="line" smooth="yes"/>
      <point x="300" y="1292"/>
      <point x="341" y="1440"/>
      <point x="432" y="1535"/>
      <point x="581" y="1581"/>
      <point x="688" y="1581" type="qcurve"/>
      <point x="688" y="1430" type="line"/>
      <point x="561" y="1431"/>
      <point x="466" y="1314"/>
      <point x="466" y="1187" type="qcurve" smooth="yes"/>
      <point x="466" y="901" type="line" smooth="yes"/>
      <point x="466" y="844"/>
      <point x="436" y="751"/>
      <point x="354" y="683"/>
      <point x="203" y="646"/>
    </contour>
    <contour>
      <point x="688" y="-279" type="line"/>
      <point x="581" y="-279"/>
      <point x="432" y="-234"/>
      <point x="341" y="-139"/>
      <point x="300" y="9"/>
      <point x="300" y="112" type="qcurve" smooth="yes"/>
      <point x="300" y="340" type="line" smooth="yes"/>
      <point x="300" y="459"/>
      <point x="204" y="561"/>
      <point x="82" y="561" type="qcurve"/>
      <point x="82" y="656" type="line"/>
      <point x="203" y="656"/>
      <point x="354" y="618"/>
      <point x="436" y="549"/>
      <point x="466" y="455"/>
      <point x="466" y="399" type="qcurve" smooth="yes"/>
      <point x="466" y="115" type="line" smooth="yes"/>
      <point x="466" y="-12"/>
      <point x="561" y="-130"/>
      <point x="688" y="-130" type="qcurve"/>
    </contour>
    <contour>
      <point x="82" y="560" type="line"/>
      <point x="82" y="742" type="line"/>
      <point x="261" y="742" type="line"/>
      <point x="261" y="560" type="line"/>
    </contour>
  </outline>
</glyph>
<glyph name="carondot.lc" format="2">
  <advance width="828"/>
  <outline>
    <contour>
      <point x="277" y="1536" type="line"/>
      <point x="421" y="1361" type="line"/>
      <point x="563" y="1536" type="line"/>
      <point x="742" y="1536" type="line"/>
      <point x="742" y="1527" type="line"/>
      <point x="506" y="1260" type="line"/>
      <point x="335" y="1260" type="line"/>
      <point x="100" y="1527" type="line"/>
      <point x="100" y="1536" type="line"/>
    </contour>
    <contour>
      <point x="417" y="1598" type="qcurve" smooth="yes"/>
      <point x="366" y="1598"/>
      <point x="292" y="1668"/>
      <point x="292" y="1717" type="qcurve" smooth="yes"/>
      <point x="292" y="1767"/>
      <point x="366" y="1836"/>
      <point x="417" y="1836" type="qcurve" smooth="yes"/>
      <point x="469" y="1836"/>
      <point x="543" y="1767"/>
      <point x="543" y="1717" type="qcurve" smooth="yes"/>
      <point x="543" y="1668"/>
      <point x="469" y="1598"/>
    </contour>
  </outline>
</glyph>
<glyph name="circumflexgravecomb.cn" format="2">
  <advance width="832"/>
  <anchor x="560" y="2084" name="m.uni030F_1"/>
  <outline>
    <contour>
      <point x="279" y="1254" type="line"/>
      <point x="102" y="1254" type="line"/>
      <point x="102" y="1263" type="line"/>
      <point x="337" y="1530" type="line"/>
      <point x="508" y="1530" type="line"/>
      <point x="744" y="1263" type="line"/>
      <point x="744" y="1254" type="line"/>
      <point x="565" y="1254" type="line"/>
      <point x="423" y="1429" type="line"/>
    </contour>
    <contour>
      <point x="607" y="1615" type="line"/>
      <point x="414" y="1891" type="line"/>
      <point x="615" y="1891" type="line"/>
      <point x="755" y="1615" type="line"/>
    </contour>
  </outline>
</glyph>
<glyph name="crossbar" format="2">
  <advance width="926"/>
  <outline>
    <contour>
      <point x="140" y="676" type="line"/>
      <point x="140" y="814" type="line"/>
      <point x="786" y="814" type="line"/>
      <point x="786" y="676" type="line"/>
    </contour>
  </outline>
</glyph>
<glyph name="dieresistonos_narrow" format="2">
  <advance width="1106"/>
  <outline>
    <contour>
      <point x="461" y="1594" type="line"/>
      <point x="495" y="1888" type="line"/>
      <point x="688" y="1888" type="line"/>
      <point x="586" y="1594" type="line"/>
    </contour>
    <contour>
      <point x="218" y="1294" type="line"/>
      <point x="218" y="1490" type="line"/>
      <point x="414" y="1490" type="line"/>
      <point x="414" y="1294" type="line"/>
    </contour>
    <contour>
      <point x="638" y="1294" type="line"/>
      <point x="638" y="1490" type="line"/>
      <point x="834" y="1490" type="line"/>
      <point x="834" y="1294" type="line"/>
    </contour>
  </outline>
</glyph>
<glyph name="ghook.sc" format="2">
  <advance width="1235"/>
  <anchor x="690" y="5" name="m.uni0326"/>
  <anchor x="701" y="1180" name="m.uni030F_1"/>
  <outline>
    <contour>
      <point x="910" y="793" type="line"/>
      <point x="834" y="995" type="line" smooth="yes"/>
      <point x="802" y="1080"/>
      <point x="857" y="1224"/>
      <point x="996" y="1312"/>
      <point x="1089" y="1312" type="qcurve" smooth="yes"/>
      <point x="1122" y="1312"/>
      <point x="1179" y="1307"/>
      <point x="1194" y="1303" type="qcurve"/>
      <point x="1194" y="1154" type="line"/>
      <point x="1178" y="1156"/>
      <point x="1148" y="1158"/>
      <point x="1135" y="1158" type="qcurve" smooth="yes"/>
      <point x="1049" y="1158"/>
      <point x="965" y="1078"/>
      <point x="1002" y="980" type="qcurve" smooth="yes"/>
      <point x="1060" y="825" type="line"/>
    </contour>
    <contour>
      <point x="615" y="-15" type="qcurve" smooth="yes"/>
      <point x="463" y="-15"/>
      <point x="232" y="124"/>
      <point x="104" y="381"/>
      <point x="104" y="557" type="qcurve" smooth="yes"/>
      <point x="104" y="736"/>
      <point x="236" y="994"/>
      <point x="464" y="1132"/>
      <point x="608" y="1132" type="qcurve" smooth="yes"/>
      <point x="729" y="1132"/>
      <point x="910" y="1055"/>
      <point x="1031" y="917"/>
      <point x="1060" y="825" type="qcurve"/>
      <point x="887" y="777" type="line"/>
      <point x="862" y="865"/>
      <point x="729" y="970"/>
      <point x="610" y="970" type="qcurve" smooth="yes"/>
      <point x="518" y="970"/>
      <point x="369" y="875"/>
      <point x="283" y="691"/>
      <point x="283" y="558" type="qcurve" smooth="yes"/>
      <point x="283" y="426"/>
      <point x="369" y="242"/>
      <point x="520" y="147"/>
      <point x="617" y="147" type="qcurve" smooth="yes"/>
      <point x="706" y="147"/>
      <point x="837" y="219"/>
      <point x="910" y="351"/>
      <point x="910" y="440" type="qcurve"/>
      <point x="953" y="432" type="line"/>
      <point x="637" y="432" type="line"/>
      <point x="637" y="576" type="line"/>
      <point x="1084" y="576" type="line"/>
      <point x="1084" y="449" type="line" smooth="yes"/>
      <point x="1084" y="306"/>
      <point x="963" y="98"/>
      <point x="752" y="-15"/>
    </contour>
  </outline>
</glyph>
<glyph name="hookabove_compact" format="2">
  <advance width="514"/>
  <outline>
    <contour>
      <point x="334" y="1282" type="line"/>
      <point x="198" y="1282" type="line"/>
      <point x="261" y="1401" type="line" smooth="yes"/>
      <point x="272" y="1422"/>
      <point x="259" y="1440"/>
      <point x="239" y="1440" type="qcurve" smooth="yes"/>
      <point x="100" y="1440" type="line"/>
      <point x="100" y="1558" type="line"/>
      <point x="239" y="1558" type="line" smooth="yes"/>
      <point x="301" y="1558"/>
      <point x="381" y="1525"/>
      <point x="418" y="1467"/>
      <point x="408" y="1392"/>
      <point x="380" y="1350" type="qcurve" smooth="yes"/>
    </contour>
  </outline>
</glyph>
<glyph name="hooksubretrocomb" format="2">
  <outline>
    <contour>
      <point x="-22" y="-435" type="qcurve" smooth="yes"/>
      <point x="-165" y="-435"/>
      <point x="-308" y="-256"/>
      <point x="-308" y="-88" type="qcurve" smooth="yes"/>
      <point x="-308" y="159" type="line"/>
      <point x="-106" y="159" type="line"/>
      <point x="-106" y="-88" type="line" smooth="yes"/>
      <point x="-106" y="-145"/>
      <point x="-79" y="-224"/>
      <point x="-19" y="-265"/>
      <point x="30" y="-265" type="qcurve" smooth="yes"/>
      <point x="44" y="-265"/>
      <point x="79" y="-264"/>
      <point x="95" y="-259" type="qcurve"/>
      <point x="95" y="-421" type="line"/>
      <point x="69" y="-428"/>
      <point x="1" y="-435"/>
    </contour>
  </outline>
</glyph>
<glyph name="l" format="2">
  <advance width="496"/>
  <anchor x="414" y="0" name="m.uni0326"/>
  <anchor x="415" y="1490" name="m.uni030F_1"/>
  <outline>
    <contour>
      <point x="338" y="1490" type="line"/>
      <point x="338" y="0" type="line"/>
      <point x="158" y="0" type="line"/>
      <point x="158" y="1490" type="line"/>
    </contour>
  </outline>
</glyph>
<glyph name="oe.sc" format="2">
  <advance width="1689"/>
  <outline>
    <contour>
      <point x="595" y="0" type="line" smooth="yes"/>
      <point x="446" y="0"/>
      <point x="225" y="149"/>
      <point x="104" y="399"/>
      <point x="104" y="551" type="qcurve" smooth="yes"/>
      <point x="104" y="567" type="line" smooth="yes"/>
      <point x="104" y="719"/>
      <point x="224" y="969"/>
      <point x="443" y="1118"/>
      <point x="591" y="1118" type="qcurve" smooth="yes"/>
      <point x="928" y="1118" type="line"/>
      <point x="928" y="958" type="line"/>
      <point x="585" y="958" type="line" smooth="yes"/>
      <point x="493" y="958"/>
      <point x="358" y="850"/>
      <point x="286" y="672"/>
      <point x="286" y="567" type="qcurve" smooth="yes"/>
      <point x="286" y="551" type="line" smooth="yes"/>
      <point x="286" y="446"/>
      <point x="360" y="268"/>
      <point x="495" y="160"/>
      <point x="589" y="160" type="qcurve" smooth="yes"/>
      <point x="928" y="160" type="line"/>
      <point x="928" y="0" type="line"/>
    </contour>
    <contour>
      <point x="944" y="0" type="line"/>
      <point x="944" y="160" type="line"/>
      <point x="1579" y="160" type="line"/>
      <point x="1579" y="0" type="line"/>
    </contour>
    <contour>
      <point x="817" y="0" type="line"/>
      <point x="817" y="1118" type="line"/>
      <point x="995" y="1118" type="line"/>
      <point x="995" y="0" type="line"/>
    </contour>
    <contour>
      <point x="944" y="490" type="line"/>
      <point x="944" y="647" type="line"/>
      <point x="1492" y="647" type="line"/>
      <point x="1492" y="490" type="line"/>
    </contour>
    <contour>
      <point x="944" y="958" type="line"/>
      <point x="944" y="1118" type="line"/>
      <point x="1579" y="1118" type="line"/>
      <point x="1579" y="958" type="line"/>
    </contour>
  </outline>
</glyph>
<glyph name="ogonek.O" format="2">
  <advance width="820"/>
  <outline>
    <contour>
      <point x="219" y="-436" type="qcurve" smooth="yes"/>
      <point x="122" y="-436"/>
      <point x="-16" y="-336"/>
      <point x="-16" y="-242" type="qcurve" smooth="yes"/>
      <point x="-16" y="-170"/>
      <point x="66" y="-67"/>
      <point x="202" y="18"/>
      <point x="365" y="106"/>
      <point x="527" y="217"/>
      <point x="663" y="372"/>
      <point x="745" y="591"/>
      <point x="745" y="744" type="qcurve"/>
      <point x="820" y="744" type="line"/>
      <point x="820" y="579"/>
      <point x="749" y="341"/>
      <point x="632" y="174"/>
      <point x="493" y="59"/>
      <point x="353" y="-22"/>
      <point x="236" y="-88"/>
      <point x="165" y="-159"/>
      <point x="165" y="-206" type="qcurve" smooth="yes"/>
      <point x="165" y="-243"/>
      <point x="206" y="-285"/>
      <point x="248" y="-285" type="qcurve" smooth="yes"/>
      <point x="276" y="-285"/>
      <point x="322" y="-268"/>
      <point x="341" y="-257" type="qcurve"/>
      <point x="400" y="-386" type="line"/>
      <point x="370" y="-403"/>
      <point x="281" y="-436"/>
    </contour>
  </outline>
</glyph>
<glyph name="ogonek.a" format="2">
  <advance width="551"/>
  <outline>
    <contour>
      <point x="329" y="-426" type="qcurve" smooth="yes"/>
      <point x="232" y="-426"/>
      <point x="94" y="-326"/>
      <point x="94" y="-232" type="qcurve" smooth="yes"/>
      <point x="94" y="-161"/>
      <point x="183" y="-39"/>
      <point x="265" y="16" type="qcurve"/>
      <point x="443" y="0" type="line"/>
      <point x="376" y="-48"/>
      <point x="275" y="-134"/>
      <point x="275" y="-197" type="qcurve" smooth="yes"/>
      <point x="275" y="-233"/>
      <point x="316" y="-275"/>
      <point x="358" y="-275" type="qcurve" smooth="yes"/>
      <point x="388" y="-275"/>
      <point x="435" y="-257"/>
      <point x="451" y="-248" type="qcurve"/>
      <point x="510" y="-376" type="line"/>
      <point x="480" y="-393"/>
      <point x="391" y="-426"/>
    </contour>
  </outline>
</glyph>
<glyph name="quoteleft.ss03" format="2">
  <advance width="612"/>
  <outline>
    <contour>
      <point x="391" y="1533" type="qcurve"/>
      <point x="435" y="1441" type="line"/>
      <point x="379" y="1412"/>
      <point x="305" y="1344"/>
      <point x="268" y="1243"/>
      <point x="268" y="1162" type="qcurve" smooth="yes"/>
      <point x="268" y="1158"/>
      <point x="268" y="1153"/>
      <point x="268" y="1149" type="qcurve"/>
      <point x="249" y="1149" type="line"/>
      <point x="249" y="1183"/>
      <point x="292" y="1245"/>
      <point x="329" y="1245" type="qcurve" smooth="yes"/>
      <point x="380" y="1245"/>
      <point x="452" y="1172"/>
      <point x="452" y="1113" type="qcurve" smooth="yes"/>
      <point x="452" y="1053"/>
      <point x="374" y="978"/>
      <point x="313" y="978" type="qcurve" smooth="yes"/>
      <point x="243" y="978"/>
      <point x="160" y="1079"/>
      <point x="160" y="1167" type="qcurve" smooth="yes"/>
      <point x="160" y="1264"/>
      <point x="223" y="1406"/>
      <point x="328" y="1504"/>
    </contour>
  </outline>
</glyph>
<glyph name="quoteright.ss03" format="2">
  <advance width="612"/>
  <outline>
    <contour>
      <point x="221" y="951" type="qcurve"/>
      <point x="177" y="1043" type="line"/>
      <point x="233" y="1073"/>
      <point x="307" y="1140"/>
      <point x="344" y="1241"/>
      <point x="344" y="1322" type="qcurve" smooth="yes"/>
      <point x="344" y="1326"/>
      <point x="344" y="1331"/>
      <point x="344" y="1335" type="qcurve"/>
      <point x="363" y="1335" type="line"/>
      <point x="363" y="1301"/>
      <point x="320" y="1239"/>
      <point x="283" y="1239" type="qcurve" smooth="yes"/>
      <point x="232" y="1239"/>
      <point x="160" y="1313"/>
      <point x="160" y="1371" type="qcurve" smooth="yes"/>
      <point x="160" y="1431"/>
      <point x="238" y="1506"/>
      <point x="299" y="1506" type="qcurve" smooth="yes"/>
      <point x="369" y="1506"/>
      <point x="452" y="1406"/>
      <point x="452" y="1317" type="qcurve" smooth="yes"/>
      <point x="452" y="1221"/>
      <point x="389" y="1078"/>
      <point x="284" y="980"/>
    </contour>
  </outline>
</glyph>
<glyph name="seagullsubcomb" format="2">
  <outline>
    <contour>
      <point x="-497" y="-373" type="qcurve"/>
      <point x="-601" y="-373" type="line"/>
      <point x="-601" y="-264"/>
      <point x="-474" y="-132"/>
      <point x="-369" y="-132" type="qcurve" smooth="yes"/>
      <point x="-262" y="-132"/>
      <point x="-136" y="-265"/>
      <point x="-136" y="-373" type="qcurve"/>
      <point x="-241" y="-373" type="line"/>
      <point x="-241" y="-311"/>
      <point x="-309" y="-249"/>
      <point x="-369" y="-249" type="qcurve" smooth="yes"/>
      <point x="-430" y="-249"/>
      <point x="-497" y="-312"/>
    </contour>
    <contour>
      <point x="-857" y="-373" type="qcurve"/>
      <point x="-962" y="-373" type="line"/>
      <point x="-961" y="-266"/>
      <point x="-836" y="-132"/>
      <point x="-729" y="-132" type="qcurve" smooth="yes"/>
      <point x="-623" y="-132"/>
      <point x="-497" y="-265"/>
      <point x="-497" y="-373" type="qcurve"/>
      <point x="-601" y="-373" type="line"/>
      <point x="-601" y="-312"/>
      <point x="-668" y="-249"/>
      <point x="-729" y="-249" type="qcurve" smooth="yes"/>
      <point x="-788" y="-249"/>
      <point x="-857" y="-311"/>
    </contour>
  </outline>
</glyph>
<glyph name="tpalatalhook.1" format="2">
  <advance width="640"/>
  <anchor x="495" y="0" name="m.uni0326"/>
  <anchor x="415" y="1424" name="m.uni030F_1"/>
  <anchor x="616" y="0" name="m.uni0327_3"/>
  <outline>
    <contour>
      <point x="204" y="-419" type="qcurve"/>
      <point x="204" y="-269" type="line"/>
      <point x="219" y="-271"/>
      <point x="251" y="-273"/>
      <point x="263" y="-273" type="qcurve" smooth="yes"/>
      <point x="377" y="-273"/>
      <point x="464" y="-186"/>
      <point x="444" y="-94" type="qcurve" smooth="yes"/>
      <point x="422" y="6" type="line"/>
      <point x="599" y="6" type="line"/>
      <point x="621" y="-93" type="line" smooth="yes"/>
      <point x="653" y="-235"/>
      <point x="492" y="-428"/>
      <point x="308" y="-428" type="qcurve" smooth="yes"/>
      <point x="276" y="-428"/>
      <point x="219" y="-423"/>
    </contour>
    <contour>
      <point x="158" y="1384" type="line"/>
      <point x="338" y="1384" type="line"/>
      <point x="338" y="290" type="line" smooth="yes"/>
      <point x="338" y="215"/>
      <point x="399" y="146"/>
      <point x="470" y="146" type="qcurve" smooth="yes"/>
      <point x="487" y="146"/>
      <point x="540" y="154"/>
      <point x="562" y="158" type="qcurve"/>
      <point x="599" y="6" type="line"/>
      <point x="571" y="-4"/>
      <point x="500" y="-14"/>
      <point x="465" y="-14" type="qcurve" smooth="yes"/>
      <point x="320" y="-14"/>
      <point x="158" y="139"/>
      <point x="158" y="276" type="qcurve" smooth="yes"/>
    </contour>
    <contour>
      <point x="568" y="1118" type="line"/>
      <point x="568" y="964" type="line"/>
      <point x="240" y="964" type="line"/>
      <point x="240" y="1118" type="line"/>
    </contour>
  </outline>
</glyph>
<glyph name="underscoredblcomb" format="2">
  <outline>
    <contour>
      <point x="-125" y="-84" type="line"/>
      <point x="-125" y="-246" type="line"/>
      <point x="-1056" y="-246" type="line"/>
      <point x="-1056" y="-84" type="line"/>
    </contour>
    <contour>
      <point x="-125" y="-341" type="line"/>
      <point x="-125" y="-503" type="line"/>
      <point x="-1056" y="-503" type="line"/>
      <point x="-1056" y="-341" type="line"/>
    </contour>
  </outline>
</glyph>
<glyph name="vecyr.loclBGR" format="2">
  <advance width="1180"/>
  <outline>
    <contour>
      <point x="314" y="862" type="line"/>
      <point x="660" y="862" type="line" smooth="yes"/>
      <point x="813" y="862"/>
      <point x="1005" y="732"/>
      <point x="1096" y="533"/>
      <point x="1096" y="428" type="qcurve" smooth="yes"/>
      <point x="1096" y="302"/>
      <point x="978" y="99"/>
      <point x="773" y="-20"/>
      <point x="640" y="-20" type="qcurve" smooth="yes"/>
      <point x="559" y="-20"/>
      <point x="402" y="41"/>
      <point x="340" y="126" type="qcurve"/>
      <point x="328" y="120" type="line"/>
      <point x="328" y="404" type="line"/>
      <point x="329" y="333"/>
      <point x="399" y="213"/>
      <point x="530" y="140"/>
      <point x="620" y="140" type="qcurve" smooth="yes"/>
      <point x="715" y="140"/>
      <point x="852" y="219"/>
      <point x="926" y="351"/>
      <point x="926" y="428" type="qcurve" smooth="yes"/>
      <point x="926" y="501"/>
      <point x="860" y="630"/>
      <point x="739" y="712"/>
      <point x="658" y="712" type="qcurve" smooth="yes"/>
      <point x="314" y="712" type="line"/>
    </contour>
    <contour>
      <point x="600" y="1510" type="qcurve" smooth="yes"/>
      <point x="704" y="1510"/>
      <point x="864" y="1443"/>
      <point x="975" y="1330"/>
      <point x="1032" y="1191"/>
      <point x="1032" y="1118" type="qcurve" smooth="yes"/>
      <point x="1032" y="1026"/>
      <point x="939" y="844"/>
      <point x="748" y="724"/>
      <point x="600" y="724" type="qcurve" smooth="yes"/>
      <point x="314" y="724" type="line"/>
      <point x="314" y="872" type="line"/>
      <point x="596" y="872" type="line"/>
      <point x="681" y="873"/>
      <point x="800" y="943"/>
      <point x="864" y="1055"/>
      <point x="864" y="1118" type="qcurve" smooth="yes"/>
      <point x="864" y="1218"/>
      <point x="711" y="1350"/>
      <point x="600" y="1350" type="qcurve" smooth="yes"/>
      <point x="526" y="1350"/>
      <point x="402" y="1289"/>
      <point x="328" y="1180"/>
      <point x="328" y="1108" type="qcurve" smooth="yes"/>
      <point x="328" y="0" type="line"/>
      <point x="158" y="0" type="line"/>
      <point x="158" y="1108" type="line" smooth="yes"/>
      <point x="158" y="1223"/>
      <point x="272" y="1405"/>
      <point x="472" y="1510"/>
    </contour>
  </outline>
</glyph>
